<?xml version="1.0" encoding="UTF-8"?>
<svg id="Calque_1" data-name="Calque 1" xmlns="http://www.w3.org/2000/svg" viewBox="0 0 137.14 33.91">
  <defs>
    <style>
      .cls-1, .cls-2 {
        stroke-width: 0px;
      }

      .cls-1, .cls-2, .cls-3 {
        fill: #134888;
      }

      .cls-4, .cls-3 {
        isolation: isolate;
      }

      .cls-2 {
        fill-rule: evenodd;
      }

      .cls-5 {
        letter-spacing: -.03em;
      }

      .cls-3 {
        font-family: Raleway-Bold, Raleway;
        font-size: 18px;
        font-weight: 700;
      }

      .cls-6 {
        letter-spacing: -.01em;
      }
    </style>
  </defs>
  <g id="instagram">
    <g id="instagram-svgrepo-com">
      <path id="Tracé_348" data-name="Tracé 348" class="cls-2" d="m16.96,26.21c5.11,0,9.25-4.14,9.25-9.25s-4.14-9.25-9.25-9.25-9.25,4.14-9.25,9.25c0,5.11,4.14,9.25,9.25,9.25h0Zm0-3.08c3.41,0,6.17-2.76,6.17-6.17,0-3.41-2.76-6.17-6.17-6.17s-6.17,2.76-6.17,6.17c0,3.4,2.76,6.16,6.17,6.16h0Z"/>
      <path id="Tracé_349" data-name="Tracé 349" class="cls-1" d="m26.2,6.17c-.85,0-1.54.69-1.54,1.54s.69,1.54,1.54,1.54,1.54-.69,1.54-1.54-.69-1.54-1.54-1.54h0Z"/>
      <path id="Tracé_350" data-name="Tracé 350" class="cls-2" d="m1.01,5.05c-1.01,1.98-1.01,4.57-1.01,9.75v4.32c0,5.18,0,7.77,1.01,9.75.89,1.74,2.3,3.15,4.04,4.04,1.98,1.01,4.57,1.01,9.75,1.01h4.32c5.18,0,7.77,0,9.75-1.01,1.74-.89,3.15-2.3,4.04-4.04,1.01-1.98,1.01-4.57,1.01-9.75v-4.31c0-5.18,0-7.77-1.01-9.75-.89-1.74-2.3-3.16-4.04-4.04-1.97-1.01-4.56-1.01-9.74-1.01h-4.31c-5.18,0-7.77,0-9.75,1.01C3.31,1.89,1.9,3.31,1.01,5.05Zm18.11-1.97h-4.31c-2.64,0-4.44,0-5.82.12-.87.02-1.73.21-2.53.56-1.16.59-2.1,1.53-2.7,2.69-.35.8-.54,1.66-.56,2.53-.11,1.39-.12,3.18-.12,5.82v4.32c0,2.64,0,4.44.12,5.82.02.87.21,1.73.56,2.52.59,1.16,1.53,2.1,2.69,2.69.8.35,1.66.54,2.53.56,1.39.11,3.18.12,5.82.12h4.32c2.64,0,4.44,0,5.82-.12.87-.02,1.73-.21,2.52-.56,1.16-.59,2.1-1.53,2.69-2.69.35-.8.54-1.66.56-2.52.11-1.39.12-3.18.12-5.82v-4.31c0-2.64,0-4.44-.12-5.82-.02-.87-.21-1.73-.56-2.53-.59-1.16-1.53-2.1-2.69-2.7-.8-.35-1.66-.54-2.53-.56-1.39-.11-3.18-.12-5.82-.12Z"/>
    </g>
    <g id="_Ekose_RX" data-name=" Ekose RX" class="cls-4">
      <text class="cls-3" transform="translate(43 23)"><tspan x="0" y="0">@E</tspan><tspan class="cls-5" x="26.03" y="0">k</tspan><tspan x="35.59" y="0">ose R</tspan><tspan class="cls-6" x="82.46" y="0">X</tspan></text>
    </g>
  </g>
</svg>