<?xml version="1.0" encoding="UTF-8"?>
<svg id="Calque_1" data-name="Calque 1" xmlns="http://www.w3.org/2000/svg" viewBox="0 0 123.93 26.25">
  <defs>
    <style>
      .cls-1, .cls-2 {
        isolation: isolate;
      }

      .cls-3 {
        fill-rule: evenodd;
        stroke-width: 0px;
      }

      .cls-3, .cls-2 {
        fill: #134888;
      }

      .cls-4 {
        letter-spacing: -.01em;
      }

      .cls-5 {
        letter-spacing: -.03em;
      }

      .cls-2 {
        font-family: Raleway-Bold, Raleway;
        font-size: 18px;
        font-weight: 700;
      }
    </style>
  </defs>
  <g id="facebook">
    <g id="Ekose_RX" data-name="Ekose RX" class="cls-1">
      <text class="cls-2" transform="translate(45 19.63)"><tspan x="0" y="0">E</tspan><tspan class="cls-5" x="10.82" y="0">k</tspan><tspan x="20.38" y="0">ose R</tspan><tspan class="cls-4" x="67.25" y="0">X</tspan></text>
    </g>
    <g id="youtube-svgrepo-com">
      <path id="Tracé_303" data-name="Tracé 303" class="cls-3" d="m13.85,6.02c-.7-.4-1.59-.16-1.99.54-.13.22-.19.47-.19.72v11.67c0,.81.65,1.46,1.46,1.46.25,0,.5-.07.72-.19l10.21-5.83c.7-.4.94-1.29.54-1.99-.13-.23-.32-.41-.54-.54l-10.21-5.83Zm6.55,7.1l-5.81,3.32v-6.64l5.81,3.32Z"/>
      <path id="Tracé_304" data-name="Tracé 304" class="cls-3" d="m0,13.13C0,7.66,0,4.93,1.39,3.01c.45-.62.99-1.16,1.61-1.61C4.92,0,7.66,0,13.12,0h8.75c5.47,0,8.2,0,10.12,1.39.62.45,1.16.99,1.61,1.61,1.39,1.92,1.39,4.65,1.39,10.12s0,8.2-1.39,10.12c-.45.62-.99,1.16-1.61,1.61-1.92,1.39-4.65,1.39-10.12,1.39h-8.75c-5.47,0-8.2,0-10.12-1.39-.62-.45-1.16-.99-1.61-1.61-1.39-1.92-1.39-4.65-1.39-10.12ZM13.12,2.92h8.75c2.8,0,4.66,0,6.08.16.82.02,1.63.25,2.33.68.37.27.7.6.97.97.43.7.66,1.51.68,2.33.15,1.41.16,3.28.16,6.08s0,4.66-.16,6.08c-.02.82-.25,1.63-.68,2.33-.27.37-.6.7-.97.97-.7.43-1.51.66-2.33.68-1.41.15-3.28.16-6.08.16h-8.75c-2.8,0-4.66,0-6.08-.16-.82-.02-1.63-.25-2.33-.68-.37-.27-.7-.6-.97-.97-.43-.7-.66-1.51-.68-2.33-.15-1.41-.16-3.28-.16-6.08s0-4.66.16-6.08c.02-.82.25-1.62.68-2.33.27-.37.6-.7.97-.97.7-.43,1.51-.66,2.33-.68,1.41-.15,3.28-.16,6.08-.16Z"/>
    </g>
  </g>
</svg>