<?xml version="1.0" encoding="UTF-8"?>
<svg id="Calque_1" data-name="Calque 1" xmlns="http://www.w3.org/2000/svg" xmlns:xlink="http://www.w3.org/1999/xlink" viewBox="0 0 51.3 59.06">
  <defs>
    <style>
      .cls-1 {
        clip-path: url(#clippath-2);
      }

      .cls-2 {
        clip-path: url(#clippath-6);
      }

      .cls-3 {
        fill: none;
      }

      .cls-3, .cls-4 {
        stroke-width: 0px;
      }

      .cls-5 {
        clip-path: url(#clippath-1);
      }

      .cls-6 {
        clip-path: url(#clippath-4);
      }

      .cls-7 {
        clip-path: url(#clippath);
      }

      .cls-4 {
        fill: #0aa139;
      }

      .cls-8 {
        clip-path: url(#clippath-3);
      }

      .cls-9 {
        clip-path: url(#clippath-5);
      }
    </style>
    <clipPath id="clippath">
      <path class="cls-3" d="m6.35,54.99c-2.33-2.34-2.33-6.13,0-8.47l8.57-8.57.99.99,7.48,7.48-8.58,8.57c-2.34,2.33-6.13,2.33-8.47,0m-1.11-9.58c-2.95,2.95-2.95,7.75,0,10.7,2.95,2.95,7.75,2.95,10.7,0l9.68-9.67-10.7-10.7-9.68,9.67Z"/>
    </clipPath>
    <clipPath id="clippath-1">
      <path class="cls-3" d="m28.99,46.64l9.22,9.23c.75.76,1.66,1.34,2.66,1.71,2.74,1.09,5.87.45,7.96-1.63.01,0,.02-.03.03-.04l.04-.03c1.13-1.12,1.87-2.57,2.11-4.15.02-.14.04-.28.06-.42.24-2.27-.55-4.52-2.16-6.14l-9.23-9.23-10.7,10.7Z"/>
    </clipPath>
    <clipPath id="clippath-2">
      <path class="cls-3" d="m23.78,1.61c2.04,1.08,3.79,2.64,5.12,4.53.67.99,1.2,2.06,1.57,3.2.41,1.26.61,2.58.6,3.91,0,1.4-.27,2.79-.83,4.07-.63,1.3-1.46,2.5-2.46,3.55-1.06,1.1-1.98,2.33-2.74,3.66-.71,1.36-1.1,2.87-1.16,4.4-.09,1.42.04,2.85.41,4.22.35,1.27.94,2.46,1.76,3.5,1.25,1.54,2.9,2.71,4.76,3.39.52.2,1.05.36,1.59.49.19.04.34.07.45.09s.17.03.17.03l.24-2.09h-.1c-.08-.02-.19-.04-.34-.06-.45-.08-.9-.19-1.34-.33-1.58-.48-3-1.38-4.11-2.6-.72-.83-1.28-1.8-1.62-2.85-.39-1.21-.58-2.48-.55-3.75,0-1.36.28-2.7.85-3.93.67-1.28,1.49-2.48,2.44-3.57,1-1.15,1.82-2.46,2.42-3.86.53-1.39.76-2.88.68-4.36-.07-2.61-.93-5.13-2.48-7.23-1.09-1.46-2.44-2.7-3.99-3.66-.56-.34-1.01-.59-1.33-.74l-.48-.24s.16.09.48.26"/>
    </clipPath>
    <clipPath id="clippath-3">
      <path class="cls-3" d="m.92,18.42S0,22.78,7.15,25.69s9.6.11,9.6.11c0,0-1.34-2.73-10.02-5.65-1.35-.45-1.5-.82-1.46-1.02.04.01.08.02.12.03.59.13,1.24.2,1.9.42s1.35.44,2.07.68,1.46.48,2.21.72c.72.33,1.45.67,2.18,1,.72.36,1.47.63,2.15,1.05s1.34.81,1.98,1.2c.62.36,1.22.77,1.78,1.22.54.42,1.07.79,1.53,1.17.73.62,1.42,1.28,2.07,1.97.26.25.5.52.72.81l.85-.72c-.25-.29-.51-.56-.79-.82-.72-.7-1.48-1.36-2.26-1.97-.48-.38-1.05-.74-1.62-1.14-.52-.36-1.05-.7-1.61-1,.4-1.54,1.52-7.74-6.26-8.1-.54-.02-1.06-.04-1.55-.04-7.64,0-9.83,2.81-9.83,2.81"/>
    </clipPath>
    <clipPath id="clippath-4">
      <path class="cls-3" d="m32.22,21.3c-.4-.03-.79-.03-1.19-.01-.44.02-.86.02-1.24.05-.77.1-1.41.17-1.87.28-.24.04-.47.1-.7.17l.21.66c.22-.07.43-.13.66-.18.58-.14,1.17-.25,1.76-.33.37-.05.78-.07,1.21-.1.45-.05.9-.07,1.35-.04.47.01.96.03,1.45.04s.99.12,1.49.18l1.49.21,1.41.37c.46.12.9.23,1.32.34.39.12.77.27,1.15.43l.07.03c-.05.12-.25.26-1.12.04-5.58-1.4-7.21-.41-7.21-.41,0,0,.34,2.31,5.11,3.2s5.77-1.73,5.77-1.73c0,0-.24-2.53-5.08-5.33-.79-.51-1.7-.79-2.63-.83-2.27,0-3.19,2.27-3.43,2.99"/>
    </clipPath>
    <clipPath id="clippath-5">
      <path class="cls-3" d="m22.66,7.36s-1.02,1.74,1.61,4.01,4.09,1.44,4.09,1.44c0,0-.18-1.36-3.47-3.86-.51-.39-.52-.57-.47-.65.01.01.03.02.05.03.26.14.51.29.76.45.25.18.51.39.78.58s.56.42.84.63c.26.25.52.5.79.75s.54.48.77.76.45.54.67.8c.21.24.41.5.58.78.17.26.34.49.49.72.22.37.42.75.6,1.14.07.15.14.29.19.45l.46-.18c-.06-.16-.14-.31-.22-.46-.2-.4-.43-.79-.68-1.17-.16-.23-.34-.46-.53-.73-.17-.23-.35-.45-.54-.66.4-.6,1.77-3.09-1.5-4.37-1.14-.49-2.37-.76-3.61-.8-.57-.04-1.15.08-1.66.33"/>
    </clipPath>
    <clipPath id="clippath-6">
      <path class="cls-3" d="m20.38.79s-.42,1.51,2.04,2.7,3.37.25,3.37.25c0,0-.41-.99-3.4-2.2-.47-.19-.51-.33-.49-.39.01,0,.03,0,.04.01.21.06.44.1.66.19s.47.18.71.28.5.2.76.3c.24.13.49.27.74.4s.51.25.74.42.45.31.67.46l.25-.16c.17-.54.71-2.69-2.03-2.99-.39-.04-.77-.06-1.16-.07-2.2,0-2.9.79-2.9.79"/>
    </clipPath>
  </defs>
  <g id="Groupe_894" data-name="Groupe 894">
    <g id="Groupe_867" data-name="Groupe 867">
      <g class="cls-7">
        <g id="Groupe_866" data-name="Groupe 866">
          <rect id="Rectangle_336" data-name="Rectangle 336" class="cls-4" x="2.29" y="35.73" width="23.33" height="23.33"/>
        </g>
      </g>
    </g>
    <g id="Groupe_869" data-name="Groupe 869">
      <g class="cls-5">
        <g id="Groupe_868" data-name="Groupe 868">
          <rect id="Rectangle_337" data-name="Rectangle 337" class="cls-4" x="28.99" y="35.95" width="22.32" height="22.68"/>
        </g>
      </g>
    </g>
    <g id="Groupe_871" data-name="Groupe 871">
      <g class="cls-1">
        <g id="Groupe_870" data-name="Groupe 870">
          <rect id="Rectangle_338" data-name="Rectangle 338" class="cls-4" x="23.3" y="1.35" width="9.94" height="39.28"/>
        </g>
      </g>
    </g>
    <g id="Groupe_873" data-name="Groupe 873">
      <g class="cls-8">
        <g id="Groupe_872" data-name="Groupe 872">
          <rect id="Rectangle_339" data-name="Rectangle 339" class="cls-4" y="15.61" width="24.84" height="13.79"/>
        </g>
      </g>
    </g>
    <g id="Groupe_875" data-name="Groupe 875">
      <g class="cls-6">
        <g id="Groupe_874" data-name="Groupe 874">
          <rect id="Rectangle_340" data-name="Rectangle 340" class="cls-4" x="27.22" y="18.31" width="16.14" height="8.78"/>
        </g>
      </g>
    </g>
    <g id="Groupe_877" data-name="Groupe 877">
      <g class="cls-9">
        <g id="Groupe_876" data-name="Groupe 876">
          <rect id="Rectangle_341" data-name="Rectangle 341" class="cls-4" x="21.63" y="7.03" width="9.77" height="8.37"/>
        </g>
      </g>
    </g>
    <g id="Groupe_879" data-name="Groupe 879">
      <g class="cls-2">
        <g id="Groupe_878" data-name="Groupe 878">
          <rect id="Rectangle_342" data-name="Rectangle 342" class="cls-4" x="19.97" width="7.22" height="4.67"/>
        </g>
      </g>
    </g>
  </g>
</svg>