<?xml version="1.0" encoding="utf-8"?>
<!-- Generator: Adobe Illustrator 28.0.0, SVG Export Plug-In . SVG Version: 6.00 Build 0)  -->
<svg version="1.1" id="Calque_1" xmlns="http://www.w3.org/2000/svg" xmlns:xlink="http://www.w3.org/1999/xlink" x="0px" y="0px"
	 viewBox="0 0 108.7 68.6" style="enable-background:new 0 0 108.7 68.6;" xml:space="preserve">
<style type="text/css">
	.st0{fill:#BDFF7B;}
	.st1{fill:url(#SVGID_1_);}
	.st2{fill:url(#SVGID_00000121265710232352902410000004740958053869362839_);}
	.st3{fill:url(#SVGID_00000067211836739278250790000015285512490902014861_);}
	.st4{fill:url(#SVGID_00000152974743369468171650000014334006965199799478_);}
	.st5{fill:url(#SVGID_00000029736147923818556320000016747671771179100860_);}
	.st6{fill:url(#SVGID_00000067222552345658624680000012282502504515542188_);}
</style>
<g>
	
		<image style="overflow:visible;" width="424" height="275" xlink:href="3A997B8F.png"  transform="matrix(0.24 0 0 0.24 5.88 1.2)">
	</image>
	<g>
		<path class="st0" d="M9.7,33.9c0,0.1,0,0.2,0,0.3c0,0.1,0,0.2,0,0.3c0,20.9-2.4,32.5-3.6,32.5l0,0l68.6,0
			c18.2,0,32.9-14.7,32.9-32.9c0-18.2-14.7-32.9-32.9-32.9l-68.6,0l0,0C7.3,1.4,9.7,13,9.7,33.9z"/>
		
			<linearGradient id="SVGID_1_" gradientUnits="userSpaceOnUse" x1="-20.9876" y1="210.5641" x2="-20.9876" y2="276.8958" gradientTransform="matrix(-1 0 0 -1 35.8549 277.7174)">
			<stop  offset="0" style="stop-color:#98EC7F"/>
			<stop  offset="0.7306" style="stop-color:#038602"/>
			<stop  offset="0.8258" style="stop-color:#058704"/>
			<stop  offset="0.8643" style="stop-color:#0C890B"/>
			<stop  offset="0.8927" style="stop-color:#188E17"/>
			<stop  offset="0.916" style="stop-color:#2A9429"/>
			<stop  offset="0.9362" style="stop-color:#409C40"/>
			<stop  offset="0.9543" style="stop-color:#5CA65C"/>
			<stop  offset="0.9708" style="stop-color:#7DB27D"/>
			<stop  offset="0.9856" style="stop-color:#A3BFA3"/>
			<stop  offset="0.9994" style="stop-color:#CDCECD"/>
			<stop  offset="1" style="stop-color:#CFCFCF"/>
		</linearGradient>
		<path class="st1" d="M6.1,1.4l68.6,0c18.2,0,32.9,14.7,32.9,32.9c0,5.7-1.5,11.1-4,15.8C98,60.2,87.2,67.2,74.7,67.2l-68.6,0
			c0.8,0,2.3-5.7,3.1-16.4c0.3-4.5,0.6-9.9,0.6-16.2l0-0.7c0-10.5-0.6-18.6-1.4-24.1C7.6,4.3,6.7,1.4,6.1,1.4z"/>
		<g>
			
				<image style="overflow:visible;" width="44" height="275" xlink:href="3A997B8D.png"  transform="matrix(0.24 0 0 0.24 12.6 1.2)">
			</image>
		</g>
		
			<linearGradient id="SVGID_00000170992717223723040930000014217346457859080326_" gradientUnits="userSpaceOnUse" x1="30.4859" y1="210.9852" x2="30.4859" y2="278.5173" gradientTransform="matrix(-1 0 0 -1 35.8549 277.7174)">
			<stop  offset="0" style="stop-color:#427315"/>
			<stop  offset="0.1327" style="stop-color:#5B8E2B"/>
			<stop  offset="0.2956" style="stop-color:#74A841"/>
			<stop  offset="0.4421" style="stop-color:#83B74E"/>
			<stop  offset="0.5571" style="stop-color:#88BD53"/>
			<stop  offset="0.6498" style="stop-color:#83B84F"/>
			<stop  offset="0.7631" style="stop-color:#75A942"/>
			<stop  offset="0.8867" style="stop-color:#5E902D"/>
			<stop  offset="1" style="stop-color:#427315"/>
		</linearGradient>
		<path style="fill:url(#SVGID_00000170992717223723040930000014217346457859080326_);" d="M5.4,68L5.4,68c1.2,0,3.7-11.9,3.7-33.4
			c0-0.1,0-0.2,0-0.4c0-0.1,0-0.2,0-0.4c0-21.5-2.5-33.4-3.7-33.4l0,0c-1.2,0-3.7,12.1-3.7,33.8C1.7,56,4.1,68,5.4,68z"/>
		
			<linearGradient id="SVGID_00000085237610644950883390000006203218910128283832_" gradientUnits="userSpaceOnUse" x1="26.6657" y1="243.4387" x2="34.0929" y2="243.4387" gradientTransform="matrix(-1 0 0 -1 35.8549 277.7174)">
			<stop  offset="0" style="stop-color:#BABABA"/>
			<stop  offset="1" style="stop-color:#26D318"/>
		</linearGradient>
		<path style="fill:url(#SVGID_00000085237610644950883390000006203218910128283832_);" d="M5.4,68L5.4,68c1.2,0,3.7-11.9,3.7-33.4
			c0-0.1,0-0.2,0-0.4c0-0.1,0-0.2,0-0.4c0-21.5-2.5-33.4-3.7-33.4l0,0c-1.2,0-3.7,12.1-3.7,33.8C1.7,56,4.1,68,5.4,68z"/>
		
			<linearGradient id="SVGID_00000010270359376423311610000013782211806119963808_" gradientUnits="userSpaceOnUse" x1="-18.9793" y1="232.7341" x2="-18.9793" y2="210.8143" gradientTransform="matrix(-1 0 0 -1 35.8549 277.7174)">
			<stop  offset="0" style="stop-color:#080808"/>
			<stop  offset="1" style="stop-color:#292929"/>
		</linearGradient>
		<path style="fill:url(#SVGID_00000010270359376423311610000013782211806119963808_);" d="M6.1,67.2c0.8,0,2.3-5.7,3.1-16.4l0.6-1
			l67.9,0l3.2-3.9c0,0,15.7-5.9,22.8,4.2C98,60.2,87.2,67.2,74.7,67.2L6.1,67.2z"/>
		<path class="st0" d="M5.4,0.5l6.7,0c1.2,0,3.7,11.9,3.7,33.4l0,0.7c0,21.5-2.5,33.4-3.7,33.4l-6.7,0c1.2,0,3.7-11.9,3.7-33.4v-0.7
			c0-10.7-0.6-19.1-1.4-24.8C6.9,3.5,6,0.5,5.4,0.5z"/>
		
			<linearGradient id="SVGID_00000072265643257541076930000012204457356847781545_" gradientUnits="userSpaceOnUse" x1="25.2847" y1="209.6699" x2="25.2847" y2="277.8045" gradientTransform="matrix(-1 0 0 -1 35.8549 277.7174)">
			<stop  offset="0" style="stop-color:#FFFFFF"/>
			<stop  offset="0.7306" style="stop-color:#27D318"/>
			<stop  offset="0.8282" style="stop-color:#29D31A"/>
			<stop  offset="0.8678" style="stop-color:#2FD321"/>
			<stop  offset="0.8969" style="stop-color:#3BD32D"/>
			<stop  offset="0.9208" style="stop-color:#4BD23F"/>
			<stop  offset="0.9415" style="stop-color:#5FD256"/>
			<stop  offset="0.9601" style="stop-color:#79D172"/>
			<stop  offset="0.977" style="stop-color:#98D093"/>
			<stop  offset="0.9922" style="stop-color:#BACFB9"/>
			<stop  offset="1" style="stop-color:#CFCFCF"/>
		</linearGradient>
		<path style="fill:url(#SVGID_00000072265643257541076930000012204457356847781545_);" d="M5.4,0.5l6.7,0c1.2,0,3.7,11.9,3.7,33.4
			l0,0.7c0,6.5-0.2,12.2-0.6,16.9C14.4,62.3,12.9,68,12.1,68l-6.7,0c0.9,0,2.3-5.8,3.1-16.5c0.4-4.7,0.6-10.4,0.6-16.9l0-0.7
			c0-10.7-0.6-19.1-1.4-24.8C6.9,3.5,6,0.5,5.4,0.5z"/>
		
			<linearGradient id="SVGID_00000146458475461265285530000002315945760816901534_" gradientUnits="userSpaceOnUse" x1="25.5852" y1="226.5126" x2="25.5852" y2="209.4584" gradientTransform="matrix(-1 0 0 -1 35.8549 277.7174)">
			<stop  offset="0" style="stop-color:#080808"/>
			<stop  offset="1" style="stop-color:#292929"/>
		</linearGradient>
		<path style="fill:url(#SVGID_00000146458475461265285530000002315945760816901534_);" d="M5.4,68c0.9,0,2.3-5.8,3.1-16.5l6.7,0
			C14.4,62.3,12.9,68,12.1,68L5.4,68z"/>
	</g>
</g>
</svg>
