<svg xmlns="http://www.w3.org/2000/svg" xmlns:xlink="http://www.w3.org/1999/xlink" width="1386.941" height="459.736" viewBox="0 0 1386.941 459.736">
  <defs>
    <linearGradient id="linear-gradient" x1="1.239" y1="-0.215" x2="0.02" y2="0.972" gradientUnits="objectBoundingBox">
      <stop offset="0" stop-color="#32e800"/>
      <stop offset="1" stop-color="#134888"/>
    </linearGradient>
  </defs>
  <path id="Tracé_409" data-name="Tracé 409" d="M0,113.642l1.76-.213L.31,224.734,0,248.425V458.736H1385.941V405.16c-42.32-.039-734.581-.11-776.9-.11q-162.465-.012-324.94.024c-18,0-35.21-2.3-50.05-11.086-10.33-6.106-17.29-14.017-20.54-23.975-6.81-20.84-13.82-41.64-20.68-62.464a55.923,55.923,0,0,1-1.27-6.413l-12.72-35.9-.55-1.584-1.52-4.286-10.55-29.782L165.66,228l-.54-1.521-.33-.953L138.8,152.161c-1.11.079-2.22.165-3.33.244l3.3-.331-3.98-11.243-.8-2.261-2.7-7.611-5.54-15.671-4.4-12.409-4.22-11.921c-2.42-6.547-4.87-13.118-7.49-19.642-5.06-12.622-9.44-25.5-15.99-37.637C81.61,11.374,59.93-.436,28.47.013,18.98.147,9.49.131,0,.186Z" transform="translate(0.5 0.5)" stroke="rgba(0,0,0,0)" stroke-width="1" fill="url(#linear-gradient)"/>
</svg>
