<?xml version="1.0" encoding="utf-8"?>
<!-- Generator: Adobe Illustrator 28.0.0, SVG Export Plug-In . SVG Version: 6.00 Build 0)  -->
<svg version="1.1" xmlns="http://www.w3.org/2000/svg" xmlns:xlink="http://www.w3.org/1999/xlink" x="0px" y="0px"
	 viewBox="0 0 1760 1236" style="enable-background:new 0 0 1760 1236;" xml:space="preserve">
<style type="text/css">
	.st0{display:none;}
	.st1{display:inline;fill:#FFFFFF;}
	.st2{fill:#FFFFFF;}
</style>
<g id="Background" class="st0">
	<rect x="-220" y="-482" class="st1" width="2200" height="2200"/>
</g>
<g id="Objects">
	<g>
		<path class="st2" d="M284.8,691.1h-212c-6.2-10.7-17.8-18-31-18c-19.8,0-35.8,16-35.8,35.8c0,19.8,16,35.8,35.8,35.8
			c13.3,0,24.9-7.2,31-18h237.7L284.8,691.1z"/>
		<path class="st2" d="M1449.5,726.6h237.7c6.2,10.7,17.8,18,31,18c19.8,0,35.8-16,35.8-35.8c0-19.8-16-35.8-35.8-35.8
			c-13.3,0-24.9,7.2-31,18h-212L1449.5,726.6z"/>
		<g>
			<path class="st2" d="M1074.8,726.6h374.6c-0.6,0.8-1.2,1.6-1.8,2.4c-152.9,197.5-391,311.7-567.6,498.7
				c-177.3-187.7-416.6-302.1-569.5-501h344.8c6.3,0,12.2-3.4,15.4-8.8l17.8-30.6l80.3,203c2.7,6.8,9.3,11.2,16.5,11.2
				c0.5,0,1,0,1.5-0.1c7.8-0.7,14.3-6.4,15.9-14l85.2-401.1l62.8,288.6c1.7,7.6,8,13.2,15.7,13.9c7.7,0.8,15-3.6,18-10.7l49.6-115.1
				l24.4,52.4C1061,722.2,1067.5,726.6,1074.8,726.6z"/>
		</g>
		<g>
			<path class="st2" d="M1554.1,536.5c-20.6,57.3-47.4,108.2-78.9,154.6h-388.3l-35.8-81c-2.7-6.7-9.1-11.1-16.3-11.2h-0.2
				c-7.1,0-13.5,4.2-16.3,10.7l-44.6,103.5l-68.6-315.3c-1.8-8.2-9-14-17.4-14h0c-8.4,0-15.6,5.9-17.3,14.1l-90.1,424.4l-72-182.3
				c-2.5-6.3-8.4-10.7-15.2-11.2c-6.8-0.5-13.3,2.9-16.7,8.8l-31.1,53.4H284.8c-31.5-46.4-58.4-97.3-79-154.6
				c-39.5-110.1-32.1-237.4,24.3-340.4C306.4,56.8,486.7-20.6,644.4,18.4c101.7,25.1,187.8,97,235.6,187.2
				c47.8-90.2,133.8-162.1,235.6-187.2c157.8-39,338,38.4,414.2,177.7C1586.2,299.1,1593.7,426.4,1554.1,536.5z"/>
		</g>
	</g>
</g>
</svg>
