<?xml version="1.0" encoding="utf-8"?>
<!-- Generator: Adobe Illustrator 28.0.0, SVG Export Plug-In . SVG Version: 6.00 Build 0)  -->
<svg version="1.1" xmlns="http://www.w3.org/2000/svg" xmlns:xlink="http://www.w3.org/1999/xlink" x="0px" y="0px"
	 viewBox="0 0 118.9 135.1" style="enable-background:new 0 0 118.9 135.1;" xml:space="preserve">
<style type="text/css">
	.st0{display:none;}
	.st1{display:inline;fill:#FFFFFF;}
	.st2{fill:#CC121C;}
	.st3{fill:#FFFFFF;}
</style>
<g id="BACKGROUND" class="st0">
	<rect x="-190.5" y="-182.5" class="st1" width="500" height="500"/>
</g>
<g id="OBJECTS">
	<g>
		<g>
			<circle class="st2" cx="59.5" cy="67.5" r="38.3"/>
			<path class="st2" d="M63.5,13.3L63.5,13.3c2-1.3,3.2-3.5,3.2-6.1c0-4-3.3-7.3-7.3-7.3s-7.3,3.3-7.3,7.3c0,2.5,1.3,4.7,3.2,6.1h0
				c4.4,3.3,3.9,10.9-1.8,16.6h5.8h5.8C59.6,24.2,59.1,16.6,63.5,13.3z"/>
			<path class="st2" d="M14.5,36.9L14.5,36.9c-0.2-2.3-1.4-4.6-3.6-5.8c-3.5-2-7.9-0.8-9.9,2.7c-2,3.5-0.8,7.9,2.7,9.9
				c2.2,1.3,4.8,1.3,6.9,0.2l0,0c5-2.1,11.4,2.1,13.5,9.8l2.9-5l2.9-5C22,45.8,15.2,42.4,14.5,36.9z"/>
			<path class="st2" d="M10.5,91.1L10.5,91.1c-2.1-1-4.7-1-6.9,0.2c-3.5,2-4.7,6.5-2.7,9.9c2,3.5,6.5,4.7,9.9,2.7
				c2.2-1.3,3.5-3.5,3.6-5.8l0,0c0.7-5.4,7.5-8.8,15.3-6.8l-2.9-5l-2.9-5C21.9,89.1,15.5,93.3,10.5,91.1z"/>
			<path class="st2" d="M55.4,121.7L55.4,121.7c-2,1.3-3.2,3.5-3.2,6.1c0,4,3.3,7.3,7.3,7.3s7.3-3.3,7.3-7.3c0-2.5-1.3-4.7-3.2-6.1
				h0c-4.4-3.3-3.9-10.9,1.8-16.6h-5.8h-5.8C59.3,110.8,59.8,118.5,55.4,121.7z"/>
			<path class="st2" d="M104.4,98.1L104.4,98.1c0.2,2.3,1.4,4.6,3.6,5.8c3.5,2,7.9,0.8,9.9-2.7c2-3.5,0.8-7.9-2.7-9.9
				c-2.2-1.3-4.8-1.3-6.9-0.2l0,0c-5,2.1-11.4-2.1-13.5-9.8l-2.9,5l-2.9,5C96.9,89.3,103.7,92.7,104.4,98.1z"/>
			<path class="st2" d="M108.4,43.9L108.4,43.9c2.1,1,4.7,1,6.9-0.2c3.5-2,4.7-6.5,2.7-9.9c-2-3.5-6.5-4.7-9.9-2.7
				c-2.2,1.3-3.5,3.5-3.6,5.8l0,0c-0.7,5.4-7.5,8.8-15.3,6.8l2.9,5l2.9,5C97,46,103.4,41.8,108.4,43.9z"/>
			<g>
				<path class="st2" d="M81.1,34.2L81.1,34.2c1.7-0.1,3.3-1.1,4.2-2.7c1.4-2.6,0.5-5.8-2.1-7.2c-2.6-1.4-5.8-0.5-7.2,2.1
					c-0.9,1.6-0.8,3.5,0,5l0,0c1.6,3.6-1.3,8.4-7,10l3.7,2l3.7,2C74.8,39.8,77.2,34.7,81.1,34.2z"/>
				<path class="st2" d="M41.4,32.1L41.4,32.1c0.7-1.6,0.7-3.4-0.3-5c-1.5-2.5-4.8-3.3-7.3-1.8c-2.5,1.5-3.3,4.8-1.8,7.3
					c1,1.6,2.6,2.5,4.3,2.6l0,0c4,0.4,6.6,5.3,5.2,11.1l3.6-2.2l3.6-2.2C43.1,40.4,39.9,35.8,41.4,32.1z"/>
				<path class="st2" d="M19.7,65.4L19.7,65.4c-1-1.4-2.6-2.3-4.5-2.3c-2.9,0.1-5.3,2.5-5.2,5.4c0.1,2.9,2.5,5.3,5.4,5.2
					c1.8,0,3.5-1,4.4-2.5v0c2.3-3.2,7.9-3,12.2,1l-0.1-4.2l-0.1-4.2C27.8,68.1,22.2,68.6,19.7,65.4z"/>
				<path class="st2" d="M37.8,100.9L37.8,100.9c-1.7,0.1-3.3,1.1-4.2,2.7c-1.4,2.6-0.5,5.8,2.1,7.2c2.6,1.4,5.8,0.5,7.2-2.1
					c0.9-1.6,0.8-3.5,0-5l0,0c-1.6-3.6,1.3-8.4,7-10l-3.7-2l-3.7-2C44.1,95.3,41.7,100.3,37.8,100.9z"/>
				<path class="st2" d="M77.5,103L77.5,103c-0.7,1.6-0.7,3.4,0.3,5c1.5,2.5,4.8,3.3,7.3,1.8c2.5-1.5,3.3-4.8,1.8-7.3
					c-1-1.6-2.6-2.5-4.3-2.6l0,0c-4-0.4-6.6-5.3-5.2-11.1l-3.6,2.2l-3.6,2.2C75.8,94.7,79,99.3,77.5,103z"/>
				<path class="st2" d="M99.2,69.6L99.2,69.6c1,1.4,2.6,2.3,4.5,2.3c2.9-0.1,5.3-2.5,5.2-5.4c-0.1-2.9-2.5-5.3-5.4-5.2
					c-1.8,0-3.5,1-4.4,2.5l0,0c-2.3,3.2-7.9,3-12.2-1l0.1,4.2l0.1,4.2C91.1,66.9,96.7,66.5,99.2,69.6z"/>
			</g>
			<path class="st3" d="M65.7,44.7c0,3.5-2.8,6.3-6.3,6.3c-3.5,0-6.3-2.8-6.3-6.3c0-3.5,2.8-6.3,6.3-6.3
				C62.9,38.5,65.7,41.3,65.7,44.7z"/>
			<path class="st3" d="M52.3,54.9c1.5,1.5,1.5,4,0,5.5c-1.5,1.5-4,1.5-5.5,0c-1.5-1.5-1.5-4,0-5.5C48.3,53.4,50.8,53.4,52.3,54.9z"
				/>
			<path class="st3" d="M36.7,61.3c3.5,0,6.3,2.8,6.3,6.3s-2.8,6.3-6.3,6.3c-3.5,0-6.3-2.8-6.3-6.3S33.2,61.3,36.7,61.3z"/>
			<path class="st3" d="M46.8,74.7c1.5-1.5,4-1.5,5.5,0c1.5,1.5,1.5,4,0,5.5c-1.5,1.5-4,1.5-5.5,0C45.3,78.7,45.3,76.2,46.8,74.7z"
				/>
			<path class="st3" d="M53.2,90.3c0-3.5,2.8-6.3,6.3-6.3c3.5,0,6.3,2.8,6.3,6.3c0,3.5-2.8,6.3-6.3,6.3C56,96.6,53.2,93.8,53.2,90.3
				z"/>
			<circle class="st3" cx="69.4" cy="77.5" r="3.9"/>
			<path class="st3" d="M82.3,73.8c-3.5,0-6.3-2.8-6.3-6.3s2.8-6.3,6.3-6.3c3.5,0,6.3,2.8,6.3,6.3S85.7,73.8,82.3,73.8z"/>
			<path class="st3" d="M72.1,60.3c-1.5,1.5-4,1.5-5.5,0c-1.5-1.5-1.5-4,0-5.5c1.5-1.5,4-1.5,5.5,0C73.6,56.4,73.6,58.8,72.1,60.3z"
				/>
		</g>
	</g>
	<rect x="343.6" y="-192.8" style="fill:none;" width="0.7" height="3.3"/>
</g>
</svg>
