<?xml version="1.0" encoding="utf-8"?>
<!-- Generator: Adobe Illustrator 28.0.0, SVG Export Plug-In . SVG Version: 6.00 Build 0)  -->
<svg version="1.1" id="Layer_1" xmlns="http://www.w3.org/2000/svg" xmlns:xlink="http://www.w3.org/1999/xlink" x="0px" y="0px"
	 viewBox="0 0 71.4 46.6" style="enable-background:new 0 0 71.4 46.6;" xml:space="preserve">
<style type="text/css">
	.st0{fill:#FFFFFF;}
	.st1{fill:#14B0BF;}
</style>
<g>
	<g>
		<g>
			<g>
				<g>
					<path d="M35.7,43.9c-19.3,0-34.5-20.4-35.2-21.2L0,22l0.5-0.7C1.2,20.4,16.4,0,35.7,0s34.5,20.4,35.2,21.2l0.5,0.7l-0.5,0.7
						C70.3,23.6,55,43.9,35.7,43.9z M3,22c2.9,3.6,16.6,19.6,32.7,19.6S65.5,25.6,68.4,22C65.5,18.4,51.8,2.4,35.7,2.4
						S5.9,18.4,3,22z"/>
				</g>
			</g>
			<g>
				<path class="st0" d="M69.9,22c0,0-15.3,16.4-34.2,16.4S1.5,22,1.5,22S16.8,5.5,35.7,5.5S69.9,22,69.9,22z"/>
			</g>
			<g>
				<g>
					<path d="M35.7,13.5c4.7,0,8.4,3.8,8.4,8.4c0,4.7-3.8,8.4-8.4,8.4c-4.7,0-8.4-3.8-8.4-8.4C27.3,17.3,31.1,13.5,35.7,13.5
						L35.7,13.5z M35.7,9.9c-6.7,0-12.1,5.4-12.1,12.1c0,6.7,5.4,12.1,12.1,12.1c6.7,0,12.1-5.4,12.1-12.1
						C47.8,15.3,42.4,9.9,35.7,9.9L35.7,9.9z"/>
				</g>
			</g>
			<g>
				<path class="st1" d="M40.2,22c0,2.5-2,4.5-4.5,4.5c-2.5,0-4.5-2-4.5-4.5c0-2.5,2-4.4,4.5-4.4C38.2,17.5,40.2,19.5,40.2,22z"/>
			</g>
		</g>
		<g>
			<path d="M44.1,25l24.7,16.8c0.5,0.4,0.7,1.1,0.3,1.7L67.3,46c-0.4,0.5-1.1,0.7-1.7,0.3L40.9,29.5L44.1,25z"/>
		</g>
	</g>
</g>
</svg>
