<?xml version="1.0" encoding="utf-8"?>
<!-- Generator: Adobe Illustrator 28.0.0, SVG Export Plug-In . SVG Version: 6.00 Build 0)  -->
<svg version="1.1" id="Layer_1" xmlns="http://www.w3.org/2000/svg" xmlns:xlink="http://www.w3.org/1999/xlink" x="0px" y="0px"
	 viewBox="0 0 45.4 61.5" style="enable-background:new 0 0 45.4 61.5;" xml:space="preserve">
<style type="text/css">
	.st0{fill:#DBB8A5;}
	.st1{fill:#1C75BC;}
	.st2{fill:#3C2415;}
	.st3{fill:#594A42;}
	.st4{fill:#EDD0B9;}
	.st5{fill:#BFA190;}
	.st6{fill:#14B0BF;}
	.st7{fill:#2C5871;}
	.st8{fill:#A68226;}
	.st9{fill:#FDC63A;}
	.st10{fill:#FFFFFF;}
</style>
<g>
	<g>
		<g>
			<polygon class="st0" points="30.9,22 35.1,28.7 39.2,22 39.2,15.5 30.9,15.5 			"/>
		</g>
		<g>
			<polygon class="st0" points="16.2,37.4 13.1,38.9 11.4,44.4 13.9,43.7 16.5,41.5 16.7,42.9 18.5,40.6 			"/>
		</g>
		<g>
			<polygon class="st0" points="33.4,23.7 24.9,38.4 10.7,42.5 8.4,39.3 20.9,35.2 25.7,23.3 			"/>
		</g>
		<g>
			<polygon class="st1" points="39.7,21.4 34.6,24.2 30.5,21.7 25.6,23.4 27.2,32.8 28.4,36.1 28,51.8 45.3,52.8 45.1,35.5 
				44.7,24.8 			"/>
		</g>
		<g>
			<polygon class="st2" points="27.7,52.8 45.4,53 45.3,50.5 28,50.1 			"/>
		</g>
		<g>
			<polygon class="st3" points="28.7,7.1 26.2,4.4 26.6,1.9 33,0.2 40,1.8 43.8,5.2 42.3,18 40.7,22.1 37.2,21.5 			"/>
		</g>
		<g>
			<polygon class="st4" points="39.5,16.5 34.4,18.5 30.1,18.8 27.7,16.4 27.2,11.1 28.7,7.1 35.1,8.1 38.4,10.9 			"/>
		</g>
		<g>
			<g>
				<g>
					<polygon class="st0" points="17.6,33.1 14.4,38.2 11.1,33.1 11.1,28 17.6,28 					"/>
				</g>
				<g>
					<polygon class="st5" points="23.2,50.6 25.6,51.8 26.9,56 25,55.4 23,53.7 22.8,54.9 21.5,53.1 					"/>
				</g>
				<g>
					<polygon class="st5" points="1.1,55 0,57.3 1.6,61.5 2.7,59.8 3.2,57.3 3.8,57.1 3.3,55.7 					"/>
				</g>
				<g>
					<polygon class="st5" points="4.3,35.2 1.9,46.3 1.1,55 3.3,55.7 4.7,49.2 6.5,42.4 					"/>
				</g>
				<g>
					<polygon class="st5" points="15.7,34.4 20.1,48.2 21.5,53.1 23.2,50.6 22.4,44.2 19.7,33.7 					"/>
				</g>
				<g>
					<polygon class="st6" points="19.8,33.8 21.9,39.3 19,43 17.9,33.9 					"/>
				</g>
				<g>
					<polygon class="st7" points="10.8,32.6 14.7,34.8 17.9,32.8 19.8,33.8 20.5,41.4 19.5,44 19.8,56.1 6.5,56.9 6.6,43.5 
						4.1,35.2 					"/>
				</g>
				<g>
					<polygon class="st2" points="20.1,56.8 6.4,57 6.5,55.1 19.9,54.8 					"/>
				</g>
				<g>
					<polygon class="st6" points="4.1,35.2 1.8,43 5.7,46.8 6.6,43.5 					"/>
				</g>
				<g>
					<polygon class="st3" points="19.3,21.5 21.3,19.8 17.6,17.2 12.8,16.9 9.1,21.6 9.9,28.3 9.8,29.3 11.4,29 					"/>
				</g>
				<g>
					<polygon class="st4" points="10.9,28.8 14.9,30.4 18.8,30.6 20,26.5 20.5,24.7 19.3,21.5 15,23.1 13.2,27.3 					"/>
				</g>
			</g>
		</g>
		<g>
			<g>
				<path class="st8" d="M19.4,45.9c0,1.9-1.5,3.4-3.4,3.4c-1.9,0-3.4-1.5-3.4-3.4c0-1.9,1.5-3.4,3.4-3.4
					C17.9,42.5,19.4,44,19.4,45.9z"/>
			</g>
			<g>
				<path class="st9" d="M19.4,45.5c0,1.9-1.5,3.4-3.4,3.4c-1.9,0-3.4-1.5-3.4-3.4c0-1.9,1.5-3.4,3.4-3.4
					C17.9,42.1,19.4,43.6,19.4,45.5z"/>
			</g>
			<g>
				<path class="st10" d="M18.2,45.5c0,1.2-1,2.2-2.2,2.2c-1.2,0-2.2-1-2.2-2.2c0-1.2,1-2.2,2.2-2.2C17.3,43.3,18.2,44.3,18.2,45.5z
					"/>
			</g>
		</g>
		<g>
			<polygon class="st10" points="35.4,27.8 32.4,27.8 32.4,24.8 30.7,24.8 30.7,27.8 27.7,27.8 27.7,29.6 30.7,29.6 30.7,32.6 
				32.4,32.6 32.4,29.6 35.4,29.6 			"/>
		</g>
		<g>
			<polygon class="st7" points="25.6,23.4 21.2,34.4 23.5,39 28.1,35.2 27.9,33.7 			"/>
		</g>
		<g>
			<g>
				<path d="M38.4,11.8c0-0.3-0.3-0.6-0.6-0.6h0c-0.3,0-0.6,0.3-0.6,0.6c0,2-0.3,7.4-2.5,8.7c-2.5,1.5-3.9,0.7-4,0.7
					c-1-0.6-1-1.9-0.9-2.5c0-0.1-0.5-0.5-1-0.9c-0.1,0.1-0.1,0.2-0.2,0.3c0,0.1-0.6,3,1.4,4.2c0,0,0.7,0.4,1.8,0.4
					c0.9,0,2-0.2,3.4-1.1C38.5,19.7,38.4,12.6,38.4,11.8z"/>
			</g>
		</g>
		<g>
			<path d="M16.1,46.1c-0.2,0-0.4-0.1-0.5-0.3c-0.1-0.3,0-0.7,0.3-0.8c0,0,3.9-2,8-5.4c4.3-3.6,6.5-17.4,6.5-17.5
				c0.1-0.3,0.4-0.6,0.7-0.5c0.3,0.1,0.5,0.4,0.5,0.7c-0.1,0.6-2.3,14.3-7,18.2c-4.2,3.5-8.1,5.5-8.2,5.6
				C16.3,46,16.2,46.1,16.1,46.1z"/>
		</g>
		<g>
			<polygon class="st0" points="20.7,46.8 17.8,48.2 13.5,46.4 14.3,44.8 17.6,44 16.5,43 19.4,42.7 			"/>
		</g>
		<g>
			<polygon class="st0" points="44.5,24.8 44.5,32.9 35,42.9 20.7,46.8 19.4,42.7 31.7,39 			"/>
		</g>
		<g>
			<polygon class="st7" points="44.5,24.8 34,35.2 36.5,42.1 45,33.1 			"/>
		</g>
	</g>
</g>
</svg>
