<?xml version="1.0" encoding="utf-8"?>
<!-- Generator: Adobe Illustrator 28.0.0, SVG Export Plug-In . SVG Version: 6.00 Build 0)  -->
<svg version="1.1" id="Layer_1" xmlns="http://www.w3.org/2000/svg" xmlns:xlink="http://www.w3.org/1999/xlink" x="0px" y="0px"
	 viewBox="0 0 49.9 62.1" style="enable-background:new 0 0 49.9 62.1;" xml:space="preserve">
<style type="text/css">
	.st0{fill:#0F303F;}
	.st1{fill:#9FB603;}
	.st2{fill:#FFFFFF;}
	.st3{fill:#C12106;}
</style>
<g>
	<g>
		<path class="st0" d="M26.2,1.5c8.6,0,19.1,5,21.5,14.1c1.5,5.8-0.9,16.4-3.2,20.4c-2.6,4.6-3,10.9-2.1,14.7
			c0.5,2.2,2.4,6.9,3.6,9.7H25.5h-1.2c0.3-1.1,0.5-2.6,0.4-4.2c-0.1-2.1-1.9-3.2-5.3-3.2c-1.1,0-2.2,0.1-3.2,0.2
			c-0.8,0.1-1.6,0.1-2.2,0.1c-0.5,0-0.6,0-0.6,0l0,0c-4.4-1.4-5.2-2.6-5.3-2.9c0-0.1-0.1-0.2,0-0.3c1.1-2.5,1.3-4.6,0.5-5.8
			c-0.4-0.6-1.1-1-1.8-1c-0.3-0.1-1-0.6-1.3-1c0-0.1,0.1-0.1,0.1-0.2C6,41.5,6.5,40.4,6,39.4c-0.2-0.4-0.6-0.9-1.5-1.1
			c-0.1-0.3-0.2-1.5,0.7-5c0-0.1,0-0.2,0.1-0.2c0.2-0.5,0.1-1-0.1-1.5c-0.2-0.3-0.5-0.7-1.2-0.7c-0.3,0-0.8-0.3-1.5-0.8
			c-0.3-0.2-0.4-0.4-0.4-0.5c0-0.3,0.2-1.4,3.1-3.9c3.3-2.9,5.4-4.9,3.4-8c-0.6-0.9-0.6-0.9-0.3-2.6c0.1-0.5,0.2-1.1,0.3-1.9
			c0-0.2,0-0.4,0.1-0.7c0.1-1.9,0.4-6.2,9.7-9.5c2.5-0.9,4.9-1.3,7.4-1.4C25.8,1.5,26,1.5,26.2,1.5L26.2,1.5z M26.2,0
			c-0.2,0-0.4,0-0.7,0c-2.4,0.1-5.1,0.5-7.9,1.5C6.2,5.6,7.1,11.4,6.9,13c-0.5,3.3-1,3.7,0.2,5.5c1.2,1.9,0.3,2.9-3.1,6
			c-3.4,3.1-4.7,5.3-2.5,6.8c2.5,1.8,2.4,0.5,2.2,1.6c-1,3.7-1.2,6.5,0.3,6.9c1.6,0.3,0,2.1,0,2.8C4,43.4,5.8,45,6.8,45
			c0.9,0,1.2,1.9,0,4.7c-1.2,2.8,4.4,4.7,6.2,5.3c0.3,0.1,0.6,0.1,1.1,0.1c1.4,0,3.5-0.3,5.4-0.3c2,0,3.7,0.3,3.7,1.7
			c0.2,3.1-1,5.6-1,5.6h3.3h22.7c0,0-3.8-8.6-4.5-11.6c-0.7-3.4-0.5-9.3,2-13.7c2.5-4.4,5-15.3,3.4-21.6C46.7,5.9,36.1,0,26.2,0
			L26.2,0z"/>
	</g>
	<g>
		<path class="st1" d="M26.3,59l0-1.6c0-0.4,0-0.8,0-1.1c-0.1-2.1-1.4-4.6-6.8-4.6c-1.1,0-2.3,0.1-3.3,0.2c-0.8,0.1-1.5,0.1-2.1,0.1
			l-0.3,0l-0.2-0.1c-1-0.3-1.8-0.7-2.5-1l-1.2-0.6l0.4-1.3c0.7-2.2,0.5-4.1-0.3-5.5c-0.4-0.6-0.8-1-1.4-1.3l-0.9-0.5l0.1-1
			c0.1-0.8,0-1.5-0.4-2.2c-0.2-0.4-0.5-0.7-0.8-1L6,37.1l0.1-0.8c0.1-0.7,0.3-1.6,0.6-2.7c0.1-0.3,0.1-0.5,0.2-0.6
			c0.3-1.2,0.4-2.3-0.4-3c-0.5-0.4-2.1-1.3-2.1-1.3L6,26.7c3.8-3.5,6.2-6,3.7-9.9l-0.3-0.5l0.2-1c0.1-0.6,0.2-1.2,0.3-1.9
			c0-0.2,0.1-0.5,0.1-1c0.1-2.2,0.4-5.1,8.7-8.1c2.3-0.8,4.4-1.3,7.4-1.3c8.7,0,18.1,5.2,20.1,13c1.4,5.3-0.9,15.4-3.1,19.3
			c-2.9,5-3.2,11.6-2.3,15.8c0.3,1.2,0.9,3.1,1.9,5.8l0.8,2.1H26.3z"/>
	</g>
	<g>
		<path class="st2" d="M43.2,17.7c-0.2-1.1-0.6-2.3-1.2-3.8c-4.3-10-17.8-8.4-17.8-8.4s-10,1.4-12,7.3c-0.4,1.2-0.5,2.7-0.1,4.3
			c1.6,5.1,5.9,3.7,6.7,3.7c0.8-0.1,0.3,5.1,4.3,4.9c3.9-0.2,6.2,5.2,5.9,7.7c0.4,0.2,2.9,0.5,2.9,0.5l-0.2-4c0,0,8.4,1.7,7.8-5
			C39.4,24.9,44.4,24.2,43.2,17.7z"/>
	</g>
	<g>
		<g>
			<path class="st3" d="M29.2,20.9c0-0.8,0.1-1.5,0.4-1.8c0.2-0.4,0.7-0.9,1.5-1.4c0.4-0.3,0.8-0.7,1-1.1c0.3-0.4,0.4-0.9,0.4-1.4
				c0-0.6-0.1-1-0.4-1.3c-0.3-0.3-0.7-0.5-1.2-0.5c-0.4,0-0.8,0.1-1.1,0.4c-0.3,0.3-0.5,0.7-0.5,1.2h-2.6l0-0.1c0-1.2,0.4-2,1.1-2.6
				c0.8-0.6,1.8-0.9,3-0.9c1.3,0,2.4,0.3,3.2,1c0.8,0.7,1.1,1.6,1.1,2.8c0,0.8-0.2,1.5-0.7,2.1c-0.4,0.6-1,1.2-1.7,1.6
				c-0.4,0.3-0.6,0.6-0.7,0.9c-0.1,0.3-0.2,0.7-0.2,1.2H29.2z M31.8,24.6h-2.6v-2.3h2.6V24.6z"/>
		</g>
	</g>
</g>
</svg>
