<?xml version="1.0" encoding="UTF-8"?>
<svg id="Capa_1" data-name="Capa 1" xmlns="http://www.w3.org/2000/svg" viewBox="0 0 800 422.8">
  <defs>
    <style>
      .cls-1 {
        fill: #32e800;
        stroke-width: 0px;
      }
    </style>
  </defs>
  <g id="delivery-svgrepo-com">
    <path id="Tracé_285" data-name="Tracé 285" class="cls-1" d="m486.01,15.27C484.51,6.45,476.86,0,467.91,0H55.35C43.47,0,33.83,9.63,33.83,21.52s9.63,21.52,21.52,21.52h100.41c11.88.35,21.23,10.27,20.88,22.15-.34,11.39-9.49,20.54-20.88,20.88H21.52c-11.88,0-21.52,9.63-21.52,21.52s9.63,21.52,21.52,21.52h182.98c10.51,0,19.03,8.52,19.03,19.03s-8.52,19.03-19.03,19.03h-97.22c-11.88.35-21.23,10.27-20.88,22.15.34,11.39,9.49,20.54,20.88,20.88h71.63c10.5,0,19.02,8.51,19.02,19.02s-8.51,19.02-19.02,19.02h-98.9c-11.88-.35-21.8,9-22.15,20.88-.35,11.88,9,21.8,20.88,22.15.42.01.85.01,1.27,0h135.96l8.58,48.5h49.25c-12.67,30.67,1.92,65.81,32.6,78.48,30.67,12.67,65.81-1.92,78.48-32.6,6.07-14.69,6.07-31.19,0-45.88h156.31L486.01,15.27Zm-130.81,347.29c.06,14.28-11.47,25.91-25.75,25.97-14.28.06-25.91-11.47-25.97-25.75-.04-9.66,5.31-18.54,13.87-23.02h23.96c8.51,4.42,13.86,13.2,13.89,22.79v.02Z"/>
    <path id="Tracé_286" data-name="Tracé 286" class="cls-1" d="m799.31,302.05l-24.69-121.78-90.14-138.67h-164.12l50.89,298.13h60.03c-12.66,30.68,1.95,65.81,32.63,78.47,30.68,12.66,65.81-1.95,78.47-32.63,6.06-14.68,6.06-31.16,0-45.84h26.16c17.36,0,31.44-14.07,31.45-31.43,0-2.1-.21-4.2-.63-6.27l-.06.02Zm-186.08-204.98h41.11l53.38,82.11h-80.48l-14-82.11Zm99.39,265.47c.06,14.28-11.47,25.91-25.75,25.97-14.28.06-25.91-11.47-25.97-25.75-.04-9.66,5.31-18.54,13.87-23.02h23.96c8.54,4.42,13.91,13.21,13.93,22.83l-.04-.02Z"/>
  </g>
</svg>