<?xml version="1.0" encoding="UTF-8"?>
<svg id="Calque_1" data-name="Calque 1" xmlns="http://www.w3.org/2000/svg" viewBox="0 0 181.64 53.82">
  <defs>
    <style>
      .cls-1 {
        fill: #134888;
      }

      .cls-1, .cls-2, .cls-3, .cls-4 {
        stroke-width: 0px;
      }

      .cls-2 {
        fill: #32e800;
      }

      .cls-3 {
        fill: none;
      }

      .cls-4 {
        fill: #fff;
      }
    </style>
  </defs>
  <g id="call_to_action" data-name="call to action">
    <g id="Logo_app_store" data-name="Logo app store">
      <path id="Tracé_329" data-name="Tracé 329" class="cls-4" d="m180.44,47.47c0,2.85-2.31,5.16-5.15,5.16,0,0,0,0,0,0H6.37c-2.85,0-5.16-2.3-5.17-5.15V6.36c0-2.85,2.32-5.16,5.17-5.16h168.91c2.85,0,5.16,2.31,5.16,5.16v41.11Z"/>
      <path id="Tracé_330" data-name="Tracé 330" class="cls-3" d="m175.28,53.82H6.37c-3.51,0-6.36-2.84-6.37-6.35V6.36C0,2.85,2.85,0,6.37,0h168.91c3.51,0,6.36,2.85,6.37,6.36v41.11c0,3.51-2.85,6.35-6.37,6.35h0Z"/>
      <path id="Tracé_331" data-name="Tracé 331" class="cls-1" d="m180.44,47.47c0,2.85-2.31,5.16-5.15,5.16,0,0,0,0,0,0H6.37c-2.85,0-5.16-2.3-5.17-5.15V6.36c0-2.85,2.32-5.16,5.17-5.16h168.91c2.85,0,5.16,2.31,5.16,5.16v41.11Z"/>
      <path id="Tracé_332" data-name="Tracé 332" class="cls-2" d="m40.56,26.63c.03-2.68,1.44-5.15,3.72-6.55-1.45-2.06-3.78-3.32-6.3-3.4-2.65-.28-5.22,1.58-6.57,1.58s-3.45-1.56-5.69-1.51c-2.94.09-5.62,1.73-7.05,4.3-3.05,5.28-.78,13.04,2.15,17.31,1.46,2.09,3.17,4.42,5.41,4.34,2.19-.09,3-1.39,5.64-1.39s3.38,1.39,5.66,1.34c2.35-.04,3.83-2.1,5.24-4.21,1.05-1.49,1.86-3.13,2.39-4.88-2.79-1.18-4.6-3.91-4.6-6.94Zm-4.31-12.76c1.28-1.53,1.91-3.51,1.76-5.5-1.96.21-3.76,1.14-5.06,2.62-1.28,1.46-1.93,3.36-1.8,5.3,1.98.02,3.86-.87,5.1-2.41h0Z"/>
      <g id="Groupe_191" data-name="Groupe 191">
        <path id="Tracé_334" data-name="Tracé 334" class="cls-2" d="m72.25,42.4h-3.06l-1.68-5.26h-5.82l-1.6,5.26h-2.98l5.77-17.91h3.56l5.8,17.91Zm-5.24-7.47l-1.51-4.68c-.16-.48-.46-1.6-.9-3.37h-.05c-.18.76-.46,1.89-.85,3.37l-1.49,4.68h4.81Zm20.04.85c.1,1.9-.54,3.77-1.79,5.21-1.02,1.11-2.47,1.73-3.98,1.7-1.47.12-2.89-.58-3.69-1.83v6.78h-2.87v-13.91c0-1.38-.04-2.79-.11-4.25h2.52l.16,2.05h.05c1.54-2.36,4.71-3.02,7.07-1.48.41.27.79.6,1.1.98,1.07,1.35,1.61,3.04,1.53,4.76Zm-2.92.1c.04-1.1-.25-2.19-.85-3.11-.56-.82-1.5-1.3-2.5-1.28-.7,0-1.39.25-1.93.7-.58.47-.97,1.12-1.13,1.85-.08.28-.12.58-.13.87v2.15c-.02.87.29,1.72.86,2.38.57.64,1.39,1,2.25.97,1,.04,1.95-.43,2.52-1.25.64-.97.96-2.12.91-3.29h0Zm17.78-.1c.1,1.9-.54,3.77-1.79,5.21-1.02,1.11-2.47,1.73-3.98,1.7-1.47.12-2.89-.58-3.69-1.83v6.78h-2.87v-13.91c0-1.38-.04-2.79-.11-4.25h2.52l.16,2.05h.05c1.54-2.36,4.71-3.03,7.07-1.48.41.27.78.6,1.1.97,1.06,1.35,1.61,3.04,1.53,4.76h0Zm-2.93.1c.04-1.1-.25-2.19-.85-3.11-.56-.82-1.5-1.3-2.5-1.28-.71,0-1.39.25-1.93.7-.58.47-.97,1.12-1.13,1.85-.08.28-.12.58-.13.87v2.15c-.02.87.29,1.72.86,2.38.57.64,1.39,1,2.25.97,1,.04,1.95-.43,2.52-1.25.64-.97.96-2.12.91-3.29h0Zm19.54,1.49c.05,1.41-.54,2.78-1.59,3.72-1.37,1.12-3.11,1.68-4.88,1.57-1.62.08-3.23-.31-4.64-1.12l.66-2.39c1.25.74,2.69,1.13,4.15,1.12.9.05,1.79-.2,2.52-.73.59-.47.93-1.19.91-1.95.01-.69-.26-1.35-.75-1.83-.72-.63-1.56-1.1-2.47-1.38-3.14-1.17-4.71-2.88-4.71-5.13-.03-1.4.58-2.73,1.66-3.61,1.25-.99,2.81-1.49,4.4-1.41,1.4-.05,2.8.24,4.07.85l-.72,2.34c-1.06-.56-2.24-.84-3.44-.82-.86-.05-1.7.21-2.38.74-.46.41-.73,1-.72,1.62-.01.68.29,1.33.82,1.75.79.6,1.67,1.06,2.6,1.38,1.29.45,2.45,1.2,3.4,2.18.74.86,1.13,1.97,1.1,3.11h0Zm9.51-5.74h-3.16v6.28c0,1.59.56,2.39,1.68,2.39.43.01.86-.03,1.27-.13l.08,2.18c-.72.24-1.48.34-2.23.32-.99.06-1.96-.32-2.66-1.04-.73-1-1.07-2.24-.96-3.48v-6.51h-1.88v-2.15h1.88v-2.36l2.82-.85v3.21h3.16v2.15Zm14.25,4.2c.07,1.79-.54,3.53-1.7,4.89-1.21,1.32-2.94,2.04-4.73,1.97-1.72.08-3.38-.61-4.53-1.88-1.15-1.31-1.75-3.01-1.69-4.76-.07-1.8.55-3.56,1.74-4.92,1.21-1.3,2.92-2,4.69-1.91,1.73-.07,3.4.62,4.57,1.89,1.13,1.31,1.72,3,1.65,4.73h0Zm-2.97.07c.03-1.07-.24-2.12-.77-3.05-.5-.96-1.5-1.56-2.58-1.54-1.1-.03-2.12.57-2.63,1.54-.54.94-.8,2.02-.77,3.1-.03,1.07.24,2.12.77,3.05.78,1.43,2.56,1.96,3.99,1.18.51-.28.92-.7,1.19-1.21.54-.93.82-2,.79-3.07Zm12.31-3.89c-.3-.05-.6-.08-.9-.08-.92-.04-1.81.39-2.34,1.14-.5.75-.75,1.65-.72,2.55v6.78h-2.87v-8.85c0-1.36-.03-2.71-.08-4.07h2.5l.1,2.47h.08c.27-.81.77-1.52,1.43-2.05.6-.45,1.33-.69,2.08-.69.24,0,.48.02.72.05v2.74Zm12.84,3.32c0,.44-.03.87-.11,1.3h-8.61c-.04,1.11.42,2.18,1.25,2.93.8.63,1.8.94,2.82.9,1.19.02,2.37-.19,3.48-.61l.45,1.99c-1.37.56-2.85.83-4.33.8-1.75.1-3.46-.54-4.72-1.77-1.18-1.29-1.8-3-1.71-4.74-.06-1.76.51-3.48,1.6-4.86,1.09-1.37,2.77-2.14,4.52-2.07,1.67-.09,3.27.69,4.22,2.07.79,1.2,1.19,2.62,1.14,4.06Zm-2.74-.74c.04-.77-.16-1.54-.56-2.21-.48-.79-1.36-1.25-2.29-1.2-.91-.02-1.77.42-2.29,1.17-.49.65-.78,1.42-.85,2.23h5.98Z"/>
      </g>
      <g id="Groupe_192" data-name="Groupe 192">
        <path id="Tracé_335" data-name="Tracé 335" class="cls-2" d="m60.86,18.16c-.69,0-1.38-.03-2.06-.1v-8.66c.8-.12,1.62-.19,2.43-.18,3.29,0,4.81,1.62,4.81,4.26,0,3.04-1.79,4.69-5.17,4.69Zm.48-7.84c-.38,0-.76.02-1.14.09v6.58c.32.03.63.05.95.04,2.16,0,3.38-1.23,3.38-3.53.19-1.58-.94-3-2.51-3.19-.23-.03-.46-.03-.69,0h0Zm9.42,7.9c-1.67.03-3.04-1.31-3.07-2.97,0-.1,0-.19,0-.29-.15-1.7,1.12-3.2,2.82-3.34.11,0,.23-.01.35-.01,1.66-.04,3.03,1.28,3.07,2.93,0,.11,0,.21,0,.32.14,1.71-1.13,3.22-2.84,3.36-.11,0-.22.01-.32.01h0Zm.05-5.59c-1.02,0-1.67.95-1.67,2.28s.67,2.26,1.66,2.26,1.66-1.02,1.66-2.29c0-1.29-.65-2.25-1.65-2.25h0Zm13.69-.9l-1.99,6.35h-1.29l-.82-2.76c-.2-.67-.37-1.36-.51-2.05h-.03c-.12.7-.29,1.38-.51,2.05l-.88,2.76h-1.31l-1.87-6.35h1.45l.72,3.02c.17.72.31,1.4.43,2.04h.03c.1-.53.27-1.2.52-2.02l.9-3.03h1.15l.86,2.96c.21.72.38,1.42.51,2.09h.04c.1-.7.25-1.4.43-2.09l.77-2.97h1.39Zm7.31,6.35h-1.41v-3.64c0-1.12-.43-1.68-1.28-1.68-.81.03-1.44.71-1.41,1.52,0,.01,0,.03,0,.04v3.77h-1.41v-4.53c0-.56-.01-1.16-.05-1.82h1.24l.07.98h.04c.42-.71,1.19-1.13,2.01-1.11,1.33,0,2.21,1.02,2.21,2.68v3.8h0Zm3.89,0h-1.41v-9.26h1.41v9.26Zm5.14.14c-1.67.02-3.04-1.31-3.07-2.98,0-.1,0-.19,0-.29-.15-1.7,1.11-3.2,2.81-3.34.11,0,.23-.01.35-.01,1.66-.04,3.03,1.28,3.07,2.93,0,.11,0,.21,0,.32.14,1.71-1.13,3.22-2.84,3.36-.11,0-.22.01-.32.01h0Zm.05-5.59c-1.02,0-1.67.95-1.67,2.28s.67,2.26,1.66,2.26,1.66-1.02,1.66-2.29c0-1.29-.65-2.25-1.64-2.25h0Zm8.67,5.45l-.1-.73h-.04c-.43.58-1.13.91-1.86.88-1.02.05-1.89-.73-1.94-1.74,0-.04,0-.08,0-.12,0-1.57,1.36-2.38,3.71-2.38v-.12c0-.84-.44-1.25-1.32-1.25-.59-.01-1.16.15-1.66.47l-.29-.93c.66-.38,1.42-.57,2.18-.55,1.66,0,2.5.88,2.5,2.63v2.34c0,.51.02,1.01.09,1.51h-1.28Zm-.19-3.16c-1.57,0-2.35.38-2.35,1.28-.05.49.31.94.8.99.06,0,.11,0,.17,0,.74.02,1.35-.56,1.38-1.29v-.98Zm8.23,3.16l-.07-1.02h-.04c-.38.76-1.19,1.22-2.04,1.16-1.53,0-2.66-1.35-2.66-3.24s1.18-3.38,2.78-3.38c.71-.07,1.4.26,1.79.86h.03v-3.64h1.41v7.55c0,.61.01,1.19.05,1.71h-1.26,0Zm-.21-3.74c.06-.85-.58-1.58-1.42-1.64-.02,0-.04,0-.06,0-1.05,0-1.68.93-1.68,2.23s.66,2.16,1.66,2.16c.87-.04,1.55-.78,1.52-1.65,0-.01,0-.02,0-.03v-1.06h0Zm10.37,3.88c-1.67.02-3.04-1.31-3.07-2.98,0-.1,0-.19,0-.29-.15-1.7,1.11-3.2,2.81-3.34.12,0,.23-.01.35-.01,1.66-.04,3.03,1.28,3.07,2.93,0,.11,0,.21,0,.32.14,1.71-1.13,3.22-2.84,3.36-.11,0-.22.01-.33.01h0Zm.05-5.59c-1.02,0-1.67.95-1.67,2.28s.67,2.26,1.66,2.26,1.66-1.02,1.66-2.29c0-1.29-.65-2.25-1.64-2.25h0Zm10.7,5.45h-1.42v-3.64c0-1.12-.43-1.68-1.28-1.68-.81.03-1.44.71-1.41,1.51,0,.01,0,.03,0,.04v3.77h-1.41v-4.53c0-.56-.01-1.16-.05-1.82h1.24l.07.98h.04c.42-.71,1.19-1.13,2.01-1.11,1.33,0,2.21,1.02,2.21,2.68v3.8Zm9.49-5.29h-1.55v3.08c0,.78.27,1.18.82,1.18.21,0,.42-.02.63-.07l.04,1.07c-.35.12-.72.17-1.09.16-1.11,0-1.78-.61-1.78-2.22v-3.2h-.93v-1.05h.93v-1.16l1.39-.42v1.58h1.55v1.06h0Zm7.47,5.29h-1.41v-3.61c0-1.14-.43-1.71-1.28-1.71-.76-.02-1.4.59-1.42,1.35,0,.05,0,.1,0,.15v3.83h-1.41v-9.26h1.41v3.81h.03c.4-.66,1.13-1.06,1.91-1.03,1.34,0,2.17,1.04,2.17,2.7v3.78Zm7.65-2.83h-4.23c-.04,1.01.75,1.85,1.75,1.89.08,0,.16,0,.25,0,.58,0,1.16-.1,1.71-.3l.22.98c-.68.28-1.4.41-2.13.39-1.62.12-3.04-1.09-3.16-2.71-.01-.16-.01-.33,0-.49,0-1.95,1.2-3.41,3-3.41,1.62,0,2.64,1.2,2.64,3.02,0,.21,0,.43-.05.64h0Zm-1.29-1c0-.98-.49-1.67-1.4-1.67-.87.07-1.55.8-1.54,1.67h2.94Z"/>
      </g>
    </g>
  </g>
</svg>