<?xml version="1.0" encoding="utf-8"?>
<!-- Generator: Adobe Illustrator 28.0.0, SVG Export Plug-In . SVG Version: 6.00 Build 0)  -->
<svg version="1.1" id="_x32_" xmlns="http://www.w3.org/2000/svg" xmlns:xlink="http://www.w3.org/1999/xlink" x="0px" y="0px"
	 viewBox="0 0 628.1 800" style="enable-background:new 0 0 628.1 800;" xml:space="preserve">
<style type="text/css">
	.st0{fill:#FFFFFF;}
</style>
<g>
	<path class="st0" d="M86.8,643.5c-8.2,9.1-14.3,19.5-17.7,30.1c-2.4,7.4-3.5,14.8-3.5,21.7c0,4.2,0.4,8.2,1.3,12
		c0.7,2.8,1.6,5.5,2.9,8c0.9,1.9,2.1,3.7,3.4,5.3c2,2.4,4.4,4.5,7.3,5.9c2.9,1.5,6.2,2.2,9.6,2.2v-15.3c-0.7,0-1.2-0.1-1.8-0.2
		c-0.9-0.2-1.6-0.7-2.5-1.4c-0.6-0.6-1.2-1.3-1.8-2.3c-0.9-1.4-1.7-3.4-2.3-5.8c-0.6-2.4-0.9-5.2-0.9-8.3c0-5.2,0.9-11,2.8-17
		c1.8-5.5,4.6-11.2,8.3-16.7c5.5-8.2,13.1-15.6,21.8-20.9c4.3-2.7,9-4.8,13.9-6.3c4.9-1.5,10-2.2,15.3-2.2c7,0,13.8,1.4,20.1,4
		c9.4,3.8,17.9,10.1,24.8,17.6c6.8,7.5,11.8,16.3,14.5,24.5c1.9,6,2.8,11.9,2.8,17c0,3.1-0.3,6-0.9,8.4c-0.4,1.8-1,3.4-1.6,4.7
		c-0.5,1-1,1.8-1.5,2.4c-0.8,1-1.6,1.6-2.3,2c-0.8,0.4-1.6,0.6-2.8,0.6v15.3c2,0,4-0.3,5.9-0.8c3.3-0.9,6.2-2.6,8.7-4.8
		c1.8-1.7,3.3-3.6,4.6-5.6c1.9-3.1,3.2-6.6,4.1-10.3c0.9-3.7,1.3-7.7,1.3-11.8c0-6.9-1.1-14.3-3.5-21.7c-2.3-7.1-5.7-14-10.2-20.6
		c-6.7-9.8-15.7-18.8-26.5-25.4c-5.4-3.3-11.2-6-17.5-7.8c-6.2-1.9-12.8-2.9-19.7-2.9c-9.1,0-17.8,1.9-25.7,5.1
		C105.3,626.7,94.9,634.4,86.8,643.5z"/>
	<path class="st0" d="M172.8,706.4c-2.5,2-4,5-4,8.2v12.3c0,3.2,1.5,6.2,4,8.2c2.5,2,5.8,2.7,8.8,2l8.2-2v-28.7l-8.2-2
		C178.5,703.7,175.3,704.4,172.8,706.4z"/>
	<path class="st0" d="M104.2,704.4l-8.3,2v28.7l8.3,2c3.1,0.7,6.3,0,8.8-2c2.5-2,4-5,4-8.2v-12.3c0-3.2-1.5-6.2-4-8.2
		C110.6,704.4,107.3,703.7,104.2,704.4z"/>
	<path class="st0" d="M622.6,671.2c-3.1-11.8-7.6-22.3-13.1-31.7c-9.6-16.5-22.3-29.3-36.3-39.5c-10.5-7.6-21.8-13.8-33.2-19.2
		c-17.1-8-34.6-14.2-50.8-20.1c-16.2-6-30.9-11.8-42.4-18.6c-4.2-2.5-8-5.1-11.3-7.8c-4.9-4.1-8.7-8.4-11.4-13.3
		c-2.8-4.9-4.6-10.3-5.3-17.2c-0.5-4.9-0.7-9.5-0.7-13.9c0-12.9,1.9-24.1,4.3-35.6c7.2-8.2,13.8-17.9,20.1-29.5
		c6.3-11.7,12.2-25.3,18.2-41.5c3.8-1.7,7.6-3.8,11.4-6.3c8.5-5.7,16.6-13.7,23.4-24.4c6.7-10.7,12.2-23.9,15.9-40.3
		c1-4.5,1.5-9.1,1.5-13.5c0-9.3-2.2-18.1-5.9-26c-2.6-5.5-5.8-10.5-9.6-15.1c1.9-7.1,4.3-16.7,6.4-28c2.9-15.6,5.3-34.4,5.3-54.1
		c0-12.7-1-25.9-3.6-38.8c-1.9-9.7-4.8-19.4-8.8-28.6c-6-13.9-14.8-27-27-37.7c-11.3-10-25.4-17.9-42.5-23
		c-6-7.2-12.1-13.4-18.3-18.6c-5.4-4.5-10.9-8.3-16.5-11.4C384,13,375.2,9.9,366.3,8s-18.1-2.6-27.6-2.6c-13.1,0-26.8,1.3-42,2.8
		c-5.7,0.6-10.5,1.3-14.7,2c-6.2,1.1-10.9,2.3-14.6,3c-1.9,0.4-3.5,0.7-5.1,0.9c-1.6,0.2-3.2,0.3-5,0.3c-2.4,0-5.2-0.2-8.8-0.7
		c-11.1-1.6-21.2-4.1-29.1-6.5c-4-1.2-7.4-2.4-10.1-3.4c-1.3-0.5-2.5-1-3.4-1.4c-1-0.4-1.7-0.8-2.1-1l0,0c-1.2-0.6-2.4-1-3.4-1.2
		c-1.1-0.2-2-0.3-2.8-0.3c-1.7,0-2.9,0.2-3.8,0.5c-1,0.2-1.7,0.5-2.3,0.8c-1.3,0.5-2.2,1-3.2,1.6c-1.8,1.1-3.5,2.3-5.3,3.7
		c-3.2,2.4-6.6,5.5-10.3,9c-5.5,5.3-11.4,11.8-16.8,18.8c-2.7,3.5-5.2,7.2-7.5,10.9c-2.3,3.8-4.3,7.7-5.9,11.7
		c-7.8,20.2-12.9,38.8-16.1,56c-3.2,17.2-4.4,32.9-4.4,47.3c0,23.6,3.3,43.6,6.5,60.5c0,0.8,0,1.6,0.1,2.4c0.1,1.6,0.3,3.2,0.4,4.9
		c0.3,2.5,0.6,5.2,0.8,7.3c0.1,1.1,0.2,2.1,0.3,2.8c0,0.4,0,0.7,0,1l0,0.2v0.1v0v1.4l3.1,13.8c-4.5,4.9-8.3,10.4-11.3,16.4
		c-4.2,8.4-6.7,17.8-6.7,27.7c0,4.4,0.5,8.9,1.5,13.5c2.4,10.9,5.7,20.4,9.6,28.7c5.8,12.5,13.2,22.2,21.3,29.4
		c6.3,5.7,13.1,9.8,19.8,12.8c5.9,16.2,11.9,29.8,18.1,41.5c6.2,11.6,12.8,21.3,20.1,29.5c2.4,11.5,4.3,22.7,4.4,35.6
		c0,4.4-0.2,9-0.8,13.9c-0.5,4.7-1.5,8.7-3,12.4c-2.2,5.5-5.5,10.1-9.9,14.6c-4.4,4.3-10.1,8.4-16.7,12.2
		c-6.8,3.8-14.6,7.4-23.1,10.8c-14.9,6.1-32,11.8-49.2,18.7c-12.9,5.2-26.1,11-38.6,18.4c-9.4,5.5-18.4,11.9-26.7,19.5
		c-12.4,11.4-23.1,25.6-30.5,43.1C4.1,671.2,0,691.9,0,716.5c0,3.5,0.7,6.8,1.9,9.8c1.1,2.9,2.6,5.5,4.4,8
		c3.4,4.6,7.8,8.8,13.2,12.8c9.5,7,22,13.5,38.3,19.7c24.4,9.2,57.1,17.5,99.4,23.5c42.3,6,94.2,9.8,156.7,9.8
		c54.2,0,100.4-2.8,139.3-7.5c29.1-3.5,54.2-8.1,75.5-13.3c16-3.9,29.8-8.2,41.7-12.6c8.9-3.4,16.7-6.9,23.5-10.5
		c5.1-2.7,9.6-5.5,13.5-8.4c6-4.3,10.7-8.8,14.4-13.8c1.8-2.5,3.3-5.2,4.4-8.1c1.1-2.9,1.8-6.1,1.8-9.3
		C628.1,699.7,626.1,684.7,622.6,671.2z M425.4,559.5L347,681.9l-8.7-60.1l22.2-23.5l-14.4-24l60.8-32c1.7,2.2,3.5,4.2,5.3,6.2
		C416.3,552.6,420.7,556.2,425.4,559.5z M200.1,136.2c70.7,15.7,208.8-14.3,208.8-14.3s1.5,34.3,25,65.7c9.3,12.4,16.9,31.7,22.7,50
		c-1.5-2.9-5.2-3.9-10.5-4.6c-12.1-1.6-30.1-2.7-50.4-1.7c-60.2,3-55.7,8.4-79.4,8.4s-19.2-5.5-79.4-8.4c-20.3-1-38.3,0.1-50.4,1.7
		c-6.3,0.8-10.3,2.1-11.2,6.3c-0.3,1.6-0.8,3.3-3,4.2C179.1,218.6,197.7,186.8,200.1,136.2z M445.2,275.7c0,0.3-0.2,34.9-23.7,46.7
		c-8,4-18,6.2-28.2,6.3c-10.7,0-20.6-2.4-28.4-7.1c-8.7-5.1-14.5-12.6-17.4-22.4c-0.7-2.3-1.3-4.5-1.9-6.7
		c-1.9-6.7-6.9-25.4,3.8-33.6c6.8-5.3,28.1-8.7,48.4-8.7c18.5,0,37.3,2.5,42.8,8.3C444.2,262.3,445.6,269.1,445.2,275.7z
		 M287.1,292.5c-0.6,2.2-1.3,4.5-1.9,6.7c-2.9,9.7-8.7,17.3-17.3,22.4c-7.9,4.6-17.7,7.1-28.4,7.1c-10.2,0-20.2-2.2-28.2-6.3
		c-23.5-11.8-23.7-46.3-23.7-46.7c-0.5-6.6,1-13.4,4.6-17.2c5.5-5.8,24.4-8.3,42.9-8.3c20.3,0,41.6,3.4,48.4,8.7
		C293.9,267.1,288.9,285.8,287.1,292.5z M208.6,412.6c-6.1-11.4-12.2-25.6-18.5-43.4l-2.1-5.8l-5.8-2.1c-4-1.5-7.9-3.4-11.6-5.9
		c-5.6-3.8-11-9-15.9-16.7c-4.9-7.7-9.3-18.1-12.5-32.1c-0.6-2.7-0.9-5.2-0.9-7.7c0-5.6,1.3-10.9,3.9-16c2.1-4.2,5-8.2,8.6-11.8
		c6,9.1,11,16.3,12.8,18.1c3.4,3.4,5.2,0.1,5.4-6.3c2.1,14.3,8.9,38,30.9,49.7c31.7,16.8,78.9,10.5,95-26.9
		c7.3-16.9,7.3-33.4,18.3-33.4c10.9,0,11,16.5,18.3,33.4c16.1,37.5,63.3,43.8,95,26.9c31.6-16.8,31.9-58.5,31.9-61.4
		c0-1.5,1.4-2.7,3.5-2.9c2.7,11.3,4.1,19,4.1,19s3-5.8,7.6-13.5c2.7,3.2,5,6.6,6.6,10.2c2.2,4.8,3.4,9.8,3.4,15
		c0,2.5-0.3,5.1-0.9,7.7c-2.1,9.3-4.8,17-7.7,23.4c-4.5,9.6-9.7,16.2-15.1,21c-5.4,4.8-11.2,8-17.1,10.2l-5.8,2.1l-2.1,5.8
		c-6.3,17.7-12.4,32-18.5,43.4c-6.2,11.4-12.3,20-18.6,26.7l-2.5,2.7l-0.8,3.5c-2.8,13.1-5.7,27.5-5.7,44.6c0,5.3,0.3,10.8,0.9,16.6
		c0.7,6.8,2.3,13.2,4.6,19c0.1,0.3,0.2,0.6,0.3,0.8l-79.5,41.8L230,527.4c2.7-6.3,4.5-13.3,5.3-20.8c0.6-5.8,0.9-11.3,0.9-16.6
		c0-17.1-2.8-31.5-5.7-44.6l-0.8-3.5l-2.5-2.6C220.9,432.6,214.8,424,208.6,412.6z M207.9,555.6c4.6-3.7,8.8-7.8,12.5-12.5
		l67.2,31.2l-14.4,23.9l22.2,23.5l-8.2,56.6l-85.7-118.1C203.8,558.8,205.9,557.2,207.9,555.6z M601.9,716.4c0,0.1-0.2,0.6-0.7,1.4
		c-0.9,1.5-2.9,4-6.4,6.7c-3,2.4-7.1,5.1-12.2,7.9c-9,4.9-21.1,10-36.5,14.8c-23.1,7.3-53.6,13.9-92.1,18.8
		c-38.5,4.8-84.9,7.8-140.1,7.8c-53.3,0-98.4-2.8-136.1-7.3c-28.3-3.4-52.3-7.8-72.4-12.7c-15.1-3.7-27.9-7.7-38.6-11.7
		c-8-3-14.8-6.1-20.4-9.1c-4.2-2.2-7.7-4.5-10.6-6.5c-4.3-3.1-7-5.9-8.4-7.8c-0.7-0.9-1-1.7-1.1-2c-0.1-0.1-0.1-0.2-0.1-0.3
		c0-14.6,1.7-27.2,4.5-38.1c2.5-9.5,6-17.8,10.2-25.1c7.4-12.8,17.1-22.9,28.6-31.3c8.6-6.4,18.2-11.8,28.4-16.7
		c11.5-5.4,23.6-10.1,35.8-14.6v26.4h9.2h9.2v-33.1c11.7-4.4,23-8.9,33.6-14.2l135.5,186.6l118.4-184.8c0.4,0.6,0.7,1.1,1.1,1.7
		c4.9,7.9,8.4,16.6,10.7,26.4c2.3,9.8,3.3,20.7,3.3,32.9c0,28.2,0,52.8,0,69.4h-42.5V720h104.7v-18.3h-42.5c0-16.6,0-41.1,0-69.4
		c0-17.7-2-33.9-7.1-48.7c-0.4-1.3-0.9-2.5-1.4-3.8c14.3,5.6,29.3,10.7,43.8,16.5c12.4,4.9,24.5,10.3,35.4,16.6
		c8.3,4.8,15.9,10.2,22.7,16.3c10.2,9.3,18.5,20.2,24.5,34.2C598.2,677.4,601.9,694.6,601.9,716.4L601.9,716.4z"/>
</g>
</svg>
