<svg id="health-svgrepo-com" xmlns="http://www.w3.org/2000/svg" width="38.639" height="42.565" viewBox="0 0 38.639 42.565">
  <path id="Tracé_367" data-name="Tracé 367" d="M40.451,17.689A1.447,1.447,0,0,0,39.211,17,9.464,9.464,0,0,0,31.5,20.857l-1.24,1.653a8.147,8.147,0,0,1-6.2,2.755H19.926a1.378,1.378,0,0,1,0-2.755h2.617a4.242,4.242,0,0,0,4.27-3.995v-.138A1.481,1.481,0,0,0,25.436,17h-8.4c-4.959,0-8.954,2.2-11.158,5.786L2.157,28.571a1.251,1.251,0,0,0,0,1.378l4.133,6.888a2.025,2.025,0,0,0,.827.689h.276a1.958,1.958,0,0,0,.827-.275,31.756,31.756,0,0,1,17.494-5.235,12.411,12.411,0,0,0,10.882-6.474l3.719-6.612A1.294,1.294,0,0,0,40.451,17.689Z" transform="translate(-1.95 5.04)" fill="#fff"/>
  <path id="Tracé_368" data-name="Tracé 368" d="M14.75,20.285h8.4a4.118,4.118,0,0,1,4.133,3.995v.275h0l8.541-8.816a8.817,8.817,0,0,0,0-12.26A8.836,8.836,0,0,0,29.9,1a8.692,8.692,0,0,0-6.061,2.617l-.689.689-.689-.689A8.449,8.449,0,0,0,16.4,1,8.381,8.381,0,0,0,10.48,3.617a8.817,8.817,0,0,0,0,12.26Zm1.515-8.265h2.2l2.342-2.342a1.684,1.684,0,0,1,1.24-.413,1.757,1.757,0,0,1,.964.689l1.378,2.755,1.653-3.995a1.2,1.2,0,0,1,1.1-.826,1.343,1.343,0,0,1,1.24.551l2.755,4.133A1.395,1.395,0,1,1,28.8,14.086l-1.24-1.929L25.77,16.566a1.323,1.323,0,0,1-1.24.964h0a1.324,1.324,0,0,1-1.24-.827l-1.929-3.857-1.378,1.378a1.04,1.04,0,0,1-.964.551H16.265A1.3,1.3,0,0,1,14.888,13.4,1.3,1.3,0,0,1,16.265,12.02Z" transform="translate(0.334 -1)" fill="#fff"/>
</svg>
