<svg xmlns="http://www.w3.org/2000/svg" width="22.647" height="20" viewBox="0 0 22.647 20">
  <g id="heart-pulse-2-svgrepo-com" transform="translate(-1.25 -2.249)">
    <path id="Tracé_908" data-name="Tracé 908" d="M21.96,12.147H19.47a3.377,3.377,0,0,0-1.346.137,3.381,3.381,0,0,0-1,.91l-1.084,1.2c-.381.423-.571.634-.812.629s-.422-.224-.784-.663l-3.716-4.5c-.337-.409-.506-.613-.735-.627s-.421.169-.8.534L7.6,11.276a3.356,3.356,0,0,1-.961.759,3.357,3.357,0,0,1-1.219.113H3" transform="translate(0.093 0.373)" fill="none" stroke="#fff" stroke-linecap="round" stroke-width="1.5"/>
    <path id="Tracé_909" data-name="Tracé 909" d="M9.373,19.8l.489-.62Zm3.2-14.125L12,6.222a.79.79,0,0,0,1.138,0Zm3.2,14.126.489.62h0Zm-3.2,1.659v0ZM2.732,13.991a.79.79,0,1,0,1.341-.835Zm4.08,2.5A.79.79,0,0,0,5.7,17.612ZM2.83,9.5c0-2.952,1.324-4.784,2.98-5.414S9.783,3.915,12,6.222l1.138-1.1C10.624,2.509,7.67,1.693,5.248,2.614s-4,3.468-4,6.891ZM16.263,20.42a31.738,31.738,0,0,0,4.954-4.757A10.317,10.317,0,0,0,23.9,9.5h-1.58a8.806,8.806,0,0,1-2.329,5.166,30.186,30.186,0,0,1-4.7,4.508ZM23.9,9.5c0-3.422-1.573-5.968-4-6.891S14.523,2.509,12,5.126l1.138,1.1c2.221-2.307,4.534-2.763,6.194-2.132s2.98,2.462,2.98,5.414ZM8.884,20.42c1.342,1.058,2.267,1.829,3.689,1.829v-1.58c-.77,0-1.247-.335-2.711-1.489Zm6.4-1.241c-1.464,1.154-1.942,1.489-2.711,1.489v1.58c1.422,0,2.347-.771,3.689-1.829ZM4.073,13.156A7.1,7.1,0,0,1,2.83,9.5H1.25a8.648,8.648,0,0,0,1.482,4.487Zm5.789,6.023a35.34,35.34,0,0,1-3.051-2.686L5.7,17.612A36.89,36.89,0,0,0,8.884,20.42Z" fill="#fff"/>
  </g>
</svg>
