<?xml version="1.0" encoding="UTF-8"?>
<svg id="Layer_1" data-name="Layer 1" xmlns="http://www.w3.org/2000/svg" viewBox="0 0 799.97 800">
  <defs>
    <style>
      .cls-1 {
        fill: #fff;
        stroke-width: 0px;
      }
    </style>
  </defs>
  <path class="cls-1" d="m799.33,760.13l-66.66-333.32c-3.13-15.57-16.8-26.8-32.7-26.8h-129.56c2.67-4.13,5.3-8.37,7.93-12.5l19-29.9c23.53-37.2,35.97-80.16,35.97-124.26,0-66.4-28.4-129.86-78-174.13C505.77,14.99,439.11-6.21,372.71,1.59c-103.7,11.8-189.39,95.33-203.73,198.59-8.5,61.2,6.8,121.96,43.03,171.16,6.87,9.3,13.03,19.1,19.57,28.67H99.98c-15.87,0-29.53,11.23-32.67,26.8L.65,760.13c-1.97,9.8.57,19.93,6.9,27.67,6.33,7.7,15.77,12.2,25.77,12.2h733.31c10,0,19.43-4.5,25.8-12.2,6.3-7.73,8.83-17.87,6.9-27.67ZM399.98,133.35c55.17,0,100,44.87,100,100s-44.83,100-100,100-100-44.87-100-100c0-55.13,44.86-100,100-100ZM73.98,733.33l53.33-266.66h146.63c.1.17.2.37.3.53,21.4,36.3,41.27,73.47,59.4,108.66,7.67,15.03,15.33,30,22.97,45.23l13.57,27.13c5.67,11.3,17.17,18.43,29.8,18.43s24.17-7.13,29.83-18.43l28.73-57.47c7.7-15.37,15.9-30.6,24.27-45.77,2.4-4.33,4.8-8.7,7.2-12.97,7.1-12.53,14.37-25.03,21.77-37.4,5.73-9.6,11.4-18.97,16.97-27.97h143.93l53.33,266.66H73.98Z"/>
  <path class="cls-1" d="m399.99,266.68c18.4,0,33.33-14.93,33.33-33.33s-14.93-33.33-33.33-33.33-33.33,14.93-33.33,33.33,14.93,33.33,33.33,33.33Z"/>
</svg>