<?xml version="1.0" encoding="utf-8"?>
<!-- Generator: Adobe Illustrator 28.0.0, SVG Export Plug-In . SVG Version: 6.00 Build 0)  -->
<svg version="1.1" id="Calque_1" xmlns="http://www.w3.org/2000/svg" xmlns:xlink="http://www.w3.org/1999/xlink" x="0px" y="0px"
	 viewBox="0 0 790.6 227.9" style="enable-background:new 0 0 790.6 227.9;" xml:space="preserve">
<style type="text/css">
	.st0{fill:#134888;}
</style>
<g transform="scale(4.00216 4.0011)">
	<g>
		<path class="st0" d="M191.7,1.4c2.5,0,4.5,2,4.5,4.5l0,45.3c0,2.5-2,4.5-4.5,4.5H5.8c-2.5,0-4.5-2-4.5-4.5V5.8
			c0-2.5,2-4.5,4.5-4.5H191.7 M191.7,0.1H5.8c-3.2,0-5.7,2.6-5.7,5.7v45.3c0,3.2,2.6,5.7,5.7,5.7h185.9c3.2,0,5.7-2.6,5.7-5.7
			l0-45.3C197.4,2.6,194.8,0.1,191.7,0.1L191.7,0.1z"/>
	</g>
	<path class="st0" d="M43.4,28.1c0-4.8,3.9-7.1,4.1-7.2c-2.2-3.3-5.7-3.7-6.9-3.7c-2.9-0.3-5.7,1.7-7.2,1.7s-3.8-1.7-6.3-1.7
		c-3.2,0-6.1,1.9-7.8,4.7c-3.4,5.8-0.9,14.4,2.4,19.1c1.6,2.3,3.5,4.9,6,4.8c2.4-0.1,3.3-1.5,6.2-1.5c2.9,0,3.7,1.5,6.2,1.5
		c2.6,0,4.2-2.3,5.8-4.6c1.9-2.6,2.6-5.2,2.6-5.4C48.5,35.7,43.5,33.8,43.4,28.1L43.4,28.1z M38.7,14.1c1.3-1.6,2.2-3.8,1.9-6.1
		c-1.9,0.1-4.2,1.3-5.6,2.9c-1.2,1.4-2.3,3.7-2,5.8C35.2,16.9,37.4,15.7,38.7,14.1z"/>
	<g>
		<path class="st0" d="M78.3,45.5h-3.4l-1.8-5.8h-6.4l-1.8,5.8h-3.3L68,25.8h3.9L78.3,45.5L78.3,45.5z M72.6,37.3l-1.7-5.1
			c-0.2-0.5-0.5-1.8-1-3.7h-0.1c-0.2,0.8-0.5,2.1-0.9,3.7l-1.6,5.1H72.6z M94.6,38.2c0,2.4-0.7,4.3-2,5.7c-1.2,1.2-2.6,1.9-4.4,1.9
			c-1.9,0-3.2-0.7-4.1-2v7.5h-3.2V35.9c0-1.5,0-3.1-0.1-4.7h2.8l0.2,2.3h0.1c1.1-1.7,2.7-2.5,4.8-2.5c1.7,0,3.1,0.7,4.2,2
			C94.1,34.3,94.6,36,94.6,38.2L94.6,38.2z M91.4,38.3c0-1.4-0.3-2.5-0.9-3.4c-0.7-0.9-1.6-1.4-2.8-1.4c-0.8,0-1.5,0.3-2.1,0.8
			s-1,1.2-1.2,2c-0.1,0.3-0.1,0.6-0.1,1v2.4c0,1,0.3,1.9,1,2.6c0.6,0.7,1.5,1.1,2.5,1.1c1.2,0,2.1-0.5,2.8-1.4
			C91.1,41,91.4,39.8,91.4,38.3z M111,38.2c0,2.4-0.7,4.3-2,5.7c-1.2,1.2-2.6,1.9-4.4,1.9c-1.9,0-3.2-0.7-4.1-2v7.5h-3.2V35.9
			c0-1.5,0-3.1-0.1-4.7h2.8l0.2,2.3h0.1c1.1-1.7,2.7-2.5,4.8-2.5c1.7,0,3.1,0.7,4.2,2C110.4,34.3,111,36,111,38.2L111,38.2z
			 M107.8,38.3c0-1.4-0.3-2.5-0.9-3.4c-0.7-0.9-1.6-1.4-2.7-1.4c-0.8,0-1.5,0.3-2.1,0.8s-1,1.2-1.2,2c-0.1,0.4-0.1,0.7-0.1,1v2.4
			c0,1,0.3,1.9,0.9,2.6c0.6,0.7,1.5,1.1,2.5,1.1c1.2,0,2.1-0.5,2.8-1.4C107.4,41,107.8,39.8,107.8,38.3z M129.3,40
			c0,1.7-0.6,3-1.8,4.1c-1.3,1.1-3.1,1.7-5.4,1.7c-2.1,0-3.8-0.4-5.1-1.2l0.7-2.6c1.4,0.8,2.9,1.2,4.6,1.2c1.2,0,2.1-0.3,2.8-0.8
			c0.7-0.5,1-1.3,1-2.1s-0.3-1.5-0.8-2s-1.5-1.1-2.7-1.5c-3.5-1.3-5.2-3.2-5.2-5.6c0-1.6,0.6-2.9,1.8-4c1.2-1,2.8-1.6,4.8-1.6
			c1.8,0,3.3,0.3,4.5,0.9l-0.8,2.6c-1.1-0.6-2.4-0.9-3.8-0.9c-1.1,0-2,0.3-2.6,0.8c-0.5,0.5-0.8,1.1-0.8,1.8c0,0.8,0.3,1.4,0.9,1.9
			c0.5,0.5,1.5,1,2.9,1.5c1.7,0.7,2.9,1.5,3.7,2.4C128.9,37.4,129.3,38.6,129.3,40L129.3,40z M139.7,33.6h-3.5v6.9
			c0,1.8,0.6,2.6,1.8,2.6c0.6,0,1,0,1.4-0.1l0.1,2.4c-0.6,0.2-1.4,0.3-2.5,0.3c-1.2,0-2.2-0.4-2.9-1.1c-0.7-0.8-1.1-2-1.1-3.8v-7.2
			h-2.1v-2.4h2.1v-2.6l3.1-0.9v3.5h3.5L139.7,33.6L139.7,33.6z M155.4,38.3c0,2.2-0.6,4-1.9,5.4c-1.3,1.4-3,2.2-5.2,2.2
			c-2.1,0-3.8-0.7-5-2.1c-1.2-1.4-1.9-3.1-1.9-5.2c0-2.2,0.6-4,1.9-5.4c1.3-1.4,3-2.1,5.2-2.1c2.1,0,3.8,0.7,5,2.1
			C154.8,34.4,155.4,36.1,155.4,38.3L155.4,38.3z M152.1,38.3c0-1.3-0.3-2.4-0.8-3.4c-0.7-1.1-1.6-1.7-2.8-1.7
			c-1.3,0-2.2,0.6-2.9,1.7c-0.6,0.9-0.8,2.1-0.8,3.4c0,1.3,0.3,2.4,0.8,3.4c0.7,1.1,1.6,1.7,2.9,1.7c1.2,0,2.2-0.6,2.8-1.7
			C151.9,40.8,152.1,39.6,152.1,38.3L152.1,38.3z M165.7,34c-0.3-0.1-0.7-0.1-1-0.1c-1.1,0-2,0.4-2.6,1.3c-0.5,0.7-0.8,1.7-0.8,2.8
			v7.5h-3.2v-9.7c0-1.5,0-3-0.1-4.5h2.8l0.1,2.7h0.1c0.3-0.9,0.9-1.7,1.6-2.3c0.7-0.5,1.5-0.8,2.3-0.8c0.3,0,0.6,0,0.8,0.1L165.7,34
			L165.7,34z M179.8,37.7c0,0.5,0,1-0.1,1.4h-9.5c0,1.4,0.5,2.5,1.4,3.2c0.8,0.7,1.8,1,3.1,1c1.4,0,2.7-0.2,3.8-0.7l0.5,2.2
			c-1.3,0.6-2.9,0.9-4.8,0.9c-2.2,0-3.9-0.6-5.2-1.9c-1.3-1.3-1.9-3-1.9-5.2c0-2.1,0.6-3.9,1.8-5.4s2.9-2.3,5-2.3
			c2,0,3.6,0.8,4.7,2.3C179.4,34.4,179.8,35.9,179.8,37.7L179.8,37.7z M176.8,36.9c0-0.9-0.2-1.7-0.6-2.4c-0.5-0.9-1.4-1.3-2.5-1.3
			c-1,0-1.9,0.4-2.5,1.3c-0.5,0.7-0.8,1.5-0.9,2.5L176.8,36.9L176.8,36.9z"/>
	</g>
	<g>
		<path class="st0" d="M65.8,18.8c-0.9,0-1.6,0-2.3-0.1V9.2C64.4,9.1,65.3,9,66.2,9c3.6,0,5.3,1.8,5.3,4.7
			C71.5,17,69.5,18.8,65.8,18.8z M66.3,10.2c-0.5,0-0.9,0-1.3,0.1v7.2c0.2,0,0.5,0,1,0c2.4,0,3.7-1.4,3.7-3.9
			C69.9,11.4,68.6,10.2,66.3,10.2z M76.7,18.9c-2,0-3.4-1.5-3.4-3.6c0-2.2,1.4-3.7,3.5-3.7c2,0,3.4,1.5,3.4,3.6S78.8,18.9,76.7,18.9
			z M76.8,12.7c-1.1,0-1.8,1-1.8,2.5c0,1.4,0.7,2.5,1.8,2.5c1.1,0,1.8-1.1,1.8-2.5S77.8,12.7,76.8,12.7L76.8,12.7z M91.8,11.7
			l-2.2,7h-1.4l-0.9-3c-0.2-0.7-0.4-1.5-0.6-2.3l0,0c-0.1,0.8-0.3,1.5-0.6,2.3l-1,3h-1.4l-2.1-7h1.6L84,15c0.2,0.8,0.3,1.5,0.5,2.2
			l0,0c0.1-0.6,0.3-1.3,0.6-2.2l1-3.3h1.3l0.9,3.3c0.2,0.8,0.4,1.6,0.6,2.3l0,0c0.1-0.7,0.3-1.5,0.5-2.3l0.8-3.3L91.8,11.7
			L91.8,11.7z M99.9,18.7h-1.6v-4c0-1.2-0.5-1.9-1.4-1.9s-1.6,0.8-1.6,1.7v4.2h-1.5v-5c0-0.6,0-1.3-0.1-2h1.4l0.1,1.1l0,0
			c0.4-0.7,1.3-1.2,2.2-1.2c1.5,0,2.4,1.1,2.4,2.9L99.9,18.7L99.9,18.7z M104.1,18.7h-1.6V8.5h1.6V18.7z M109.8,18.9
			c-2,0-3.4-1.5-3.4-3.6c0-2.2,1.4-3.7,3.5-3.7c2,0,3.4,1.5,3.4,3.6S111.9,18.9,109.8,18.9z M109.9,12.7c-1.1,0-1.8,1-1.8,2.5
			c0,1.4,0.7,2.5,1.8,2.5c1.1,0,1.8-1.1,1.8-2.5S111,12.7,109.9,12.7L109.9,12.7z M119.4,18.7l-0.1-0.8l0,0c-0.5,0.6-1.2,1-2,1
			c-1.3,0-2.1-0.9-2.1-2.1c0-1.7,1.5-2.6,4.1-2.6v-0.1c0-0.9-0.5-1.4-1.5-1.4c-0.7,0-1.3,0.2-1.8,0.5l-0.3-1
			c0.6-0.4,1.5-0.6,2.4-0.6c1.8,0,2.7,1,2.7,2.9v2.6c0,0.7,0,1.3,0.1,1.7L119.4,18.7L119.4,18.7z M119.2,15.2
			c-1.7,0-2.6,0.4-2.6,1.4c0,0.7,0.4,1.1,1.1,1.1c0.8,0,1.5-0.6,1.5-1.4V15.2z M128.3,18.7l-0.1-1.1l0,0c-0.4,0.8-1.2,1.3-2.2,1.3
			c-1.7,0-2.9-1.5-2.9-3.6c0-2.2,1.3-3.7,3.1-3.7c0.9,0,1.6,0.3,2,0.9l0,0v-4h1.6v8.3c0,0.7,0,1.3,0.1,1.9H128.3L128.3,18.7z
			 M128,14.6c0-1-0.6-1.8-1.6-1.8c-1.2,0-1.9,1-1.9,2.5c0,1.4,0.7,2.4,1.8,2.4c1,0,1.7-0.8,1.7-1.9V14.6L128,14.6z M139.4,18.9
			c-2,0-3.4-1.5-3.4-3.6c0-2.2,1.4-3.7,3.5-3.7c2,0,3.4,1.5,3.4,3.6S141.5,18.9,139.4,18.9L139.4,18.9z M139.5,12.7
			c-1.1,0-1.8,1-1.8,2.5c0,1.4,0.7,2.5,1.8,2.5s1.8-1.1,1.8-2.5S140.6,12.7,139.5,12.7L139.5,12.7z M151.3,18.7h-1.6v-4
			c0-1.2-0.5-1.9-1.4-1.9s-1.6,0.8-1.6,1.7v4.2h-1.6v-5c0-0.6,0-1.3-0.1-2h1.4l0.1,1.1l0,0c0.4-0.7,1.3-1.2,2.2-1.2
			c1.5,0,2.4,1.1,2.4,2.9v4.2H151.3z M161.7,12.9H160v3.4c0,0.9,0.3,1.3,0.9,1.3c0.3,0,0.5,0,0.7-0.1v1.2c-0.3,0.1-0.7,0.2-1.2,0.2
			c-1.2,0-2-0.7-2-2.4V13h-1v-1.2h1v-1.3l1.5-0.5v1.7h1.7L161.7,12.9L161.7,12.9z M169.9,18.7h-1.6v-4c0-1.3-0.5-1.9-1.4-1.9
			c-0.8,0-1.6,0.5-1.6,1.7v4.2h-1.6V8.5h1.6v4.2l0,0c0.5-0.8,1.2-1.1,2.1-1.1c1.5,0,2.4,1.1,2.4,3L169.9,18.7L169.9,18.7z
			 M178.4,15.6h-4.7c0,1.3,0.9,2.1,2.2,2.1c0.7,0,1.3-0.1,1.9-0.3l0.2,1.1c-0.7,0.3-1.4,0.4-2.3,0.4c-2.2,0-3.5-1.4-3.5-3.5
			s1.3-3.8,3.3-3.8c1.8,0,2.9,1.3,2.9,3.3C178.4,15.1,178.4,15.4,178.4,15.6L178.4,15.6z M176.9,14.5c0-1.1-0.5-1.8-1.5-1.8
			c-0.9,0-1.6,0.8-1.7,1.8H176.9L176.9,14.5z"/>
	</g>
</g>
</svg>
