<?xml version="1.0" encoding="utf-8"?>
<!-- Generator: Adobe Illustrator 28.0.0, SVG Export Plug-In . SVG Version: 6.00 Build 0)  -->
<svg version="1.1" id="Calque_1" xmlns="http://www.w3.org/2000/svg" xmlns:xlink="http://www.w3.org/1999/xlink" x="0px" y="0px"
	 viewBox="0 0 800 261.7" style="enable-background:new 0 0 800 261.7;" xml:space="preserve">
<style type="text/css">
	.st0{fill:#134888;}
	
		.st1{clip-path:url(#SVGID_00000101794040741338272910000018383823579458818960_);fill:#134888;stroke:#FFFFFF;stroke-miterlimit:10;}
	.st2{clip-path:url(#SVGID_00000013181373386719505080000014542436223285256350_);fill:#134888;}
	.st3{clip-path:url(#SVGID_00000028298455285596724380000000833901832996929966_);fill:#134888;}
	
		.st4{clip-path:url(#SVGID_00000143601583270280962580000006370174444729979791_);fill:#134888;stroke:#FFFFFF;stroke-width:0.5;stroke-miterlimit:10;}
</style>
<g>
	<path class="st0" d="M764.7,7C780.3,7,793,19.7,793,35.4v190.9c0,15.7-12.7,28.4-28.4,28.4H35.4C19.7,254.7,7,242,7,226.3v-191
		C7,19.7,19.7,7,35.4,7H764.7 M764.7,0H35.4C15.8,0,0,15.8,0,35.3v191c0,19.6,15.8,35.4,35.4,35.4h729.2c19.6,0,35.4-15.9,35.4-35.4
		V35.4C800,15.8,784.2,0,764.7,0L764.7,0z"/>
</g>
<g>
	<g>
		<defs>
			<path id="SVGID_1_" d="M173.4,115.2l-36.1-20.8c0,0-65.7-37.9-69.6-40.2C63.9,52,60,53.3,60,58v163.7c0,3.5,2.8,5,6.1,3.1
				c3.4-1.9,71.2-41.1,71.2-41.1l36.1-20.8c0,0,30.6-17.7,34.7-20c4.1-2.4,3.7-5.6,0.2-7.4C204.9,133.5,173.4,115.2,173.4,115.2z"/>
		</defs>
		<clipPath id="SVGID_00000179637735705386875080000002052874189637064090_">
			<use xlink:href="#SVGID_1_"  style="overflow:visible;"/>
		</clipPath>
		
			<path style="clip-path:url(#SVGID_00000179637735705386875080000002052874189637064090_);fill:#134888;stroke:#FFFFFF;stroke-miterlimit:10;" d="
			M60,50.4v177.2l89.4-88.6L60,50.4z"/>
		<use xlink:href="#SVGID_1_"  style="overflow:visible;fill:none;stroke:#FFFFFF;stroke-miterlimit:10;"/>
	</g>
</g>
<g>
	<g>
		<defs>
			<path id="SVGID_00000070835659151263447430000011591629086182398879_" d="M173.4,115.2l-36.1-20.8c0,0-65.7-37.9-69.6-40.2
				C63.9,52,60,53.3,60,58v163.7c0,3.5,2.8,5,6.1,3.1c3.4-1.9,71.2-41.1,71.2-41.1l36.1-20.8c0,0,30.6-17.7,34.7-20
				c4.1-2.4,3.7-5.6,0.2-7.4C204.9,133.5,173.4,115.2,173.4,115.2z"/>
		</defs>
		<clipPath id="SVGID_00000163795045905452970620000008967304372868578995_">
			<use xlink:href="#SVGID_00000070835659151263447430000011591629086182398879_"  style="overflow:visible;"/>
		</clipPath>
		<path style="clip-path:url(#SVGID_00000163795045905452970620000008967304372868578995_);fill:#134888;" d="M173.4,115.2
			l-36.1-20.8L60,49.7v0.6l89.4,88.6L173.4,115.2z"/>
	</g>
</g>
<g>
	<g>
		<defs>
			<path id="SVGID_00000114773809166279367490000000246663117723837082_" d="M173.4,115.2l-36.1-20.8c0,0-65.7-37.9-69.6-40.2
				C63.9,52,60,53.3,60,58v163.7c0,3.5,2.8,5,6.1,3.1c3.4-1.9,71.2-41.1,71.2-41.1l36.1-20.8c0,0,30.6-17.7,34.7-20
				c4.1-2.4,3.7-5.6,0.2-7.4C204.9,133.5,173.4,115.2,173.4,115.2z"/>
		</defs>
		<clipPath id="SVGID_00000104690754060714038220000010779705445579091628_">
			<use xlink:href="#SVGID_00000114773809166279367490000000246663117723837082_"  style="overflow:visible;"/>
		</clipPath>
		<path style="clip-path:url(#SVGID_00000104690754060714038220000010779705445579091628_);fill:#134888;" d="M60,227.6v0.6
			l77.3-44.6l36.1-20.8l-24-23.8L60,227.6z"/>
	</g>
</g>
<g>
	<g>
		<defs>
			<path id="SVGID_00000137810593264038722370000004705777197165752242_" d="M173.4,115.2l-36.1-20.8c0,0-65.7-37.9-69.6-40.2
				C63.9,52,60,53.3,60,58v163.7c0,3.5,2.8,5,6.1,3.1c3.4-1.9,71.2-41.1,71.2-41.1l36.1-20.8c0,0,30.6-17.7,34.7-20
				c4.1-2.4,3.7-5.6,0.2-7.4C204.9,133.5,173.4,115.2,173.4,115.2z"/>
		</defs>
		<clipPath id="SVGID_00000045595427023675989280000009242572616561477004_">
			<use xlink:href="#SVGID_00000137810593264038722370000004705777197165752242_"  style="overflow:visible;"/>
		</clipPath>
		
			<path style="clip-path:url(#SVGID_00000045595427023675989280000009242572616561477004_);fill:#134888;stroke:#FFFFFF;stroke-width:0.5;stroke-miterlimit:10;" d="
			M173.4,115.2l-24,23.8l24,23.8l41.2-23.8L173.4,115.2z"/>
		
			<use xlink:href="#SVGID_00000137810593264038722370000004705777197165752242_"  style="overflow:visible;fill:none;stroke:#FFFFFF;stroke-miterlimit:10;"/>
	</g>
</g>
<path class="st0" d="M622.6,173.6c-3.4,0-6.4-0.6-9.2-1.9c-2.8-1.2-5.1-3.1-7-5.7h-0.6c0.4,3,0.6,5.9,0.6,8.6v21.2h-7.8v-74.7h6.3
	l1.1,7.1h0.4c2-2.8,4.3-4.9,7-6.1c2.7-1.3,5.7-1.9,9.2-1.9c6.8,0,12.1,2.3,15.8,7s5.6,11.2,5.6,19.7s-1.9,15-5.7,19.7
	C634.6,171.3,629.3,173.6,622.6,173.6L622.6,173.6z M621.5,126.8c-5.3,0-9.1,1.5-11.4,4.4c-2.4,2.9-3.6,7.6-3.6,13.9v1.7
	c0,7.2,1.2,12.4,3.6,15.5s6.3,4.7,11.6,4.7c4.5,0,7.9-1.8,10.5-5.4c2.5-3.6,3.8-8.6,3.8-14.9c0-6.4-1.3-11.4-3.8-14.8
	C629.6,128.6,626,126.8,621.5,126.8z M662.1,172.7h-7.8V99.5h7.8V172.7z M706.9,172.7l-1.6-7.3H705c-2.6,3.2-5.1,5.4-7.7,6.6
	c-2.6,1.1-5.7,1.7-9.6,1.7c-5.1,0-9.1-1.3-12-3.9c-2.9-2.6-4.3-6.4-4.3-11.2c0-10.4,8.3-15.9,25-16.4l8.7-0.3v-3.2c0-4-0.9-7-2.6-9
	c-1.7-1.9-4.5-2.9-8.3-2.9c-4.3,0-9.2,1.3-14.6,3.9l-2.4-6c2.5-1.4,5.3-2.5,8.3-3.2c3-0.8,6.1-1.2,9.1-1.2c6.1,0,10.7,1.4,13.7,4.1
	s4.4,7.1,4.4,13.1v35.2L706.9,172.7L706.9,172.7L706.9,172.7z M689.3,167.2c4.9,0,8.7-1.3,11.4-4c2.8-2.7,4.2-6.4,4.2-11.2v-4.7
	l-7.8,0.3c-6.2,0.2-10.7,1.2-13.4,2.9s-4.1,4.4-4.1,8c0,2.8,0.9,5,2.6,6.4C683.8,166.5,686.2,167.2,689.3,167.2L689.3,167.2z
	 M717.3,121.2h8.4l11.3,29.4c2.5,6.7,4,11.6,4.6,14.5h0.4c0.4-1.6,1.3-4.3,2.6-8.2s5.6-15.8,12.8-35.7h8.4l-22.2,58.7
	c-2.2,5.8-4.8,9.9-7.7,12.3c-2.9,2.4-6.5,3.6-10.8,3.6c-2.4,0-4.7-0.3-7.1-0.8v-6.3c1.7,0.4,3.7,0.6,5.8,0.6c5.4,0,9.2-3,11.5-9
	l2.9-7.3C738,173,717.3,121.2,717.3,121.2z M478,125.9c2.5,2.1,7.7,6.4,7.7,14.6c0,8-4.5,11.8-9.1,15.3c-1.4,1.4-3,2.9-3,5.3
	c0,2.4,1.6,3.7,2.8,4.6l3.9,3c4.7,4,9,7.7,9,15.1c0,10.1-9.8,20.4-28.3,20.4c-15.6,0-23.2-7.4-23.2-15.4c0-3.9,1.9-9.4,8.3-13.2
	c6.7-4.1,15.7-4.6,20.6-5c-1.5-1.9-3.2-4-3.2-7.3c0-1.8,0.5-2.9,1.1-4.2c-1.2,0.1-2.4,0.2-3.5,0.2c-11.4,0-17.9-8.5-17.9-16.9
	c0-5,2.3-10.5,6.9-14.4c6.1-5.1,13.5-5.9,19.3-5.9h22.2l-6.9,3.9L478,125.9L478,125.9L478,125.9z M470.3,173.8
	c-0.9-0.1-1.4-0.1-2.5-0.1c-1,0-6.8,0.2-11.3,1.7c-2.4,0.9-9.3,3.4-9.3,11.1c0,7.6,7.4,13.2,19,13.2c10.3,0,15.8-5,15.8-11.6
	C482.1,182.5,478.5,179.6,470.3,173.8L470.3,173.8z M473.5,153.3c2.5-2.5,2.7-5.9,2.7-7.9c0-7.8-4.6-19.8-13.6-19.8
	c-2.8,0-5.8,1.4-7.5,3.6c-1.8,2.3-2.4,5.2-2.4,8c0,7.2,4.2,19.2,13.5,19.2C468.8,156.3,471.7,155,473.5,153.3L473.5,153.3z
	 M410.1,172.1c-17.1,0-26.3-13.3-26.3-25.4c0-14.1,11.5-26.1,27.9-26.1c15.8,0,25.7,12.4,25.7,25.4
	C437.5,158.6,427.7,172.1,410.1,172.1L410.1,172.1z M423.6,163.4c2.6-3.4,3.2-7.8,3.2-12c0-9.5-4.5-27.6-17.9-27.6
	c-3.6,0-7.1,1.4-9.7,3.7c-4.2,3.8-5,8.5-5,13.1c0,10.6,5.3,28.2,18.3,28.2C416.8,168.8,421.1,166.8,423.6,163.4L423.6,163.4z
	 M351.8,172.1c-17.1,0-26.3-13.3-26.3-25.4c0-14.1,11.5-26.1,27.9-26.1c15.8,0,25.7,12.4,25.7,25.4
	C379.1,158.6,369.3,172.1,351.8,172.1z M365.3,163.4c2.6-3.4,3.2-7.8,3.2-12c0-9.5-4.5-27.6-17.9-27.6c-3.5,0-7.1,1.4-9.7,3.7
	c-4.2,3.8-5,8.5-5,13.1c0,10.6,5.3,28.2,18.3,28.2C358.5,168.8,362.8,166.8,365.3,163.4z M317.3,170.4l-15.5,3.6
	c-6.3,1-11.9,1.8-17.9,1.8c-29.9,0-41.2-22-41.2-39.2c0-21,16.1-40.5,43.7-40.5c5.8,0,11.5,0.9,16.6,2.3c8.1,2.3,11.9,5.1,14.3,6.7
	l-9,8.5l-3.8,0.9l2.7-4.3c-3.7-3.6-10.4-10.2-23.2-10.2c-17.1,0-30,13-30,31.9c0,20.3,14.7,39.5,38.3,39.5c6.9,0,10.5-1.4,13.7-2.7
	v-17.4l-16.3,0.9l8.7-4.7h22.9l-2.8,2.7c-0.8,0.7-0.9,0.9-1.1,1.7c-0.1,1-0.2,4.1-0.2,5.2L317.3,170.4L317.3,170.4L317.3,170.4z"/>
<path class="st0" d="M512.2,167.3c-3.6-0.3-4.3-1-4.3-5.2v-61.2c0-0.2,0-0.5,0.1-0.7c0.4-3.8,1.5-4.4,4.9-6.4h-15.5l-8.1,3.9h8.3
	l0,0l0,0v66.8c0,2.2-0.4,2.5-2.9,5.7h19.2l4-2.4C515.9,167.6,514,167.5,512.2,167.3L512.2,167.3z M556.2,168.3
	c-1.2,0.6-2.4,1.4-3.5,1.9c-3.6,1.6-7.2,2-10.4,2c-3.4,0-8.8-0.2-14.3-4.2c-7.6-5.4-11-14.6-11-22.7c0-16.7,13.5-24.8,24.6-24.8
	c3.9,0,7.9,1,11.1,3c5.4,3.5,6.8,8.2,7.5,10.6L535,144.4l-8.3,0.6c2.7,13.6,11.9,21.6,22.1,21.6c5.5,0,9.5-1.9,13.1-3.8L556.2,168.3
	L556.2,168.3z M546.1,136.2c2-0.7,3.1-1.4,3.1-2.9c0-4.3-4.8-9.2-10.6-9.2c-4.3,0-12.4,3.3-12.4,14.9c0,1.8,0.2,3.8,0.3,5.7
	L546.1,136.2L546.1,136.2z M566.6,121.3v7.1h-0.9v-7.1h-2.3v-0.7h5.6v0.7L566.6,121.3L566.6,121.3z M576.3,128.4v-7.2l0,0l-2.2,7.2
	h-0.7l-2.2-7.2l0,0v7.2h-0.8v-7.8h1.3l2,6.3l0,0l2-6.3h1.4v7.8H576.3L576.3,128.4z"/>
<path class="st0" d="M264.3,75.1h-5.4c0-0.7-0.5-2.8-1.5-6.3h-7.8c-1.1,3.4-1.6,5.5-1.6,6.3h-5c0-0.4,1.3-4,3.9-10.8
	c2.6-6.7,3.9-10.4,3.9-11.1h6.4c0,0.6,1.2,4.3,3.6,11S264.3,74.5,264.3,75.1z M256.5,65.6c-1.9-5.8-2.9-8.9-2.9-9.4h-0.3
	c0,0.4-1,3.6-3,9.4C250.4,65.6,256.5,65.6,256.5,65.6z M285.9,75.1h-4.1c0-0.5-1.5-2.9-4.6-7.3c-3.2-4.6-5.1-7.8-5.5-9.5h-0.3
	c0.3,2.5,0.4,4.7,0.4,6.7c0,2.8,0.1,6.1,0.2,10.1h-4.1c0.2-3.5,0.3-7.3,0.3-11.4s-0.1-7.6-0.3-10.4h5c0,0.6,1.4,3,4.1,7.1
	c2.9,4.4,4.6,7.4,5.1,9h0.3c-0.3-2.5-0.4-4.7-0.4-6.7c0-3-0.1-6.1-0.2-9.3h4.2c-0.2,2.8-0.2,6.3-0.2,10.4
	C285.7,67.9,285.8,71.7,285.9,75.1z M310.3,63.4c0,3.2-1,6-3.1,8.3c-2,2.4-4.9,3.6-8.6,3.6c-1.7,0-3.9-0.1-6.9-0.2
	c0.1-3.4,0.2-7.2,0.2-11.4c0-4.1-0.1-7.6-0.2-10.4h2.9c0.5,0,1.2,0,2.2-0.1c1,0,1.6-0.1,1.9-0.1c4,0,7,1,8.8,3
	C309.4,58.2,310.3,60.6,310.3,63.4z M305.7,64.1c0-2.2-0.6-4-1.9-5.4c-1.3-1.5-3.2-2.2-5.7-2.2c-0.5,0-1.1,0.1-2,0.2
	c0.1,2.2,0.2,4.6,0.2,7c0,2.7,0.1,5.3,0.2,8c0.7,0.1,1.5,0.2,2.2,0.2c2.4,0,4.2-0.7,5.4-2.2C305.1,68.1,305.7,66.3,305.7,64.1
	L305.7,64.1z M332.7,75.1h-5c-1.3-4-2.3-6.4-3-7.3s-1.8-1.4-3.4-1.4c-0.7,0-1.3,0-1.9,0c0,2.9,0,5.8,0.2,8.7H315
	c0.1-3.4,0.2-7.2,0.2-11.4c0-4.1-0.1-7.6-0.2-10.4h2.9c0.3,0,1,0,2.1-0.1c1.1,0,2.1-0.1,3-0.1c5.1,0,7.7,1.8,7.7,5.3
	c0,2.8-1.5,4.7-4.4,5.8v0.3c1.1,0.3,2.1,1.2,3,2.6C330.1,68.6,331.3,71.2,332.7,75.1z M326.4,59.6c0-2.2-1.4-3.3-4.3-3.3
	c-1.1,0-2,0.1-2.8,0.2c0.1,1.7,0.2,4,0.2,6.8c0.6,0,1.1,0,1.6,0C324.6,63.4,326.4,62.1,326.4,59.6z M356.8,63.8
	c0,3.4-1.1,6.3-3.2,8.6s-4.7,3.4-7.8,3.4c-3,0-5.4-1-7.4-3.1s-3-4.7-3-7.9c0-3.4,1.1-6.3,3.2-8.6s4.7-3.4,7.8-3.4c3,0,5.4,1,7.4,3.1
	C355.8,57.9,356.8,60.5,356.8,63.8z M352.2,64.2c0-2.3-0.6-4.2-1.8-5.7c-1.2-1.5-2.7-2.2-4.4-2.2c-1.6,0-3,0.7-4.2,2.2
	c-1.1,1.5-1.7,3.3-1.7,5.6s0.6,4.2,1.8,5.7c1.2,1.5,2.7,2.2,4.4,2.2c1.6,0,3-0.7,4.2-2.2C351.6,68.3,352.2,66.5,352.2,64.2
	L352.2,64.2z M366.3,75.1h-4.8c0.1-3.5,0.2-7.3,0.2-11.4s-0.1-7.6-0.2-10.4h4.8c-0.1,2.8-0.2,6.3-0.2,10.4
	C366.1,67.9,366.2,71.7,366.3,75.1z M390.7,63.4c0,3.2-1,6-3.1,8.3c-2,2.4-4.9,3.6-8.6,3.6c-1.7,0-3.9-0.1-6.9-0.2
	c0.1-3.4,0.2-7.2,0.2-11.4c0-4.1-0.1-7.6-0.2-10.4h2.9c0.5,0,1.2,0,2.2-0.1c1,0,1.6-0.1,1.9-0.1c4,0,7,1,8.8,3
	C389.8,58.2,390.7,60.6,390.7,63.4z M386.1,64.1c0-2.2-0.6-4-1.9-5.4c-1.3-1.5-3.2-2.2-5.7-2.2c-0.5,0-1.1,0.1-2,0.2
	c0.1,2.2,0.2,4.6,0.2,7c0,2.7,0.1,5.3,0.2,8c0.7,0.1,1.5,0.2,2.2,0.2c2.4,0,4.2-0.7,5.4-2.2C385.5,68.1,386.1,66.3,386.1,64.1z
	 M423,75.1h-5.4c0-0.7-0.5-2.8-1.5-6.3h-7.8c-1.1,3.4-1.6,5.5-1.6,6.3h-5.1c0-0.4,1.3-4,3.9-10.8c2.6-6.7,3.9-10.4,3.9-11.1h6.4
	c0,0.6,1.2,4.3,3.6,11S423,74.5,423,75.1L423,75.1z M415.2,65.6c-1.9-5.8-2.9-8.9-2.9-9.4H412c0,0.4-1,3.6-3,9.4
	C409.1,65.6,415.2,65.6,415.2,65.6z M442.6,59c0,2.7-1,4.7-3,5.9c-2,1.3-4.4,1.9-7.3,1.9c-0.5,0-0.9,0-1.1,0c0,2.1,0.1,4.9,0.2,8.3
	h-4.7c0.1-3.2,0.2-7.1,0.2-11.4c0-4-0.1-7.5-0.2-10.4h2.9c0.4,0,1.2,0,2.4-0.1c1.2,0,2.2-0.1,3.1-0.1c2.1,0,3.9,0.5,5.4,1.4
	C441.8,55.5,442.6,57,442.6,59z M438.2,59.9c0-2.4-1.6-3.6-4.8-3.6c-0.8,0-1.6,0.1-2.5,0.3c0.1,2.1,0.2,4.5,0.2,7.2c0.3,0,0.6,0,1,0
	C436.2,63.8,438.2,62.5,438.2,59.9z M462.7,59c0,2.7-1,4.7-3,5.9c-2,1.3-4.4,1.9-7.3,1.9c-0.5,0-0.9,0-1.1,0c0,2.1,0.1,4.9,0.2,8.3
	h-4.7c0.1-3.2,0.2-7.1,0.2-11.4c0-4-0.1-7.5-0.2-10.4h2.9c0.4,0,1.2,0,2.4-0.1c1.2,0,2.2-0.1,3.1-0.1c2.1,0,3.9,0.5,5.4,1.4
	C462,55.5,462.7,57,462.7,59L462.7,59z M458.4,59.9c0-2.4-1.6-3.6-4.8-3.6c-0.8,0-1.6,0.1-2.5,0.3c0.1,2.1,0.2,4.5,0.2,7.2
	c0.3,0,0.6,0,1,0C456.3,63.8,458.4,62.5,458.4,59.9z M495.7,63.8c0,3.4-1.1,6.3-3.2,8.6s-4.7,3.4-7.8,3.4c-3,0-5.4-1-7.4-3.1
	s-3-4.7-3-7.9c0-3.4,1.1-6.3,3.2-8.6s4.7-3.4,7.8-3.4c3,0,5.4,1,7.4,3.1C494.7,57.9,495.7,60.5,495.7,63.8z M491,64.2
	c0-2.3-0.6-4.2-1.8-5.7c-1.2-1.5-2.7-2.2-4.4-2.2c-1.6,0-3,0.7-4.2,2.2c-1.1,1.5-1.7,3.3-1.7,5.6s0.6,4.2,1.8,5.7
	c1.2,1.5,2.7,2.2,4.4,2.2c1.6,0,3-0.7,4.2-2.2C490.5,68.3,491,66.5,491,64.2z M518.4,75.1h-4.1c0-0.5-1.5-2.9-4.6-7.3
	c-3.2-4.6-5.1-7.8-5.5-9.5h-0.3c0.3,2.5,0.4,4.7,0.4,6.7c0,2.8,0.1,6.1,0.2,10.1h-4.1c0.2-3.5,0.3-7.3,0.3-11.4s-0.1-7.6-0.3-10.4h5
	c0,0.6,1.4,3,4.1,7.1c2.9,4.4,4.6,7.4,5.1,9h0.3c-0.3-2.5-0.4-4.7-0.4-6.7c0-3-0.1-6.1-0.2-9.3h4.2c-0.2,2.8-0.2,6.3-0.2,10.4
	C518.2,67.9,518.3,71.7,518.4,75.1z"/>
</svg>
