<?xml version="1.0" encoding="utf-8"?>
<!-- Generator: Adobe Illustrator 28.0.0, SVG Export Plug-In . SVG Version: 6.00 Build 0)  -->
<svg version="1.1" id="Calque_1" xmlns="http://www.w3.org/2000/svg" xmlns:xlink="http://www.w3.org/1999/xlink" x="0px" y="0px"
	 viewBox="0 0 615.7 693.8" style="enable-background:new 0 0 615.7 693.8;" xml:space="preserve">
<style type="text/css">
	.st0{fill:#FFFFFF;}
</style>
<path class="st0" d="M392.6,312.4V107.8C392.6,45.9,351.1,0,291.5,0C232.9,0,190,44.2,190,104.1v5.4L392.6,312.4z M571.7,620.4
	c10,10,26.5,10,36.2,0c10.4-9.7,10.4-26.4,0-36.5L48,24.1c-10-10-27.1-10-36.8,0c-9.7,10-9.7,26.8,0,36.5L571.7,620.4z M135.1,643.2
	c-13.4,0-25.4,12.1-25.4,25.4c0,13.4,12.1,25.1,25.4,25.1h312.4c13.4,0,25.4-11.7,25.4-25.1c0-13.4-12.1-25.4-25.4-25.4H316.6v-73.3
	c42.5-3.7,79.7-17.4,110.2-38.8l-35.8-35.8c-27.1,18.1-60.9,28.5-99.4,28.5c-105.1,0-178.5-75-178.5-177.1v-77.7
	c0-15.7-10-25.4-24.8-25.4s-24.4,9.7-24.4,25.4v77.7c0,122.5,80.4,212.6,202.2,223.3v73.3H135.1z M518.8,268.9
	c0-15.7-9.7-25.4-24.4-25.4c-14.7,0-24.8,9.7-24.8,25.4v77.7c0,13.4-1.3,26.1-4,38.8l40.8,40.5c8-24.4,12.4-50.9,12.4-79.4V268.9z
	 M337.7,442L190,294.3v52.6c0,61.6,41.5,107.8,101.5,107.8C309.2,454.7,324.6,450,337.7,442z"/>
</svg>
