<svg xmlns="http://www.w3.org/2000/svg" width="27.705" height="26" viewBox="0 0 27.705 26">
  <g id="Object" transform="translate(-504.8 -414)">
    <g id="Groupe_170" data-name="Groupe 170" transform="translate(504.8 414)">
      <path id="Tracé_282" data-name="Tracé 282" d="M525.634,446.561a12.138,12.138,0,0,0,2.556,3.171c.283.258.7.614,1.143.971h-.012c.9.737,1.88,1.487,1.88,1.487h0a.012.012,0,0,1,.012.012c.012,0,2.249-1.585,3.134-2.347a12.245,12.245,0,0,0,2.679-3.073,3.845,3.845,0,0,0-2.8-5.727,2.812,2.812,0,0,0-2.8,1.389c-.307-.946-1.966-1.561-3.048-1.487C525.5,441.129,524.467,444.362,525.634,446.561Zm3.06-.516a.123.123,0,0,1,.123-.123h1.868v-1.856a.123.123,0,0,1,.123-.123h1.057a.123.123,0,0,1,.123.123v1.868h1.856a.123.123,0,0,1,.123.123v1.057a.123.123,0,0,1-.123.123h-1.868v1.856a.1.1,0,0,1-.037.086.112.112,0,0,1-.086.037H530.8a.123.123,0,0,1-.123-.123v-1.868h-1.856a.1.1,0,0,1-.086-.037.111.111,0,0,1-.037-.086Z" transform="translate(-522.66 -437.639)" fill="#fff"/>
      <path id="Tracé_283" data-name="Tracé 283" d="M529.564,415.155a3.095,3.095,0,0,0-.725,6.133l-.332,6.477a.513.513,0,0,0-.369.467c-.012.369-.049.75-.086,1.118-.049.406-.1.8-.172,1.2-.025.111-.037.233-.061.344v.037c-.012.061-.025.135-.037.2-.061.258-.111.5-.184.762a13.766,13.766,0,0,1-1.253,3.22c-.025.049-.061.1-.086.16.012-.025-.049.086-.074.123l-.258.406a7.549,7.549,0,0,1-.553.725c-.1.111-.184.221-.283.32l-.147.148-.1.1-.049.049a7.365,7.365,0,0,1-.676.553c-.123.086-.246.172-.369.246l-.184.111c.16-.1-.1.049-.148.074a6.717,6.717,0,0,1-.909.381c-.037.012-.061.025-.1.037H522.4c-.074.025-.147.037-.221.061a4.218,4.218,0,0,1-.541.111c-.172.025-.344.049-.516.061h-.111c-.111,0-.234.012-.344.012a10.086,10.086,0,0,1-1.217-.061h-.012c-.037,0-.074-.012-.111-.012l-.258-.037c-.2-.037-.393-.086-.59-.135-.16-.037-.307-.086-.455-.135H518c-.037-.012-.061-.025-.1-.037-.1-.037-.184-.074-.283-.111l-.406-.184c-.074-.037-.148-.074-.209-.111-.037-.025-.234-.135-.184-.111a7.349,7.349,0,0,1-.7-.516c-.1-.086-.209-.184-.295-.27l-.111-.111c-.049-.049-.1-.111-.147-.16a7.429,7.429,0,0,1-1-1.45c0-.012-.012-.025-.012-.037s-.012-.037-.025-.037c-.025-.061-.061-.123-.086-.172-.061-.135-.123-.283-.184-.418-.111-.27-.209-.541-.307-.811-.025-.061-.037-.123-.061-.184a7.062,7.062,0,0,0,3.675-1.413c3.208-2.433,4.56-6.686,4.572-10.582.012-2.163,0-4.338,0-6.5a.773.773,0,0,0-.774-.787h-1.573V414h-2.077a.383.383,0,0,0-.381.381v.762a.383.383,0,0,0,.381.381h2.077v-.356h.725v5.973c0,3.122-.639,6.4-2.79,8.8a6,6,0,0,1-3.773,2.126,5.392,5.392,0,0,1-3.982-1.376c-2.556-2.224-3.539-5.8-3.539-9.082V415.18h.639v.356h2.077a.383.383,0,0,0,.381-.381v-.762a.383.383,0,0,0-.381-.381h-2.077v.406h-1.536a.232.232,0,0,0-.1.025.746.746,0,0,0-.639.774v6.206a14.262,14.262,0,0,0,3.453,9.893,7.627,7.627,0,0,0,4.092,2.31,8.723,8.723,0,0,0,2.851,4.646,8.835,8.835,0,0,0,8.9.934,9.6,9.6,0,0,0,4.646-5.985,19.949,19.949,0,0,0,.725-3.134,12.833,12.833,0,0,0,.172-1.671v-.074a.5.5,0,0,0-.295-.455l.332-6.477a3.084,3.084,0,0,0,2.827-2.925A3.119,3.119,0,0,0,529.564,415.155Zm1.966,3.2a2.115,2.115,0,0,1-1.819,1.991l.037-.8-.823-.037-.037.8a2.123,2.123,0,1,1,2.642-1.954Z" transform="translate(-504.8 -414)" fill="#fff"/>
      <path id="Tracé_284" data-name="Tracé 284" d="M699.752,443.19a.726.726,0,1,0,.688.762A.728.728,0,0,0,699.752,443.19Z" transform="translate(-675.123 -439.602)" fill="#fff"/>
    </g>
  </g>
</svg>
