<?xml version="1.0" encoding="iso-8859-1"?>
<!-- Uploaded to: SVG Repo, www.svgrepo.com, Generator: SVG Repo Mixer Tools -->
<!DOCTYPE svg PUBLIC "-//W3C//DTD SVG 1.1//EN" "http://www.w3.org/Graphics/SVG/1.1/DTD/svg11.dtd">
<svg fill="#fff" height="800px" width="800px" version="1.1" id="Capa_1" xmlns="http://www.w3.org/2000/svg" xmlns:xlink="http://www.w3.org/1999/xlink" 
	 viewBox="0 0 395 395" xml:space="preserve">
<g>
	<path d="M208.725,200.504c1.07-1.249,1.973-2.68,2.441-4.267c1.071-3.552-0.173-7.264-2-10.335
		C209.02,190.77,208.871,195.637,208.725,200.504z"/>
	<path d="M188.014,135.916c-1.652,1.903-3.096,4.052-3.988,6.419c-1.99,5.464,1.03,10.126,5.204,13.524
		c0.757,0.621,1.556,1.189,2.368,1.736c-0.119-3.921-0.236-7.843-0.355-11.764c-0.146-4.856-1.067-10.24,2.877-13.956
		C191.67,132.903,189.783,133.878,188.014,135.916z"/>
	<path d="M334.83,171.757c0.355-1.134,0.247-2.366-0.302-3.422l-34.602-66.415c-1.144-2.199-3.855-3.052-6.054-1.907l-54.439,28.36
		V66.989c0-2.479-2.01-4.489-4.489-4.489h-74.89c-2.479,0-4.489,2.01-4.489,4.489v61.385l-54.438-28.36
		c-2.2-1.146-4.908-0.293-6.053,1.907l-34.603,66.415c-0.549,1.056-0.657,2.288-0.302,3.422c0.359,1.135,1.154,2.083,2.209,2.633
		l44.361,23.11l-44.361,23.11c-1.055,0.55-1.85,1.498-2.209,2.633c-0.355,1.134-0.247,2.366,0.302,3.422l34.603,66.415
		c1.145,2.198,3.852,3.052,6.053,1.907l54.438-28.36v61.385c0,2.479,2.011,4.488,4.489,4.488h74.89c2.479,0,4.489-2.01,4.489-4.488
		v-61.385l54.439,28.36c2.199,1.145,4.91,0.29,6.054-1.907l34.602-66.415c0.549-1.056,0.657-2.288,0.302-3.422
		c-0.359-1.135-1.154-2.083-2.211-2.633L288.26,197.5l44.359-23.11C333.676,173.84,334.471,172.893,334.83,171.757z
		 M218.637,205.579c-1.66,2.451-3.762,4.568-6.089,6.388c-1.23,0.962-2.525,1.84-3.862,2.646c-0.408,0.245-0.389,0.094-0.396,0.33
		c-0.093,3.075-0.186,6.149-0.278,9.224c-0.507,16.765-1.013,33.529-1.518,50.294c-0.072,2.384-0.145,4.768-0.216,7.152
		c-0.087,2.85-0.942,5.668-4.124,6.48c-3.166,0.808-6.408-1.465-6.744-4.713c-0.109-1.064-0.079-2.156-0.111-3.225
		c-0.127-4.208-0.254-8.416-0.381-12.624c-0.018-0.588-0.035-1.176-0.053-1.763c-0.02-0.656-1.085-1.053-1.563-1.399
		c-2.743-2.039-5.378-4.226-7.81-6.629c-5.629-5.564-10.369-12.667-10.611-20.824c-0.246-8.288,4.328-15.534,10.302-20.91
		c1.522-1.37,3.14-2.631,4.821-3.798c0.393-0.273,3.19-1.757,3.18-2.095c-0.02-0.648-0.039-1.296-0.059-1.944
		c-0.24-7.971-0.48-15.942-0.722-23.913c-0.111-3.694-0.224-7.388-0.335-11.081c-0.027-0.895-0.054-1.789-0.08-2.683
		c-0.016-0.501-0.293-0.482-0.783-0.786c-1.629-1.008-3.303-1.94-4.9-2.998c-6.572-4.34-12.722-10.646-13.471-18.88
		c-0.775-7.772,3.369-14.621,8.293-20.239c2.452-2.799,3.877-6.474,6.797-8.854c2.311-1.882,5.59-3.523,8.654-3.374
		c3.148,0.16,5.766,2.719,5.983,5.866c0.235,3.39-2.476,6.479-4.903,8.505c6.704-2.288,13.109,3.134,12.905,9.932
		c-0.227,7.535-0.455,15.07-0.683,22.604c-0.078,2.618-0.158,5.236-0.236,7.854c-0.016,0.54,2.143,2.105,2.566,2.537
		c1.389,1.418,2.699,2.913,3.899,4.494c2.364,3.119,4.332,6.599,5.399,10.381c-1.032-3.658,1.053,3.616,0,0
		C223.304,193.704,222.23,200.27,218.637,205.579z"/>
	<path d="M313.002,0H82C36.785,0,0,36.784,0,81.998v230.993C0,358.211,36.785,395,82,395h231.002
		C358.216,395,395,358.211,395,312.991V81.998C395,36.784,358.216,0,313.002,0z M380,312.991C380,349.94,349.944,380,313.002,380H82
		c-36.944,0-67-30.06-67-67.009V81.998C15,45.055,45.056,15,82,15h231.002C349.944,15,380,45.055,380,81.998V312.991z"/>
</g>
</svg>