<?xml version="1.0" encoding="UTF-8"?>
<svg id="Capa_1" xmlns="http://www.w3.org/2000/svg" version="1.1" viewBox="0 0 800 800">
  <!-- Generator: Adobe Illustrator 29.0.1, SVG Export Plug-In . SVG Version: 2.1.0 Build 192)  -->
  <defs>
    <style>
      .st0 {
        fill: none;
      }

      .st1 {
        fill: #2ac100;
      }
    </style>
  </defs>
  <path class="st0" d="M422.7,406.1c2.2-2.5,4-5.4,4.9-8.6,2.2-7.2-.4-14.7-4.1-20.9-.3,9.9-.6,19.7-.9,29.6Z"/>
  <path class="st0" d="M380.8,275.3c-3.3,3.9-6.3,8.2-8.1,13-4,11.1,2.1,20.5,10.5,27.4,1.5,1.3,3.2,2.4,4.8,3.5-.2-7.9-.5-15.9-.7-23.8-.3-9.8-2.2-20.7,5.8-28.3-5,2.1-8.8,4.1-12.4,8.2Z"/>
  <path class="st1" d="M678.1,347.9c.7-2.3.5-4.8-.6-6.9l-70.1-134.5c-2.3-4.5-7.8-6.2-12.3-3.9l-110.3,57.4v-124.3c0-5-4.1-9.1-9.1-9.1h-151.7c-5,0-9.1,4.1-9.1,9.1v124.3l-110.3-57.4c-4.5-2.3-9.9-.6-12.3,3.9l-70.1,134.5c-1.1,2.1-1.3,4.6-.6,6.9.7,2.3,2.3,4.2,4.5,5.3l89.8,46.8-89.8,46.8c-2.1,1.1-3.7,3-4.5,5.3-.7,2.3-.5,4.8.6,6.9l70.1,134.5c2.3,4.5,7.8,6.2,12.3,3.9l110.3-57.4v124.3c0,5,4.1,9.1,9.1,9.1h151.7c5,0,9.1-4.1,9.1-9.1v-124.3l110.3,57.4c4.5,2.3,9.9.6,12.3-3.9l70.1-134.5c1.1-2.1,1.3-4.6.6-6.9-.7-2.3-2.3-4.2-4.5-5.3l-89.8-46.8,89.8-46.8c2.1-1.1,3.8-3,4.5-5.3ZM442.8,416.4c-3.4,5-7.6,9.3-12.3,12.9-2.5,1.9-5.1,3.7-7.8,5.4-.8.5-.8.2-.8.7-.2,6.2-.4,12.5-.6,18.7-1,34-2.1,67.9-3.1,101.9-.1,4.8-.3,9.7-.4,14.5-.2,5.8-1.9,11.5-8.4,13.1-6.4,1.6-13-3-13.7-9.5-.2-2.2-.2-4.4-.2-6.5-.3-8.5-.5-17-.8-25.6,0-1.2,0-2.4-.1-3.6,0-1.3-2.2-2.1-3.2-2.8-5.6-4.1-10.9-8.6-15.8-13.4-11.4-11.3-21-25.7-21.5-42.2-.5-16.8,8.8-31.5,20.9-42.3,3.1-2.8,6.4-5.3,9.8-7.7.8-.6,6.5-3.6,6.4-4.2,0-1.3,0-2.6-.1-3.9-.5-16.1-1-32.3-1.5-48.4-.2-7.5-.5-15-.7-22.4,0-1.8-.1-3.6-.2-5.4,0-1-.6-1-1.6-1.6-3.3-2-6.7-3.9-9.9-6.1-13.3-8.8-25.8-21.6-27.3-38.2-1.6-15.7,6.8-29.6,16.8-41,5-5.7,7.9-13.1,13.8-17.9,4.7-3.8,11.3-7.1,17.5-6.8,6.4.3,11.7,5.5,12.1,11.9.5,6.9-5,13.1-9.9,17.2,13.6-4.6,26.5,6.3,26.1,20.1-.5,15.3-.9,30.5-1.4,45.8-.2,5.3-.3,10.6-.5,15.9,0,1.1,4.3,4.3,5.2,5.1,2.8,2.9,5.5,5.9,7.9,9.1,4.8,6.3,8.8,13.4,10.9,21-2.1-7.4,2.1,7.3,0,0,3.6,12.5,1.5,25.8-5.8,36.5Z"/>
  <path class="st1" d="M633.9,0H166.1C74.5,0,0,74.5,0,166.1v467.8c0,91.6,74.5,166.1,166.1,166.1h467.9c91.6,0,166.1-74.5,166.1-166.1V166.1C800,74.5,725.5,0,633.9,0ZM769.6,633.9c0,74.8-60.9,135.7-135.7,135.7H166.1c-74.8,0-135.7-60.9-135.7-135.7V166.1c0-74.8,60.9-135.7,135.7-135.7h467.9c74.8,0,135.7,60.9,135.7,135.7v467.8Z"/>
</svg>