<?xml version="1.0" encoding="UTF-8"?>
<svg id="Capa_1" data-name="Capa 1" xmlns="http://www.w3.org/2000/svg" viewBox="0 0 800 800">
  <defs>
    <style>
      .cls-1 {
        fill: #32e800;
        stroke-width: 0px;
      }
    </style>
  </defs>
  <path class="cls-1" d="m422.73,406.08c2.17-2.53,4-5.43,4.94-8.64,2.17-7.19-.35-14.71-4.05-20.93-.3,9.86-.6,19.72-.89,29.57Z"/>
  <path class="cls-1" d="m380.79,275.27c-3.35,3.85-6.27,8.21-8.08,13-4.03,11.07,2.09,20.51,10.54,27.39,1.53,1.26,3.15,2.41,4.8,3.52-.24-7.94-.48-15.88-.72-23.83-.3-9.83-2.16-20.74,5.83-28.27-4.96,2.08-8.78,4.06-12.37,8.18Z"/>
  <path class="cls-1" d="m678.14,347.86c.72-2.3.5-4.79-.61-6.93l-70.08-134.51c-2.32-4.45-7.81-6.18-12.26-3.86l-110.26,57.44v-124.32c0-5.02-4.07-9.09-9.09-9.09h-151.68c-5.02,0-9.09,4.07-9.09,9.09v124.32l-110.25-57.44c-4.46-2.32-9.94-.59-12.26,3.86l-70.08,134.51c-1.11,2.14-1.33,4.63-.61,6.93.73,2.3,2.34,4.22,4.47,5.33l89.85,46.81-89.85,46.81c-2.14,1.11-3.75,3.03-4.47,5.33-.72,2.3-.5,4.79.61,6.93l70.08,134.51c2.32,4.45,7.8,6.18,12.26,3.86l110.25-57.44v124.32c0,5.02,4.07,9.09,9.09,9.09h151.68c5.02,0,9.09-4.07,9.09-9.09v-124.32l110.26,57.44c4.45,2.32,9.94.59,12.26-3.86l70.08-134.51c1.11-2.14,1.33-4.63.61-6.93-.73-2.3-2.34-4.22-4.48-5.33l-89.84-46.81,89.84-46.81c2.14-1.11,3.75-3.03,4.48-5.33Zm-235.33,68.5c-3.36,4.96-7.62,9.25-12.33,12.94-2.49,1.95-5.11,3.73-7.82,5.36-.83.5-.79.19-.8.67-.19,6.23-.38,12.45-.56,18.68-1.03,33.95-2.05,67.91-3.07,101.86-.15,4.83-.29,9.66-.44,14.49-.18,5.77-1.91,11.48-8.35,13.12-6.41,1.64-12.98-2.97-13.66-9.55-.22-2.15-.16-4.37-.22-6.53-.26-8.52-.51-17.05-.77-25.57-.04-1.19-.07-2.38-.11-3.57-.04-1.33-2.2-2.13-3.17-2.83-5.56-4.13-10.89-8.56-15.82-13.43-11.4-11.27-21-25.65-21.49-42.18-.5-16.79,8.77-31.46,20.86-42.35,3.08-2.77,6.36-5.33,9.76-7.69.8-.55,6.46-3.56,6.44-4.24-.04-1.31-.08-2.62-.12-3.94-.49-16.14-.97-32.29-1.46-48.43-.22-7.48-.45-14.96-.68-22.44-.05-1.81-.11-3.62-.16-5.43-.03-1.01-.59-.98-1.59-1.59-3.3-2.04-6.69-3.93-9.92-6.07-13.31-8.79-25.77-21.56-27.28-38.24-1.57-15.74,6.82-29.61,16.8-40.99,4.97-5.67,7.85-13.11,13.77-17.93,4.68-3.81,11.32-7.14,17.53-6.83,6.38.32,11.68,5.51,12.12,11.88.48,6.87-5.01,13.12-9.93,17.23,13.58-4.63,26.55,6.35,26.14,20.12-.46,15.26-.92,30.52-1.38,45.78-.16,5.3-.32,10.6-.48,15.91-.03,1.09,4.34,4.26,5.2,5.14,2.81,2.87,5.47,5.9,7.9,9.1,4.79,6.32,8.77,13.37,10.93,21.02-2.09-7.41,2.13,7.32,0,0,3.64,12.5,1.46,25.79-5.81,36.55Z"/>
  <path class="cls-1" d="m633.93,0H166.08C74.5,0,0,74.5,0,166.07v467.83c0,91.58,74.5,166.09,166.08,166.09h467.85c91.57,0,166.07-74.51,166.07-166.09V166.07C800,74.5,725.5,0,633.93,0Zm135.69,633.91c0,74.83-60.87,135.71-135.69,135.71H166.08c-74.82,0-135.7-60.88-135.7-135.71V166.07c0-74.82,60.87-135.69,135.7-135.69h467.85c74.82,0,135.69,60.87,135.69,135.69v467.83Z"/>
</svg>