<?xml version="1.0" encoding="UTF-8"?>
<svg id="Calque_1" data-name="Calque 1" xmlns="http://www.w3.org/2000/svg" viewBox="0 0 624.9 625">
  <defs>
    <style>
      .cls-1, .cls-2 {
        fill: #fff;
        stroke-width: 0px;
      }

      .cls-2 {
        fill-rule: evenodd;
      }
    </style>
  </defs>
  <path class="cls-1" d="m201.25,135.54l21.63,38.76c19.52,34.98,11.69,80.87-19.06,111.62h0s-37.29,37.3,30.33,104.92c67.6,67.6,104.9,30.35,104.92,30.33h0c30.75-30.75,76.64-38.59,111.62-19.06l38.76,21.63c52.83,29.48,59.06,103.56,12.63,149.99-27.9,27.9-62.08,49.61-99.86,51.04-63.6,2.41-171.62-13.68-279.97-122.04C13.9,394.39-2.19,286.37.22,222.77c1.43-37.78,23.14-71.96,51.04-99.86,46.43-46.43,120.51-40.19,149.99,12.63Z"/>
  <path class="cls-1" d="m308.65,20.99c2.21-13.63,15.09-22.88,28.72-20.67.84.16,3.56.67,4.98.99,2.85.63,6.81,1.61,11.76,3.05,9.89,2.88,23.71,7.63,40.3,15.23,33.21,15.23,77.4,41.86,123.26,87.72,45.86,45.86,72.49,90.05,87.72,123.26,7.61,16.59,12.35,30.41,15.23,40.3,1.44,4.95,2.42,8.91,3.05,11.76.32,1.42.55,2.56.71,3.41l.19,1.04c2.2,13.63-6.96,27.05-20.59,29.26-13.59,2.2-26.39-7-28.65-20.57-.07-.37-.26-1.34-.47-2.27-.41-1.85-1.12-4.77-2.25-8.65-2.26-7.74-6.17-19.26-12.68-33.44-12.99-28.34-36.36-67.48-77.62-108.75-41.26-41.26-80.4-64.63-108.74-77.62-14.19-6.51-25.7-10.42-33.45-12.68-3.87-1.13-8.74-2.24-10.58-2.66-13.57-2.26-23.09-15.13-20.89-28.72Z"/>
  <path class="cls-2" d="m316.19,135.98c3.79-13.28,17.63-20.96,30.91-17.17l-6.87,24.04,6.87-24.04h.05s.05.03.05.03l.11.03.26.08.66.21c.5.16,1.13.37,1.88.64,1.5.53,3.48,1.29,5.9,2.33,4.86,2.08,11.49,5.3,19.64,10.12,16.31,9.66,38.59,25.7,64.75,51.86,26.17,26.17,42.2,48.44,51.86,64.75,4.82,8.15,8.04,14.79,10.12,19.64,1.04,2.43,1.8,4.41,2.33,5.9.27.75.47,1.38.64,1.88l.2.66.08.26.03.11v.05s.03.05-24.01,6.92l24.04-6.87c3.79,13.28-3.9,27.11-17.17,30.91-13.16,3.76-26.88-3.76-30.81-16.83l-.12-.36c-.18-.5-.54-1.49-1.16-2.93-1.23-2.88-3.47-7.59-7.19-13.87-7.43-12.56-20.86-31.53-44.19-54.86-23.33-23.33-42.31-36.75-54.86-44.19-6.29-3.72-10.99-5.96-13.87-7.19-1.44-.62-2.43-.99-2.93-1.16l-.36-.12c-13.07-3.93-20.59-17.64-16.83-30.81Z"/>
</svg>