<?xml version="1.0" encoding="UTF-8"?>
<svg id="Calque_1" data-name="Calque 1" xmlns="http://www.w3.org/2000/svg" xmlns:xlink="http://www.w3.org/1999/xlink" viewBox="0 0 155.91 51">
  <defs>
    <style>
      .cls-1 {
        fill: #134888;
      }

      .cls-1, .cls-2, .cls-3 {
        stroke-width: 0px;
      }

      .cls-2 {
        fill: #32e800;
      }

      .cls-4 {
        clip-path: url(#clippath-2);
      }

      .cls-3 {
        fill: none;
      }

      .cls-5 {
        clip-path: url(#clippath-1);
      }

      .cls-6 {
        clip-path: url(#clippath);
      }

      .cls-7 {
        clip-path: url(#clippath-3);
      }
    </style>
    <clipPath id="clippath">
      <path class="cls-3" d="m33.79,22.45l-7.03-4.06-13.56-7.83c-.75-.43-1.5-.17-1.5.74v31.9c0,.68.54.97,1.19.6l13.87-8.01,7.03-4.06,6.76-3.9c.79-.46.72-1.09.05-1.45s-6.8-3.93-6.8-3.93h0Z"/>
    </clipPath>
    <clipPath id="clippath-1">
      <path class="cls-3" d="m33.79,22.45l-7.03-4.06-13.56-7.83c-.75-.43-1.5-.17-1.5.74v31.9c0,.68.54.97,1.19.6l13.87-8.01,7.03-4.06,6.76-3.9c.79-.46.72-1.09.05-1.45s-6.8-3.93-6.8-3.93h0Z"/>
    </clipPath>
    <clipPath id="clippath-2">
      <path class="cls-3" d="m33.79,22.45l-7.03-4.06-13.56-7.83c-.75-.43-1.5-.17-1.5.74v31.9c0,.68.54.97,1.19.6l13.87-8.01,7.03-4.06,6.76-3.9c.79-.46.72-1.09.05-1.45s-6.8-3.93-6.8-3.93h0Z"/>
    </clipPath>
    <clipPath id="clippath-3">
      <path class="cls-3" d="m33.79,22.45l-7.03-4.06-13.56-7.83c-.75-.43-1.5-.17-1.5.74v31.9c0,.68.54.97,1.19.6l13.87-8.01,7.03-4.06,6.76-3.9c.79-.46.72-1.09.05-1.45s-6.8-3.93-6.8-3.93h0Z"/>
    </clipPath>
  </defs>
  <g id="call_to_action" data-name="call to action">
    <g id="Logo_play_store" data-name="Logo play store">
      <path id="Tracé_336" data-name="Tracé 336" class="cls-1" d="m155.91,44.11c0,3.81-3.08,6.89-6.89,6.89H6.89C3.09,51,0,47.91,0,44.11V6.89C0,3.09,3.09,0,6.89,0h142.13c3.81,0,6.89,3.09,6.89,6.89v37.22h0Z"/>
      <g class="cls-6">
        <g id="Groupe_193" data-name="Groupe 193">
          <path id="Tracé_337" data-name="Tracé 337" class="cls-2" d="m11.69,9.82v34.54l17.42-17.27L11.69,9.82Z"/>
        </g>
      </g>
      <g class="cls-5">
        <g id="Groupe_194" data-name="Groupe 194">
          <path id="Tracé_339" data-name="Tracé 339" class="cls-2" d="m33.79,22.45l-5.27-3.04-1.77-1.02-15.06-8.7v.13l17.42,17.27,4.68-4.64Z"/>
        </g>
      </g>
      <g class="cls-4">
        <g id="Groupe_195" data-name="Groupe 195">
          <path id="Tracé_341" data-name="Tracé 341" class="cls-2" d="m11.69,44.36v.13l15.06-8.7,7.03-4.06-4.68-4.64-17.42,17.27Z"/>
        </g>
      </g>
      <g class="cls-7">
        <g id="Groupe_196" data-name="Groupe 196">
          <path id="Tracé_343" data-name="Tracé 343" class="cls-2" d="m33.79,22.45l-4.68,4.64,4.68,4.64,8.03-4.64-8.03-4.64Z"/>
        </g>
      </g>
      <path id="Tracé_345" data-name="Tracé 345" class="cls-2" d="m121.34,33.84c-.62,0-1.23-.12-1.79-.36-.54-.24-1.01-.63-1.36-1.11h-.11c.07.55.11,1.11.11,1.67v4.13h-1.52v-14.55h1.24l.21,1.38h.07c.34-.51.81-.92,1.37-1.19.56-.25,1.17-.38,1.79-.37,1.19-.06,2.33.44,3.08,1.37,1.45,2.35,1.45,5.33-.02,7.67-.75.92-1.88,1.43-3.07,1.37h0Zm-.22-9.12c-.83-.08-1.66.24-2.23.85-.53.8-.77,1.76-.71,2.71v.34c-.09,1.06.16,2.12.71,3.03.56.65,1.41.99,2.26.91.82.03,1.59-.37,2.04-1.05.54-.87.79-1.88.74-2.91.06-1.01-.19-2.02-.74-2.88-.48-.66-1.26-1.04-2.08-1h0Zm7.91,8.93h-1.52v-14.26h1.52v14.26Zm8.75,0l-.3-1.43h-.07c-.39.54-.91.98-1.5,1.28-.59.24-1.23.36-1.86.34-.85.05-1.69-.23-2.34-.77-.59-.57-.9-1.37-.85-2.19,0-2.03,1.62-3.09,4.87-3.19l1.7-.05v-.62c.05-.62-.13-1.25-.51-1.75-.44-.41-1.03-.62-1.63-.56-.99.04-1.96.3-2.84.77l-.47-1.16c.51-.28,1.06-.49,1.63-.63.58-.15,1.17-.23,1.77-.23.96-.08,1.91.21,2.66.8.64.69.95,1.62.87,2.56v6.85h-1.13,0Zm-3.44-1.07c.82.05,1.62-.23,2.23-.78.56-.58.86-1.37.81-2.18v-.91l-1.52.06c-.91-.03-1.8.17-2.62.57-.53.33-.84.93-.8,1.55-.03.47.15.93.5,1.26.4.31.89.46,1.4.43h0Zm5.45-8.97h1.63l2.2,5.73c.36.92.66,1.87.9,2.83h.07c.08-.31.25-.85.5-1.6s1.08-3.07,2.49-6.96h1.63l-4.32,11.44c-.29.92-.81,1.74-1.5,2.41-.59.48-1.34.73-2.1.71-.46,0-.92-.05-1.38-.16v-1.22c.37.08.75.11,1.13.11,1.06,0,1.98-.73,2.24-1.76l.56-1.43-4.05-10.1Zm-46.63.93c1.56,1.07,1.96,3.2.89,4.76-.3.44-.7.8-1.17,1.06-.33.25-.54.62-.59,1.03.03.37.23.71.55.9l.76.59c.92.78,1.76,1.49,1.76,2.94,0,1.97-1.91,3.97-5.53,3.97-3.05,0-4.52-1.45-4.52-3,.04-1.08.66-2.06,1.62-2.56,1.25-.63,2.62-.96,4.01-.97-.38-.38-.6-.89-.63-1.43,0-.29.08-.57.21-.82-.23.02-.46.04-.67.04-1.83.09-3.39-1.32-3.48-3.15,0-.05,0-.1,0-.15.02-1.09.51-2.11,1.34-2.82,1.08-.82,2.41-1.23,3.76-1.16h4.33l-1.34.76h-1.3Zm-1.49,9.33c-.16-.02-.32-.03-.48-.02-.75.01-1.49.13-2.21.34-1.01.24-1.75,1.12-1.81,2.16,0,1.49,1.45,2.56,3.7,2.56,2.02,0,3.09-.97,3.09-2.27,0-1.07-.69-1.64-2.29-2.77h0Zm.61-3.99c.37-.42.56-.97.52-1.53,0-1.51-.9-3.86-2.65-3.86-.57,0-1.1.26-1.47.69-.33.45-.49,1-.46,1.55,0,1.41.82,3.74,2.63,3.74.53-.01,1.04-.22,1.43-.59h0Zm-12.34,3.66c-2.73.09-5.02-2.05-5.11-4.78,0-.06,0-.12,0-.17.05-2.87,2.42-5.16,5.29-5.1.05,0,.09,0,.14,0,2.71-.06,4.95,2.08,5.01,4.79,0,.05,0,.11,0,.16-.01,2.83-2.32,5.12-5.15,5.1-.06,0-.12,0-.18,0h0Zm2.62-1.7c.46-.69.68-1.5.63-2.33,0-1.85-.88-5.37-3.48-5.37-.69,0-1.36.26-1.89.72-.69.66-1.05,1.6-.97,2.56,0,2.08,1.03,5.49,3.57,5.49.84,0,1.63-.4,2.14-1.07h0Zm-13.99,1.7c-2.73.09-5.02-2.05-5.12-4.78,0-.06,0-.11,0-.17.05-2.87,2.42-5.16,5.29-5.1.05,0,.09,0,.14,0,2.71-.06,4.95,2.08,5.01,4.79,0,.05,0,.11,0,.16-.01,2.83-2.31,5.11-5.14,5.1-.06,0-.12,0-.18,0h0Zm2.62-1.7c.46-.69.68-1.5.63-2.33,0-1.85-.88-5.37-3.48-5.37-.69,0-1.36.26-1.89.72-.69.66-1.05,1.6-.96,2.56,0,2.08,1.03,5.49,3.57,5.49.84,0,1.63-.4,2.14-1.07h0Zm-9.34,1.37l-3.02.7c-1.15.21-2.31.33-3.48.36-5.82,0-8.03-4.28-8.03-7.63,0-4.09,3.14-7.89,8.52-7.89,1.09,0,2.18.15,3.23.44,1,.26,1.95.7,2.78,1.31l-1.75,1.67-.74.17.53-.84c-1.15-1.27-2.79-1.99-4.51-1.98-3.33,0-5.84,2.53-5.84,6.22-.13,4.12,3.09,7.56,7.21,7.7.08,0,.17,0,.25,0,.92.02,1.84-.16,2.68-.53v-3.39l-3.18.17,1.69-.91h4.47l-.55.53c-.11.08-.19.2-.21.34-.02.19-.04.8-.04,1.01v2.56h0Z"/>
      <path id="Tracé_346" data-name="Tracé 346" class="cls-2" d="m99.82,32.6c-.7-.06-.84-.19-.84-1.01v-11.93s0-.09.01-.14c.08-.74.3-.86.95-1.24h-3.02l-1.58.76h1.61v13.02c0,.42-.08.48-.57,1.12h3.74l.78-.46c-.36-.04-.72-.06-1.08-.11h0Zm8.58.19c-.23.13-.46.27-.69.38-.64.28-1.33.41-2.03.4-.99.04-1.97-.24-2.78-.82-1.38-1.05-2.17-2.69-2.14-4.42-.05-2.62,2.03-4.79,4.65-4.84.05,0,.1,0,.15,0,.76,0,1.51.19,2.16.59.73.48,1.26,1.22,1.46,2.07l-4.92,1.99-1.61.12c.52,2.66,2.32,4.21,4.31,4.21.9-.03,1.78-.28,2.55-.73l-1.12,1.05Zm-1.97-6.24c.4-.15.61-.27.61-.57-.14-1.04-1.03-1.81-2.07-1.8-.84,0-2.41.65-2.41,2.91,0,.36.04.73.06,1.11l3.81-1.66Zm3.99-2.91v1.38h-.17v-1.38h-.46v-.14h1.08v.14h-.46Zm1.88,1.38v-1.4h0l-.43,1.4h-.13l-.43-1.4h0v1.39h-.15v-1.53h.26l.39,1.23h0l.38-1.23h.26v1.53h-.15Z"/>
      <path id="Tracé_347" data-name="Tracé 347" class="cls-2" d="m51.5,14.64h-1.05c-.06-.42-.16-.83-.3-1.23h-1.51c-.14.4-.25.81-.31,1.23h-.99c0-.09.26-.79.77-2.1.31-.7.56-1.43.77-2.17h1.24c.19.73.42,1.44.69,2.14.27.7.51,1.41.69,2.13Zm-1.51-1.85c-.22-.6-.41-1.21-.56-1.83h-.05c0,.09-.19.69-.58,1.83h1.19Zm5.73,1.85h-.81c-.25-.5-.55-.98-.9-1.42-.44-.56-.8-1.19-1.07-1.85h-.05c.05.43.08.87.08,1.3,0,.54.02,1.2.05,1.97h-.81c.03-.68.05-1.42.05-2.23,0-.8-.02-1.48-.05-2.03h.97c.21.49.48.96.81,1.39.4.54.73,1.12.99,1.74h.05c-.05-.43-.08-.87-.08-1.31,0-.59-.02-1.2-.05-1.82h.82c-.03.54-.05,1.22-.05,2.03,0,.81.01,1.56.04,2.23h0Zm4.75-2.28c0,.6-.21,1.18-.6,1.62-.42.47-1.04.73-1.67.69-.32,0-.77-.01-1.34-.04.03-.66.04-1.4.04-2.23s-.01-1.47-.04-2.03h.57c.09,0,.23,0,.42-.01.19,0,.31-.01.36-.01.63-.06,1.25.16,1.71.59.35.39.54.89.54,1.42h0Zm-.89.14c.01-.39-.12-.76-.37-1.06-.29-.31-.7-.46-1.12-.43-.13,0-.26.01-.39.03.02.44.03.89.03,1.37,0,.52.01,1.04.03,1.55.14.03.28.04.43.04.4.03.79-.13,1.04-.44.23-.31.35-.68.34-1.07h0Zm5.27,2.14h-.97c-.14-.5-.33-.98-.58-1.43-.16-.19-.41-.29-.66-.27h-.36c0,.56,0,1.13.03,1.7h-.91c.03-.66.04-1.4.04-2.23,0-.79-.01-1.47-.04-2.03h.57c.07,0,.2,0,.41-.01.21,0,.4-.01.58-.01,1,0,1.5.34,1.5,1.03,0,.53-.34,1-.86,1.14v.05c.25.09.46.27.58.52.26.5.49,1.02.67,1.56h0Zm-1.23-3.01c0-.43-.28-.65-.84-.65-.18,0-.36.01-.54.05.02.34.04.78.04,1.32.12,0,.22,0,.3,0,.7,0,1.04-.24,1.04-.72h0Zm5.92.8c.02.61-.2,1.21-.62,1.67-.39.43-.94.67-1.52.66-.55.01-1.07-.21-1.45-.61-.39-.42-.6-.97-.58-1.54-.02-.61.2-1.21.62-1.67.39-.43.94-.67,1.52-.66.55-.01,1.07.21,1.45.61.39.42.6.97.58,1.55h0Zm-.9.1c.02-.4-.11-.79-.35-1.11-.21-.27-.53-.43-.86-.42-.32,0-.63.16-.81.43-.23.31-.35.7-.33,1.08-.02.4.11.79.35,1.11.2.27.52.43.86.43.32,0,.63-.16.81-.43.23-.31.34-.69.33-1.08h0Zm2.76,2.11h-.93c.03-.68.04-1.42.04-2.23,0-.8-.01-1.48-.04-2.03h.93c-.03.55-.04,1.23-.04,2.03,0,.83,0,1.57.04,2.23h0Zm4.75-2.28c0,.6-.21,1.18-.6,1.62-.42.47-1.04.73-1.67.69-.32,0-.77-.01-1.34-.04.03-.66.04-1.4.04-2.23,0-.79-.01-1.47-.04-2.03h.57c.09,0,.23,0,.42-.01.19,0,.31-.01.36-.01.63-.06,1.25.16,1.71.59.35.39.54.89.53,1.42h0Zm-.89.14c.01-.39-.12-.76-.37-1.06-.29-.31-.7-.46-1.12-.43-.13,0-.26.01-.39.03.02.44.03.89.03,1.37,0,.52.01,1.04.03,1.55.14.03.28.04.43.04.4.03.79-.13,1.04-.44.23-.31.35-.68.33-1.06h0Zm7.19,2.14h-1.05c-.06-.42-.16-.83-.3-1.23h-1.51c-.14.4-.25.81-.31,1.23h-.98c0-.09.26-.79.77-2.1.31-.7.56-1.43.77-2.17h1.24c.19.73.42,1.44.69,2.14.27.7.5,1.41.69,2.13h0Zm-1.51-1.85c-.22-.6-.4-1.21-.56-1.83h-.05c0,.09-.19.69-.58,1.83h1.19Zm5.33-1.3c.03.46-.19.9-.58,1.16-.43.26-.92.39-1.43.37-.1,0-.18,0-.22,0,0,.41.01.95.04,1.62h-.92c.03-.63.04-1.37.04-2.23,0-.79-.01-1.46-.04-2.03h.57c.08,0,.24,0,.46-.01.23,0,.43-.01.6-.01.37-.01.74.09,1.05.28.28.19.44.52.42.86h0Zm-.84.18c0-.47-.31-.7-.93-.7-.16,0-.33.02-.49.05.02.41.04.88.04,1.4.06,0,.12,0,.19,0,.79,0,1.19-.24,1.19-.75h0Zm4.77-.18c.03.46-.19.9-.58,1.16-.43.26-.92.39-1.43.37-.1,0-.18,0-.22,0,0,.41.01.95.04,1.62h-.92c.03-.63.04-1.37.04-2.23,0-.79-.01-1.46-.04-2.03h.57c.08,0,.24,0,.46-.01s.43-.01.6-.01c.37-.01.74.09,1.05.28.28.19.44.52.42.86h0Zm-.84.18c0-.47-.31-.7-.93-.7-.16,0-.33.02-.49.05.02.41.04.88.04,1.4.05,0,.12,0,.19,0,.79,0,1.19-.24,1.19-.75h0Zm7.27.76c.02.61-.2,1.21-.62,1.67-.39.43-.94.67-1.52.66-.55.01-1.07-.21-1.45-.61-.39-.42-.6-.97-.58-1.54-.02-.61.2-1.21.62-1.67.39-.43.94-.67,1.52-.66.55-.01,1.07.21,1.45.61.39.42.6.98.58,1.55h0Zm-.9.1c.02-.4-.11-.79-.35-1.11-.21-.27-.53-.43-.86-.42-.32,0-.63.16-.81.43-.23.31-.35.7-.33,1.08-.02.4.11.79.35,1.11.2.27.52.43.86.43.32,0,.63-.16.81-.43.23-.31.34-.69.32-1.08h0Zm5.34,2.11h-.81c-.25-.5-.55-.98-.9-1.42-.44-.56-.8-1.19-1.07-1.85h-.05c.05.43.08.87.08,1.3,0,.54.02,1.2.05,1.97h-.81c.03-.68.05-1.42.05-2.23s-.02-1.48-.05-2.03h.96c.21.49.48.96.81,1.39.4.54.73,1.12.99,1.74h.05c-.05-.43-.08-.87-.08-1.31,0-.59-.02-1.2-.05-1.82h.82c-.03.54-.05,1.22-.05,2.03,0,.81.01,1.56.04,2.23h.01Z"/>
    </g>
  </g>
</svg>