<?xml version="1.0" encoding="utf-8"?>
<!-- Generator: Adobe Illustrator 28.0.0, SVG Export Plug-In . SVG Version: 6.00 Build 0)  -->
<svg version="1.1" id="Calque_1" xmlns="http://www.w3.org/2000/svg" xmlns:xlink="http://www.w3.org/1999/xlink" x="0px" y="0px"
	 viewBox="0 0 506.6 520.6" style="enable-background:new 0 0 506.6 520.6;" xml:space="preserve">
<style type="text/css">
	.st0{fill:none;stroke:#FFFFFF;stroke-width:50;stroke-linecap:round;stroke-linejoin:round;stroke-miterlimit:133.3333;}
</style>
<path class="st0" d="M230.3,493.8c-11.9,0-22.1-8.8-24-20.9c-1.8-9.8-8.6-17.7-17.8-20.8c-7.5-2.6-14.8-5.8-22-9.3
	c-8.5-4.4-18.7-3.8-26.5,1.7c-9.5,7-22.6,5.9-30.9-2.6l-32.2-33.1c-8.7-8.9-9.8-22.9-2.7-33.2c5.5-8.2,6.3-18.9,2.1-27.9
	c-2.8-6.3-5.2-12.7-7.3-19.2c-3-10.3-11.4-18-21.7-20c-12.4-2-21.6-13-21.7-25.9v-41.4c-0.1-14.9,10.4-27.6,24.7-30
	c10.8-2.1,19.9-9.7,24-20.2c1.2-3,2.5-5.9,3.9-8.8c5.5-10.9,4.8-24-2-34.1c-8.4-12-7.1-28.5,3.1-39L103,85
	c11.7-12,30.1-13.5,43.5-3.7l0.7,0.5c10,6.9,22.8,8.2,33.9,3.3c11.9-4.4,20.7-14.9,23.1-27.6l0.3-1.1c2.7-16.9,16.9-29.3,33.5-29.3
	h28.6c17.1,0,31.7,12.7,34.5,30l0.5,2.3c2.3,12.2,10.6,22.3,22,26.7c10.9,4.8,23.5,3.6,33.3-3.3l1.6-1.2
	c13.8-10.2,32.7-8.6,44.8,3.7l21.8,22.4c10.9,11.3,12.3,29,3.2,41.9c-7.1,10.8-8,24.6-2.4,36.3l1.4,3.3
	c4.6,11.4,14.4,19.6,26.2,21.9c15.4,2.6,26.7,16.2,26.8,32.2v37.1c0,14.1-10,26.2-23.5,28.5c-11.2,2.2-20.3,10.5-23.7,21.6
	c-1.5,4.4-3.2,8.9-5.1,13.3c-4.3,9.8-3.4,21.1,2.5,30c7.8,11.1,6.6,26.4-2.9,36.1L397.7,441c-8.7,8.9-22.3,10-32.2,2.7
	c-8.3-5.8-19-6.5-28-1.7c-6.3,3.2-12.9,6.1-19.5,8.6c-9.3,3.3-16.1,11.5-17.9,21.4c-1.9,12.5-12.3,21.7-24.6,21.8H230.3z"/>
<path class="st0" d="M328.9,260.5c0,43-33.9,77.8-75.8,77.8s-75.8-34.8-75.8-77.8s33.9-77.8,75.8-77.8S328.9,217.5,328.9,260.5z"/>
</svg>
