<?xml version="1.0" encoding="UTF-8"?>
<svg id="Object" xmlns="http://www.w3.org/2000/svg" version="1.1" viewBox="0 0 236.7 230.4">
  <!-- Generator: Adobe Illustrator 29.0.1, SVG Export Plug-In . SVG Version: 2.1.0 Build 192)  -->
  <defs>
    <style>
      .st0 {
        fill: #32e800;
      }
    </style>
  </defs>
  <path class="st0" d="M31.8,82.8c5.1,9.7,12.6,18.2,20.8,25.8,2.3,2.1,5.7,5,9.3,7.9,0,0,0,0,0,0,7.3,6,15.3,12.1,15.3,12.1,0,0,0,0,0,0,0,0,.1,0,.1,0,0,0,18.3-12.9,25.5-19.1,8.5-7.3,16.3-15.5,21.8-25,10.2-17.6.5-44.2-22.8-46.6-8.8-.9-20,3.7-22.8,11.3-2.5-7.7-16-12.7-24.8-12.1-23.3,1.5-31.8,27.7-22.3,45.7ZM56.7,78.5c0-.6.5-1,1-1,1.7,0,3.4,0,5.1,0,3.4,0,6.7,0,10.1,0,0-.4,0-.9,0-1.3v-13.8c0-.6.5-1,1.1-1,2.9,0,5.7,0,8.6,0,.6,0,1,.5,1,1,0,1.7,0,3.4,0,5.1,0,3.4,0,6.7,0,10.1.4,0,.9,0,1.3,0h13.8c.6,0,1,.5,1,1.1,0,2.9,0,5.7,0,8.6,0,.6-.5,1-1,1-1.7,0-3.4,0-5.1,0-3.4,0-6.7,0-10.1,0,0,.4,0,.9,0,1.3,0,4.6,0,9.2,0,13.8,0,.3-.1.6-.3.7-.2.2-.4.3-.7.3-2.9,0-5.7,0-8.6,0-.6,0-1-.5-1-1,0-1.7,0-3.4,0-5.1,0-3.4,0-6.7,0-10.1-.4,0-.9,0-1.3,0-4.6,0-9.2,0-13.8,0-.3,0-.6-.1-.7-.3-.2-.2-.3-.4-.3-.7,0-2.9,0-5.7,0-8.6Z"/>
  <path class="st0" d="M209.1,19.5c-13.9-.7-25.7,10-26.4,23.9-.6,12.7,8.3,23.7,20.5,26l-2.7,52.7c-1.7.6-2.9,1.9-3,3.8,0,3-.4,6.1-.7,9.1-.4,3.3-.8,6.5-1.4,9.8-.2.9-.3,1.9-.5,2.8,0,.1,0,.2,0,.2,0,0,0,0,0,.1-.1.5-.2,1.1-.3,1.6-.5,2.1-.9,4.1-1.5,6.2-2.4,9-5.5,17.8-10.2,26.2-.2.4-.5.8-.7,1.3.1-.2-.4.7-.6,1-.7,1.1-1.4,2.2-2.1,3.3-1.4,2-2.8,4-4.5,5.9-.8.9-1.5,1.8-2.3,2.6-.4.4-.8.8-1.2,1.2-.3.3-.5.5-.8.8,0,0-.3.3-.4.4-1.7,1.6-3.6,3.1-5.5,4.5-1,.7-2,1.4-3,2-.5.3-1,.6-1.5.9,1.3-.8-.8.4-1.2.6-2.3,1.2-4.8,2.2-7.4,3.1-.3,0-.5.2-.8.3,0,0,0,0,0,0,0,0,0,0,0,0-.6.2-1.2.3-1.8.5-1.5.4-2.9.7-4.4.9-1.4.2-2.8.4-4.2.5,0,0-.2,0-.4,0,.1,0,.2,0,.4,0-.2,0-.4,0-.6,0,0,0-.1,0-.1,0,0,0-.1,0-.2,0-.9,0-1.9,0-2.8,0-3.3,0-6.6-.2-9.9-.5,0,0,0,0,0,0-.3,0-.6,0-.9-.1-.7-.1-1.4-.2-2.1-.3-1.6-.3-3.2-.7-4.8-1.1-1.3-.3-2.5-.7-3.7-1.1,0,0,0,0,0,0,0,0,0,0,0,0-.3-.1-.5-.2-.8-.3-.8-.3-1.5-.6-2.3-.9-1.1-.5-2.2-1-3.3-1.5-.6-.3-1.2-.6-1.7-.9-.3-.2-1.9-1.1-1.5-.9-2-1.3-3.9-2.7-5.7-4.2-.8-.7-1.7-1.5-2.4-2.2-.2-.2-1.3-1.3-.9-.9-.4-.4-.8-.9-1.2-1.3-3.3-3.7-5.9-7.7-8.1-11.8,0,0,0-.2-.1-.3,0-.1-.1-.3-.2-.3-.2-.5-.5-1-.7-1.4-.5-1.1-1-2.3-1.5-3.4-.9-2.2-1.7-4.4-2.5-6.6-.2-.5-.3-1-.5-1.5,10.8-.8,21.2-5,29.9-11.5,26.1-19.8,37.1-54.4,37.2-86.1,0-17.6,0-35.3,0-52.9s-3.1-6.2-6.3-6.4c-.1,0-.2,0-.3,0-4.2,0-8.3,0-12.5,0v-3.3s-16.9,0-16.9,0c-1.7,0-3.1,1.4-3.1,3.1v6.2c0,1.7,1.4,3.1,3,3.1h16.9s0-2.9,0-2.9c2,0,3.9,0,5.9,0,0,0,0,.2,0,.3v48.3c0,25.4-5.2,52.1-22.7,71.6-8,8.9-18.5,16.1-30.7,17.3-11.9,1.1-23.5-3.5-32.4-11.2-20.8-18.1-28.8-47.2-28.8-73.9,0-17.3,0-34.7,0-52s0-.2,0-.3h5.2s0,2.9,0,2.9h16.9c1.7,0,3.1-1.4,3.1-3.1v-6.2c0-1.7-1.4-3.1-3.1-3.1h-16.9s0,3.3,0,3.3c-4.2,0-8.3,0-12.5,0-.3,0-.6,0-.8.2-2.8.5-5.2,2.6-5.2,6.3v50.5c0,28.9,7.8,59.1,28.1,80.5,9,9.5,20.5,16.4,33.3,18.8,3.8,13.9,10.5,27.5,23.2,37.8,18.3,14.9,50,18.8,72.4,7.6,21.4-10.6,31.8-30.4,37.8-48.7,2.7-8.4,4.6-16.9,5.9-25.5.7-4.5,1.3-9.1,1.4-13.6,0-.2,0-.4,0-.6,0-1.7-1-3-2.4-3.7l2.7-52.7c12.4-1,22.4-11.1,23-23.8.7-13.9-10-25.7-23.9-26.4ZM225.1,45.5c-.4,8.4-6.8,15.1-14.8,16.2l.3-6.5-6.7-.3-.3,6.5c-7.8-2-13.5-9.3-13-17.6.5-9.5,8.6-16.9,18.1-16.4,9.5.5,16.9,8.6,16.4,18.1Z"/>
  <path class="st0" d="M208,39.3c-3.3-.2-6,2.3-6.2,5.6-.2,3.3,2.3,6,5.6,6.2,3.3.2,6-2.3,6.2-5.6.2-3.3-2.3-6-5.6-6.2Z"/>
</svg>