<?xml version="1.0" encoding="utf-8"?>
<!-- Generator: Adobe Illustrator 28.0.0, SVG Export Plug-In . SVG Version: 6.00 Build 0)  -->
<svg version="1.1" id="Calque_1" xmlns="http://www.w3.org/2000/svg" xmlns:xlink="http://www.w3.org/1999/xlink" x="0px" y="0px"
	 viewBox="0 0 800 800" style="enable-background:new 0 0 800 800;" xml:space="preserve">
<style type="text/css">
	.st0{fill-rule:evenodd;clip-rule:evenodd;}
</style>
<path fill="#000" d="M766.7,400c0,11.8-0.6,23.5-1.7,35c-18.9-18.9-41-34.6-65.4-46.1C693.7,228.5,561.8,100.2,400,100.2
	c-165.6,0-299.8,134.2-299.8,299.8c0,161.8,128.3,293.7,288.7,299.6c11.6,24.4,27.2,46.6,46.1,65.4c-11.5,1.1-23.2,1.7-35,1.7
	C197.5,766.7,33.3,602.5,33.3,400C33.3,197.5,197.5,33.3,400,33.3C602.5,33.3,766.7,197.5,766.7,400z"/>
<path fill="#000" d="M433.3,396l28.1,16.2c-18.6,13.8-35.1,30.2-48.9,48.8l-28.6-16.5c-5.8-3.3-10.2-8.2-13-13.7c-4.2-6.5-4.2-15.2-4.2-15.2V200
	c0-18.4,14.9-33.3,33.3-33.3c18.4,0,33.3,14.9,33.3,33.3V396z"/>
<path fill="#000" d="M509.8,590.2c13-13,34.1-13,47.1,0l21.4,21.4l63.3-63.3c13-13,34.1-13,47.1,0c13,13,13,34.1,0,47.1L604,680.1
	c-2.9,2.9-6.2,5.1-9.6,6.7c-12.8,7.5-29.4,5.7-40.4-5.2l-44.2-44.2C496.7,624.4,496.7,603.3,509.8,590.2z"/>
<path fill="#000" class="st0" d="M600,800c110.5,0,200-89.5,200-200s-89.5-200-200-200s-200,89.5-200,200S489.5,800,600,800z M600,733.9
	c-74,0-133.9-60-133.9-133.9S526,466.1,600,466.1S733.9,526,733.9,600S674,733.9,600,733.9z"/>
</svg>
