<?xml version="1.0" encoding="UTF-8"?>
<svg id="Calque_1" data-name="Calque 1" xmlns="http://www.w3.org/2000/svg" viewBox="0 0 766.7 766.7">
  <defs>
    <style>
      .cls-1 {
        fill-rule: evenodd;
      }

      .cls-1, .cls-2 {
        stroke-width: 0px;
      }
    </style>
  </defs>
  <path class="cls-2" d="m733.4,366.7c0,11.8-.6,23.5-1.7,35-18.9-18.9-41-34.6-65.4-46.1-5.9-160.4-137.8-288.7-299.6-288.7S66.9,201.1,66.9,366.7s128.3,293.7,288.7,299.6c11.6,24.4,27.2,46.6,46.1,65.4-11.5,1.1-23.2,1.7-35,1.7C164.2,733.4,0,569.2,0,366.7S164.2,0,366.7,0s366.7,164.2,366.7,366.7Z"/>
  <path class="cls-2" d="m400,362.7l28.1,16.2c-18.6,13.8-35.1,30.2-48.9,48.8l-28.6-16.5c-5.8-3.3-10.2-8.2-13-13.7-4.2-6.5-4.2-15.2-4.2-15.2v-215.6c0-18.4,14.9-33.3,33.3-33.3s33.3,14.9,33.3,33.3v196h0Z"/>
  <path class="cls-2" d="m476.5,556.9c13-13,34.1-13,47.1,0l21.4,21.4,63.3-63.3c13-13,34.1-13,47.1,0s13,34.1,0,47.1l-84.7,84.7c-2.9,2.9-6.2,5.1-9.6,6.7-12.8,7.5-29.4,5.7-40.4-5.2l-44.2-44.2c-13.1-13-13.1-34.1,0-47.2Z"/>
  <path class="cls-1" d="m566.7,766.7c110.5,0,200-89.5,200-200s-89.5-200-200-200-200,89.5-200,200,89.5,200,200,200Zm0-66.1c-74,0-133.9-60-133.9-133.9s59.9-133.9,133.9-133.9,133.9,59.9,133.9,133.9-59.9,133.9-133.9,133.9Z"/>
</svg>