<?xml version="1.0" encoding="utf-8"?>
<!-- Generator: Adobe Illustrator 28.0.0, SVG Export Plug-In . SVG Version: 6.00 Build 0)  -->
<svg version="1.1" id="Calque_1" xmlns="http://www.w3.org/2000/svg" xmlns:xlink="http://www.w3.org/1999/xlink" x="0px" y="0px"
	 viewBox="0 0 669.6 470.9" style="enable-background:new 0 0 669.6 470.9;" xml:space="preserve">
<style type="text/css">
	.st0{fill:none;stroke:#FFFFFF;stroke-width:66.6667;stroke-linecap:round;stroke-linejoin:round;stroke-miterlimit:133.3333;}
</style>
<path class="st0" d="M467.7,169.3l85.9-51.5C580,101.9,593.2,94,604.1,95c9.5,0.9,18.1,5.8,23.8,13.5c6.5,8.8,6.5,24.2,6.5,55.1
	v144.9c0,30.8,0,46.2-6.5,55.1c-5.6,7.7-14.3,12.6-23.8,13.5c-10.9,1-24.1-6.9-50.5-22.8l-85.9-51.5 M141,436h220
	c37.3,0,56,0,70.3-7.3c12.5-6.4,22.7-16.6,29.1-29.1c7.3-14.3,7.3-32.9,7.3-70.3V142.7c0-37.3,0-56-7.3-70.3
	c-6.4-12.5-16.6-22.7-29.1-29.1C417,36,398.4,36,361,36H141c-37.3,0-56,0-70.3,7.3C58.2,49.7,48,59.9,41.6,72.4
	c-7.3,14.3-7.3,32.9-7.3,70.3v186.7c0,37.3,0,56,7.3,70.3c6.4,12.5,16.6,22.7,29.1,29.1C85,436,103.7,436,141,436z"/>
</svg>
