<?xml version="1.0" encoding="utf-8"?>
<!-- Generator: Adobe Illustrator 28.0.0, SVG Export Plug-In . SVG Version: 6.00 Build 0)  -->
<svg version="1.1" id="Calque_1" xmlns="http://www.w3.org/2000/svg" xmlns:xlink="http://www.w3.org/1999/xlink" x="0px" y="0px"
	 viewBox="0 0 841.9 205.4" style="enable-background:new 0 0 841.9 205.4;" xml:space="preserve">
<style type="text/css">
	.st0{enable-background:new    ;}
	.st1{fill:#FFFFFF;}
	.st2{fill:#2AC100;}
	.st3{fill:none;}
</style>
<g>
	<g class="st0">
		<path class="st1" d="M302.4,130.1v17h-69.2V47.5h67.9v17h-48.5v24h42v15.7h-42v26H302.4z"/>
		<path class="st1" d="M366,147.1l-21.5-31.5l-10,9.7v21.7h-18.8V44.7h18.8V107l29.6-32.7h19.9l-27.4,30.9l29.3,41.9H366z"/>
		<path class="st1" d="M424.2,148.5c-6,0-11.4-1-16.1-3c-4.8-2-8.8-4.7-12.1-8.3c-3.3-3.5-5.9-7.5-7.6-12.1
			c-1.8-4.5-2.7-9.3-2.7-14.3c0-5.1,0.9-9.9,2.7-14.4c1.8-4.5,4.3-8.6,7.6-12.1c3.3-3.5,7.4-6.3,12.1-8.3c4.8-2,10.1-3,16.1-3
			c6,0,11.3,1,16.1,3c4.7,2,8.8,4.7,12.1,8.3c3.4,3.5,5.9,7.5,7.6,12.1c1.7,4.5,2.6,9.3,2.6,14.4c0,5-0.9,9.8-2.6,14.3
			c-1.7,4.5-4.3,8.6-7.6,12.1c-3.3,3.5-7.4,6.3-12.1,8.3C435.6,147.5,430.2,148.5,424.2,148.5z M405,110.9c0,4.2,0.8,8,2.5,11.2
			c1.7,3.3,4,5.8,6.9,7.6c2.9,1.8,6.2,2.8,9.8,2.8c3.6,0,6.8-0.9,9.7-2.8c2.9-1.9,5.2-4.4,6.9-7.7c1.7-3.3,2.6-7,2.6-11.2
			c0-4.1-0.9-7.8-2.6-11.1c-1.7-3.3-4-5.9-6.9-7.7c-2.9-1.8-6.1-2.8-9.7-2.8c-3.6,0-6.9,0.9-9.8,2.8c-2.9,1.9-5.2,4.5-6.9,7.7
			C405.8,102.9,405,106.7,405,110.9z"/>
		<path class="st1" d="M502.3,148.5c-6.3,0-12.3-1-18-3.1c-5.7-2.1-10.6-5.1-14.7-9.1l6.7-12.2c4.4,3.6,8.7,6.2,13,7.9
			c4.3,1.7,8.3,2.5,12.3,2.5c3.6,0,6.6-0.6,8.8-1.9c2.2-1.3,3.3-3.2,3.3-5.7c0-1.8-0.6-3.1-1.8-4.1c-1.2-1-3-1.8-5.3-2.6
			c-2.3-0.7-5.1-1.6-8.3-2.5c-5.4-1.8-10-3.5-13.6-5.1c-3.6-1.7-6.4-3.8-8.2-6.3c-1.8-2.5-2.7-5.8-2.7-9.8c0-4.8,1.2-8.9,3.7-12.4
			c2.5-3.5,5.9-6.2,10.4-8.1c4.4-1.9,9.7-2.9,15.6-2.9c5.2,0,10.2,0.8,14.9,2.5c4.7,1.6,8.9,4.3,12.8,7.9l-7.6,11.9
			c-3.7-2.9-7.3-5-10.7-6.4c-3.4-1.4-6.8-2-10.2-2c-2,0-3.8,0.2-5.5,0.7c-1.7,0.5-3.1,1.2-4.2,2.3c-1.1,1.1-1.6,2.6-1.6,4.5
			c0,1.7,0.5,3.1,1.5,4.1c1,1,2.5,1.8,4.5,2.6c2,0.7,4.5,1.6,7.4,2.5c5.9,1.7,10.9,3.4,14.9,5.1c4.1,1.7,7.1,3.9,9.2,6.4
			c2.1,2.5,3.1,6,3.1,10.4c0,7.2-2.7,12.8-8,16.8S511.3,148.5,502.3,148.5z"/>
		<path class="st1" d="M578.7,148.5c-5.9,0-11.2-1-16-3c-4.8-2-8.8-4.7-12.2-8.2c-3.4-3.5-6-7.4-7.8-11.9s-2.7-9.2-2.7-14.2
			c0-6.9,1.6-13.3,4.7-19c3.1-5.7,7.6-10.3,13.5-13.8c5.8-3.5,12.7-5.2,20.7-5.2c8,0,14.9,1.7,20.6,5.2c5.7,3.5,10.1,8.1,13.1,13.8
			c3,5.7,4.6,11.8,4.6,18.4c0,1.1,0,2.2-0.1,3.4c-0.1,1.2-0.2,2.1-0.3,2.8h-56.8c0.4,3.7,1.5,6.9,3.3,9.6c1.8,2.7,4.2,4.8,7,6.2
			c2.9,1.4,5.9,2.1,9.2,2.1c3.7,0,7.3-0.9,10.6-2.7c3.3-1.8,5.6-4.2,6.8-7.2l16.1,4.5c-1.8,3.7-4.3,7.1-7.6,10
			c-3.3,2.9-7.2,5.2-11.7,6.8C589.1,147.7,584.1,148.5,578.7,148.5z M559.4,104.9h38.4c-0.4-3.7-1.4-6.8-3.2-9.5
			c-1.7-2.7-4-4.8-6.8-6.3c-2.8-1.5-5.9-2.3-9.4-2.3c-3.4,0-6.4,0.8-9.2,2.3c-2.8,1.5-5,3.6-6.7,6.3
			C560.9,98,559.8,101.2,559.4,104.9z"/>
	</g>
	<g class="st0">
	</g>
	<g class="st0">
		<path class="st2" d="M667.9,147.1V47.5H712c4.6,0,8.8,0.9,12.7,2.8c3.9,1.9,7.2,4.4,10.1,7.6c2.9,3.2,5.1,6.7,6.6,10.7
			c1.5,3.9,2.3,8,2.3,12.1c0,4.2-0.7,8.3-2.2,12.1c-1.5,3.9-3.5,7.3-6.2,10.2c-2.7,2.9-5.9,5.1-9.5,6.7l22.7,37.5h-21.3l-20.5-33.4
			h-19.4v33.4H667.9z M687.3,96.7h24.3c2.4,0,4.6-0.7,6.5-2.2c1.9-1.4,3.4-3.4,4.5-5.8c1.1-2.4,1.7-5.1,1.7-8.1c0-3.2-0.7-6-2-8.3
			c-1.3-2.4-3-4.3-5-5.7c-2-1.4-4.2-2.1-6.5-2.1h-23.4V96.7z"/>
		<path class="st2" d="M771.6,47.5l24.7,36.8l24.6-36.8h21L807.4,98l33.4,49.1h-21l-23.4-35.4l-23.6,35.4h-21.2L784.9,98l-34.5-50.5
			H771.6z"/>
	</g>
	<g>
		<g>
			<path class="st1" d="M86.4,118.1v33.4H20.6c-0.3,0-0.6,0-1,0c-11.3-0.7-20.4-14.7-20.4-31.7c0-17.1,9.1-31.1,20.4-31.8
				c0.3,0,0.6,0,1,0h32.7v30.3h33.1V118.1z"/>
		</g>
		<g>
			<path class="st2" d="M117,22.5v32.1H86.7v33.1H53.3V22.4c0-0.3,0-0.6,0-0.8C54,10.2,68,1.2,85,1.2c17.1,0,31,9.1,31.8,20.4
				C117,21.8,117,22.3,117,22.5z"/>
		</g>
		<g>
			<path class="st1" d="M203.3,86.4c0,17.1-9.1,31.1-20.4,31.7c-0.3,0-0.6,0-0.8,0h-32V87.8H117V54.4H182c0.3,0,0.6,0,0.8,0.1
				C194.4,55.4,203.3,69.4,203.3,86.4z"/>
		</g>
		<g>
			<polygon class="st2" points="86.4,118.1 86.5,118.1 86.5,118.1 			"/>
		</g>
		<g>
			<path class="st2" d="M150.1,118.2V184c0,0.3,0,0.6-0.1,1c-0.7,11.3-14.7,20.4-31.7,20.4c-17.1,0-31.1-9.1-31.7-20.4
				c0-0.3,0-0.6,0-1v-32.5h30.3v-33.3H150.1z"/>
		</g>
	</g>
</g>
<rect x="-0.3" y="-191.5" class="st3" width="841.9" height="595.3"/>
</svg>
