<?xml version="1.0" encoding="utf-8"?>
<!-- Generator: Adobe Illustrator 28.0.0, SVG Export Plug-In . SVG Version: 6.00 Build 0)  -->
<svg version="1.1" id="Calque_1" xmlns="http://www.w3.org/2000/svg" xmlns:xlink="http://www.w3.org/1999/xlink" x="0px" y="0px"
	 viewBox="0 0 596.9 145.5" style="enable-background:new 0 0 596.9 145.5;" xml:space="preserve">
<style type="text/css">
	.st0{enable-background:new    ;}
	.st1{fill:#003273;}
	.st2{fill:#32E800;}
	.st3{fill:#2AC100;}
</style>
<g>
	<g class="st0">
		<path class="st1" d="M214.2,92.3v12h-48.9V33.9h48v12H179v17h29.6V74H179v18.3H214.2z"/>
		<path class="st1" d="M259.2,104.3L244,82.1l-7,6.9v15.4h-13.3V31.9H237v44l20.9-23.1H272l-19.3,21.8l20.7,29.6H259.2z"/>
		<path class="st1" d="M300.3,105.3c-4.2,0-8-0.7-11.4-2.1c-3.4-1.4-6.2-3.3-8.6-5.8c-2.3-2.5-4.1-5.3-5.4-8.5s-1.9-6.6-1.9-10.1
			c0-3.6,0.6-7,1.9-10.2s3.1-6,5.4-8.5c2.3-2.5,5.2-4.4,8.6-5.8c3.4-1.4,7.2-2.1,11.4-2.1c4.2,0,8,0.7,11.4,2.1
			c3.3,1.4,6.2,3.4,8.6,5.8c2.4,2.5,4.2,5.3,5.4,8.5c1.2,3.2,1.8,6.6,1.8,10.2c0,3.5-0.6,6.9-1.8,10.1c-1.2,3.2-3,6-5.4,8.5
			c-2.3,2.5-5.2,4.4-8.6,5.8S304.5,105.3,300.3,105.3z M286.7,78.7c0,3,0.6,5.6,1.8,7.9c1.2,2.3,2.8,4.1,4.9,5.4
			c2,1.3,4.4,1.9,6.9,1.9c2.5,0,4.8-0.7,6.8-2c2-1.3,3.7-3.1,4.9-5.4c1.2-2.3,1.8-4.9,1.8-7.9c0-2.9-0.6-5.5-1.8-7.9
			c-1.2-2.3-2.9-4.1-4.9-5.4c-2-1.3-4.3-1.9-6.8-1.9c-2.6,0-4.9,0.7-6.9,2c-2,1.3-3.7,3.1-4.9,5.4C287.3,73.1,286.7,75.7,286.7,78.7
			z"/>
		<path class="st1" d="M355.5,105.3c-4.4,0-8.7-0.7-12.7-2.2c-4-1.5-7.5-3.6-10.4-6.4l4.8-8.6c3.1,2.5,6.2,4.4,9.2,5.6
			c3,1.2,5.9,1.8,8.7,1.8c2.6,0,4.6-0.4,6.2-1.3c1.6-0.9,2.3-2.2,2.3-4c0-1.2-0.4-2.2-1.3-2.9c-0.9-0.7-2.1-1.3-3.7-1.8
			c-1.6-0.5-3.6-1.1-5.9-1.8c-3.8-1.2-7-2.4-9.6-3.6c-2.6-1.2-4.5-2.7-5.8-4.5c-1.3-1.8-1.9-4.1-1.9-6.9c0-3.4,0.9-6.3,2.6-8.8
			c1.8-2.4,4.2-4.4,7.3-5.7c3.1-1.4,6.8-2.1,11.1-2.1c3.7,0,7.2,0.6,10.5,1.7c3.3,1.2,6.3,3,9,5.6l-5.4,8.4c-2.6-2-5.2-3.6-7.5-4.5
			c-2.4-1-4.8-1.4-7.2-1.4c-1.4,0-2.7,0.2-3.9,0.5c-1.2,0.3-2.2,0.9-3,1.6c-0.8,0.7-1.1,1.8-1.1,3.2c0,1.2,0.3,2.2,1,2.9
			c0.7,0.7,1.8,1.3,3.2,1.8c1.4,0.5,3.2,1.1,5.2,1.8c4.2,1.2,7.7,2.4,10.6,3.6c2.9,1.2,5,2.8,6.5,4.5c1.5,1.8,2.2,4.2,2.2,7.4
			c0,5.1-1.9,9-5.7,11.9C366.9,103.9,361.9,105.3,355.5,105.3z"/>
		<path class="st1" d="M409.5,105.3c-4.2,0-7.9-0.7-11.3-2.1c-3.4-1.4-6.2-3.3-8.6-5.8s-4.2-5.3-5.5-8.4s-1.9-6.5-1.9-10.1
			c0-4.9,1.1-9.4,3.3-13.4c2.2-4.1,5.4-7.3,9.5-9.8c4.1-2.5,9-3.7,14.6-3.7c5.7,0,10.5,1.2,14.6,3.7c4,2.5,7.1,5.7,9.3,9.7
			c2.1,4,3.2,8.4,3.2,13c0,0.8,0,1.6-0.1,2.4c-0.1,0.8-0.1,1.5-0.2,2h-40.2c0.3,2.6,1,4.8,2.3,6.8c1.3,1.9,2.9,3.4,5,4.4
			c2,1,4.2,1.5,6.5,1.5c2.6,0,5.1-0.6,7.5-1.9c2.3-1.3,3.9-3,4.8-5.1l11.4,3.2c-1.3,2.6-3.1,5-5.4,7c-2.3,2-5.1,3.7-8.3,4.8
			C416.8,104.7,413.3,105.3,409.5,105.3z M395.9,74.4h27.2c-0.3-2.6-1-4.8-2.2-6.7c-1.2-1.9-2.8-3.4-4.8-4.5c-2-1.1-4.2-1.6-6.6-1.6
			c-2.4,0-4.5,0.5-6.5,1.6c-2,1.1-3.5,2.6-4.8,4.5C396.9,69.6,396.2,71.9,395.9,74.4z"/>
	</g>
	<g class="st0">
	</g>
	<g class="st0">
		<path class="st2" d="M474,104.3V33.9h31.1c3.2,0,6.2,0.7,9,2c2.7,1.3,5.1,3.1,7.1,5.4c2,2.2,3.6,4.8,4.7,7.5s1.6,5.6,1.6,8.5
			c0,3-0.5,5.8-1.5,8.6c-1,2.7-2.5,5.1-4.4,7.2c-1.9,2-4.2,3.6-6.7,4.8l16.1,26.5h-15.1l-14.5-23.6h-13.7v23.6H474z M487.6,68.7
			h17.2c1.7,0,3.2-0.5,4.6-1.5c1.3-1,2.4-2.4,3.2-4.1c0.8-1.7,1.2-3.6,1.2-5.8c0-2.2-0.5-4.2-1.4-5.9c-0.9-1.7-2.1-3-3.5-4
			c-1.4-1-3-1.5-4.6-1.5h-16.6V68.7z"/>
		<path class="st2" d="M547.2,33.9l17.5,26l17.4-26h14.9l-24.4,35.7l23.6,34.7h-14.9l-16.6-25l-16.7,25h-15l23.6-34.7l-24.4-35.7
			H547.2z"/>
	</g>
	<g>
		<g>
			<path class="st1" d="M61.6,83.8v23.6H15.1c-0.2,0-0.4,0-0.7,0C6.4,106.9,0,97,0,85c0-12.1,6.4-22,14.4-22.5c0.2,0,0.4,0,0.7,0
				h23.1v21.4h23.4V83.8z"/>
		</g>
		<g>
			<path class="st2" d="M83.2,16.2v22.7H61.8v23.5H38.2V16.2c0-0.2,0-0.4,0-0.6c0.5-8,10.4-14.4,22.4-14.4
				c12.1,0,21.9,6.4,22.5,14.4C83.2,15.8,83.2,16,83.2,16.2z"/>
		</g>
		<g>
			<path class="st1" d="M144.2,61.4c0,12.1-6.4,22-14.4,22.4c-0.2,0-0.4,0-0.6,0h-22.6V62.4H83.2V38.8h46c0.2,0,0.4,0,0.6,0.1
				C137.8,39.4,144.2,49.3,144.2,61.4z"/>
		</g>
		<g>
			<polygon class="st3" points="61.6,83.7 61.7,83.7 61.7,83.7 			"/>
		</g>
		<g>
			<path class="st2" d="M106.6,83.9v46.5c0,0.2,0,0.4-0.1,0.7c-0.5,8-10.4,14.4-22.4,14.4c-12.1,0-22-6.4-22.4-14.4
				c0-0.2,0-0.4,0-0.7v-23h21.4V83.9H106.6z"/>
		</g>
	</g>
</g>
</svg>
