<?xml version="1.0" encoding="UTF-8"?>
<svg id="Calque_1" data-name="Calque 1" xmlns="http://www.w3.org/2000/svg" viewBox="0 0 144.23 144.35">
  <defs>
    <style>
      .cls-1 {
        fill: #2ac100;
        stroke-width: 0px;
      }
    </style>
  </defs>
  <path class="cls-1" d="m61.62,82.6v23.61H15.12c-.24,0-.44,0-.67-.03-8.03-.51-14.44-10.36-14.44-22.45s6.41-21.96,14.44-22.47c.23-.02.43-.02.67-.02h23.09v21.36h23.42Z"/>
  <path class="cls-1" d="m83.17,15.06v22.67h-21.42v23.5h-23.55V15.06c0-.21.02-.42.04-.65.49-8.01,10.35-14.41,22.45-14.41s21.95,6.4,22.46,14.41c.02.23.02.44.02.65Z"/>
  <path class="cls-1" d="m144.23,60.24c0,12.11-6.39,21.96-14.41,22.45-.21.02-.43.02-.64.02h-22.57v-21.41h-23.44v-23.56h46.01c.21,0,.43.02.64.05,8.02.48,14.41,10.36,14.41,22.45Z"/>
  <rect class="cls-1" x="61.62" y="82.56" width=".13" height=".04"/>
  <path class="cls-1" d="m106.62,82.71v46.53c0,.23-.02.43-.05.67-.48,8.03-10.36,14.45-22.45,14.45s-21.96-6.41-22.45-14.45c-.02-.24-.04-.44-.04-.67v-23.03h21.43v-23.5h23.56Z"/>
</svg>