<?xml version="1.0" encoding="utf-8"?>
<!-- Generator: Adobe Illustrator 28.0.0, SVG Export Plug-In . SVG Version: 6.00 Build 0)  -->
<svg version="1.1" id="Calque_1" xmlns="http://www.w3.org/2000/svg" xmlns:xlink="http://www.w3.org/1999/xlink" x="0px" y="0px"
	 viewBox="0 0 144.2 144.9" style="enable-background:new 0 0 144.2 144.9;" xml:space="preserve">
<style type="text/css">
	.st0{fill:#28528B;}
	.st1{fill:#2AC100;}
</style>
<g>
	<g>
		<path class="st0" d="M61.6,83.2v23.6H15.1c-0.2,0-0.4,0-0.7,0C6.4,106.3,0,96.4,0,84.3c0-12.1,6.4-22,14.4-22.5c0.2,0,0.4,0,0.7,0
			h23.1v21.4H61.6z"/>
		<path class="st1" d="M83.2,15.7v22.7H61.8v23.5H38.2V15.7c0-0.2,0-0.4,0-0.6C38.7,7,48.6,0.6,60.7,0.6C72.8,0.6,82.6,7,83.2,15
			C83.2,15.2,83.2,15.4,83.2,15.7z"/>
		<path class="st0" d="M144.2,60.8c0,12.1-6.4,22-14.4,22.4c-0.2,0-0.4,0-0.6,0h-22.6V61.9H83.2V38.3h46c0.2,0,0.4,0,0.6,0.1
			C137.8,38.9,144.2,48.7,144.2,60.8z"/>
		<rect x="61.6" y="83.1" class="st1" width="0.1" height="0"/>
		<path class="st1" d="M106.6,83.3v46.5c0,0.2,0,0.4-0.1,0.7c-0.5,8-10.4,14.4-22.4,14.4c-12.1,0-22-6.4-22.4-14.4
			c0-0.2,0-0.4,0-0.7v-23h21.4V83.3H106.6z"/>
	</g>
</g>
</svg>
