<?xml version="1.0" encoding="utf-8"?>
<!-- Generator: Adobe Illustrator 28.0.0, SVG Export Plug-In . SVG Version: 6.00 Build 0)  -->
<svg version="1.1" id="Calque_1" xmlns="http://www.w3.org/2000/svg" xmlns:xlink="http://www.w3.org/1999/xlink" x="0px" y="0px"
	 viewBox="0 0 144.2 144.4" style="enable-background:new 0 0 144.2 144.4;" xml:space="preserve">
<style type="text/css">
	.st0{fill:#003273;}
	.st1{fill:#2AC100;}
</style>
<path class="st0" d="M61.6,82.6v23.6H15.1c-0.2,0-0.4,0-0.7,0C6.4,105.7,0,95.8,0,83.7s6.4-22,14.4-22.5c0.2,0,0.4,0,0.7,0h23.1
	v21.4L61.6,82.6L61.6,82.6z"/>
<path class="st0" d="M83.2,15.1v22.7H61.8v23.5H38.2V15.1c0-0.2,0-0.4,0-0.6C38.7,6.4,48.6,0,60.7,0s21.9,6.4,22.5,14.4
	C83.2,14.6,83.2,14.8,83.2,15.1z"/>
<path class="st0" d="M144.2,60.2c0,12.1-6.4,22-14.4,22.5c-0.2,0-0.4,0-0.6,0h-22.6V61.3H83.2V37.7h46c0.2,0,0.4,0,0.6,0
	C137.8,38.3,144.2,48.1,144.2,60.2z"/>
<rect x="61.6" y="82.6" class="st1" width="0.1" height="0"/>
<path class="st0" d="M106.6,82.7v46.5c0,0.2,0,0.4-0.1,0.7c-0.5,8-10.4,14.4-22.5,14.4s-22-6.4-22.5-14.4c0-0.2,0-0.4,0-0.7v-23
	h21.4V82.7C83.1,82.7,106.6,82.7,106.6,82.7z"/>
</svg>
